%TF.GenerationSoftware,KiCad,Pcbnew,9.0.2*%
%TF.CreationDate,2025-10-26T15:03:13+01:00*%
%TF.ProjectId,onyks_iot_control_cabinet_pcb,6f6e796b-735f-4696-9f74-5f636f6e7472,rev?*%
%TF.SameCoordinates,Original*%
%TF.FileFunction,Soldermask,Bot*%
%TF.FilePolarity,Negative*%
%FSLAX46Y46*%
G04 Gerber Fmt 4.6, Leading zero omitted, Abs format (unit mm)*
G04 Created by KiCad (PCBNEW 9.0.2) date 2025-10-26 15:03:13*
%MOMM*%
%LPD*%
G01*
G04 APERTURE LIST*
%ADD10R,1.980000X3.960000*%
%ADD11O,1.980000X3.960000*%
%ADD12R,1.700000X1.700000*%
%ADD13C,1.700000*%
%ADD14O,2.000000X1.500000*%
%ADD15C,2.000000*%
%ADD16C,1.500000*%
%ADD17C,3.600000*%
%ADD18C,5.600000*%
%ADD19R,3.960000X1.980000*%
%ADD20O,3.960000X1.980000*%
G04 APERTURE END LIST*
D10*
%TO.C,J3*%
X200000000Y-118500000D03*
D11*
X205000000Y-118500000D03*
%TD*%
D12*
%TO.C,J10*%
X219964000Y-72898000D03*
D13*
X219964000Y-75438000D03*
X219964000Y-77978000D03*
X219964000Y-80518000D03*
X219964000Y-83058000D03*
%TD*%
D12*
%TO.C,J9*%
X209296000Y-54991000D03*
D13*
X211836000Y-54991000D03*
X209296000Y-57531000D03*
X211836000Y-57531000D03*
X209296000Y-60071000D03*
X211836000Y-60071000D03*
X209296000Y-62611000D03*
X211836000Y-62611000D03*
X209296000Y-65151000D03*
X211836000Y-65151000D03*
X209296000Y-67691000D03*
X211836000Y-67691000D03*
X209296000Y-70231000D03*
X211836000Y-70231000D03*
X209296000Y-72771000D03*
X211836000Y-72771000D03*
X209296000Y-75311000D03*
X211836000Y-75311000D03*
%TD*%
D14*
%TO.C,J4*%
X180000000Y-119900000D03*
D15*
X180000000Y-115500000D03*
%TD*%
D12*
%TO.C,J1*%
X182880000Y-80010000D03*
D13*
X182880000Y-77470000D03*
X185420000Y-80010000D03*
X185420000Y-77470000D03*
X187960000Y-80010000D03*
X187960000Y-77470000D03*
X190500000Y-80010000D03*
X190500000Y-77470000D03*
X193040000Y-80010000D03*
X193040000Y-77470000D03*
%TD*%
D12*
%TO.C,J8*%
X191135000Y-106172000D03*
D13*
X193675000Y-106172000D03*
X196215000Y-106172000D03*
%TD*%
D12*
%TO.C,J5*%
X181356000Y-106172000D03*
D13*
X183896000Y-106172000D03*
X186436000Y-106172000D03*
%TD*%
D16*
%TO.C,LS1*%
X211010000Y-105000000D03*
X211010000Y-90000000D03*
%TD*%
D17*
%TO.C,H1*%
X160000000Y-48000000D03*
D18*
X160000000Y-48000000D03*
%TD*%
D17*
%TO.C,H4*%
X220000000Y-120000000D03*
D18*
X220000000Y-120000000D03*
%TD*%
D19*
%TO.C,J6*%
X163000000Y-72000000D03*
D20*
X163000000Y-77000000D03*
%TD*%
D17*
%TO.C,H3*%
X160000000Y-120000000D03*
D18*
X160000000Y-120000000D03*
%TD*%
D12*
%TO.C,J11*%
X219964000Y-55372000D03*
D13*
X219964000Y-57912000D03*
X219964000Y-60452000D03*
X219964000Y-62992000D03*
X219964000Y-65532000D03*
X219964000Y-68072000D03*
%TD*%
D12*
%TO.C,J7*%
X200431400Y-70561200D03*
D13*
X202971400Y-70561200D03*
%TD*%
D12*
%TO.C,J2*%
X180213000Y-83820000D03*
D13*
X182753000Y-83820000D03*
X185293000Y-83820000D03*
X187833000Y-83820000D03*
X190373000Y-83820000D03*
X192913000Y-83820000D03*
%TD*%
D17*
%TO.C,H2*%
X220000000Y-48000000D03*
D18*
X220000000Y-48000000D03*
%TD*%
M02*
