%TF.GenerationSoftware,KiCad,Pcbnew,9.0.2*%
%TF.CreationDate,2025-10-26T15:03:13+01:00*%
%TF.ProjectId,onyks_iot_control_cabinet_pcb,6f6e796b-735f-4696-9f74-5f636f6e7472,rev?*%
%TF.SameCoordinates,Original*%
%TF.FileFunction,Paste,Top*%
%TF.FilePolarity,Positive*%
%FSLAX46Y46*%
G04 Gerber Fmt 4.6, Leading zero omitted, Abs format (unit mm)*
G04 Created by KiCad (PCBNEW 9.0.2) date 2025-10-26 15:03:13*
%MOMM*%
%LPD*%
G01*
G04 APERTURE LIST*
G04 Aperture macros list*
%AMRoundRect*
0 Rectangle with rounded corners*
0 $1 Rounding radius*
0 $2 $3 $4 $5 $6 $7 $8 $9 X,Y pos of 4 corners*
0 Add a 4 corners polygon primitive as box body*
4,1,4,$2,$3,$4,$5,$6,$7,$8,$9,$2,$3,0*
0 Add four circle primitives for the rounded corners*
1,1,$1+$1,$2,$3*
1,1,$1+$1,$4,$5*
1,1,$1+$1,$6,$7*
1,1,$1+$1,$8,$9*
0 Add four rect primitives between the rounded corners*
20,1,$1+$1,$2,$3,$4,$5,0*
20,1,$1+$1,$4,$5,$6,$7,0*
20,1,$1+$1,$6,$7,$8,$9,0*
20,1,$1+$1,$8,$9,$2,$3,0*%
G04 Aperture macros list end*
%ADD10RoundRect,0.250000X-0.350000X-0.450000X0.350000X-0.450000X0.350000X0.450000X-0.350000X0.450000X0*%
%ADD11RoundRect,0.250000X0.450000X-0.350000X0.450000X0.350000X-0.450000X0.350000X-0.450000X-0.350000X0*%
%ADD12RoundRect,0.250000X0.350000X0.450000X-0.350000X0.450000X-0.350000X-0.450000X0.350000X-0.450000X0*%
%ADD13RoundRect,0.225000X-0.250000X0.225000X-0.250000X-0.225000X0.250000X-0.225000X0.250000X0.225000X0*%
%ADD14RoundRect,0.225000X0.250000X-0.225000X0.250000X0.225000X-0.250000X0.225000X-0.250000X-0.225000X0*%
%ADD15RoundRect,0.375000X-0.375000X0.625000X-0.375000X-0.625000X0.375000X-0.625000X0.375000X0.625000X0*%
%ADD16RoundRect,0.500000X-1.400000X0.500000X-1.400000X-0.500000X1.400000X-0.500000X1.400000X0.500000X0*%
%ADD17R,2.900000X5.400000*%
%ADD18RoundRect,0.250000X-0.450000X0.350000X-0.450000X-0.350000X0.450000X-0.350000X0.450000X0.350000X0*%
%ADD19RoundRect,0.250000X1.000000X-1.400000X1.000000X1.400000X-1.000000X1.400000X-1.000000X-1.400000X0*%
%ADD20R,0.650000X1.528000*%
%ADD21R,3.000000X2.000000*%
%ADD22R,1.250000X1.000000*%
%ADD23RoundRect,0.150000X-0.587500X-0.150000X0.587500X-0.150000X0.587500X0.150000X-0.587500X0.150000X0*%
%ADD24RoundRect,0.090000X0.660000X0.360000X-0.660000X0.360000X-0.660000X-0.360000X0.660000X-0.360000X0*%
%ADD25RoundRect,0.150000X-0.150000X0.587500X-0.150000X-0.587500X0.150000X-0.587500X0.150000X0.587500X0*%
%ADD26RoundRect,0.150000X0.150000X-0.512500X0.150000X0.512500X-0.150000X0.512500X-0.150000X-0.512500X0*%
%ADD27RoundRect,0.250000X1.400000X1.000000X-1.400000X1.000000X-1.400000X-1.000000X1.400000X-1.000000X0*%
%ADD28RoundRect,0.150000X-0.150000X0.512500X-0.150000X-0.512500X0.150000X-0.512500X0.150000X0.512500X0*%
%ADD29RoundRect,0.150000X0.150000X-0.587500X0.150000X0.587500X-0.150000X0.587500X-0.150000X-0.587500X0*%
%ADD30RoundRect,0.225000X-0.225000X-0.250000X0.225000X-0.250000X0.225000X0.250000X-0.225000X0.250000X0*%
%ADD31R,1.500000X0.900000*%
%ADD32R,0.900000X1.500000*%
%ADD33R,0.900000X0.900000*%
G04 APERTURE END LIST*
D10*
%TO.C,R10*%
X191151000Y-102616000D03*
X193151000Y-102616000D03*
%TD*%
D11*
%TO.C,R1*%
X167767000Y-49133000D03*
X167767000Y-47133000D03*
%TD*%
D12*
%TO.C,R6*%
X167878000Y-97028000D03*
X165878000Y-97028000D03*
%TD*%
D13*
%TO.C,C7*%
X163763000Y-110617000D03*
X163763000Y-112167000D03*
%TD*%
D14*
%TO.C,C1*%
X167767000Y-57417000D03*
X167767000Y-55867000D03*
%TD*%
D15*
%TO.C,U2*%
X186958000Y-92481000D03*
X184658000Y-92481000D03*
D16*
X184658000Y-98781000D03*
D15*
X182358000Y-92481000D03*
%TD*%
D11*
%TO.C,R3*%
X161671000Y-110585000D03*
X161671000Y-108585000D03*
%TD*%
D13*
%TO.C,C9*%
X170307000Y-100037000D03*
X170307000Y-101587000D03*
%TD*%
%TO.C,C5*%
X168783000Y-110617000D03*
X168783000Y-112167000D03*
%TD*%
D17*
%TO.C,L1*%
X165992000Y-88646000D03*
X175892000Y-88646000D03*
%TD*%
D10*
%TO.C,R11*%
X195215000Y-102616000D03*
X197215000Y-102616000D03*
%TD*%
D18*
%TO.C,R8*%
X178384200Y-77638400D03*
X178384200Y-79638400D03*
%TD*%
D19*
%TO.C,D3*%
X158144000Y-65532000D03*
X164944000Y-65532000D03*
%TD*%
D14*
%TO.C,C4*%
X175768000Y-46876000D03*
X175768000Y-45326000D03*
%TD*%
D20*
%TO.C,IC1*%
X161798000Y-104692000D03*
X163068000Y-104692000D03*
X164338000Y-104692000D03*
X165608000Y-104692000D03*
X165608000Y-99270000D03*
X164338000Y-99270000D03*
X163068000Y-99270000D03*
X161798000Y-99270000D03*
%TD*%
D13*
%TO.C,C6*%
X166273000Y-110617000D03*
X166273000Y-112167000D03*
%TD*%
D14*
%TO.C,C3*%
X178562000Y-46876000D03*
X178562000Y-45326000D03*
%TD*%
D18*
%TO.C,R16*%
X205359000Y-77486000D03*
X205359000Y-79486000D03*
%TD*%
D21*
%TO.C,J4*%
X174500000Y-120000000D03*
X174500000Y-114000000D03*
X185500000Y-114000000D03*
X185500000Y-120000000D03*
%TD*%
D18*
%TO.C,R7*%
X168275000Y-99965000D03*
X168275000Y-101965000D03*
%TD*%
D22*
%TO.C,SW3*%
X197547000Y-66192400D03*
X205297000Y-66192400D03*
%TD*%
D11*
%TO.C,R14*%
X199517000Y-79486000D03*
X199517000Y-77486000D03*
%TD*%
D22*
%TO.C,SW1*%
X165375000Y-59500000D03*
X157625000Y-59500000D03*
%TD*%
D18*
%TO.C,R15*%
X205288000Y-82409000D03*
X205288000Y-84409000D03*
%TD*%
D13*
%TO.C,C16*%
X204749400Y-73570800D03*
X204749400Y-75120800D03*
%TD*%
D23*
%TO.C,Q4*%
X194183000Y-97033000D03*
X194183000Y-98933000D03*
X196058000Y-97983000D03*
%TD*%
D12*
%TO.C,R9*%
X202955400Y-73787000D03*
X200955400Y-73787000D03*
%TD*%
D24*
%TO.C,D1*%
X193864400Y-71220600D03*
X193864400Y-67920600D03*
X188964400Y-67920600D03*
X188964400Y-71220600D03*
%TD*%
D14*
%TO.C,C13*%
X159639000Y-102756000D03*
X159639000Y-101206000D03*
%TD*%
D13*
%TO.C,C2*%
X165811200Y-55880000D03*
X165811200Y-57430000D03*
%TD*%
%TO.C,C14*%
X177546000Y-97015000D03*
X177546000Y-98565000D03*
%TD*%
D18*
%TO.C,R12*%
X190802500Y-97110000D03*
X190802500Y-99110000D03*
%TD*%
D25*
%TO.C,Q3*%
X176540200Y-77779400D03*
X174640200Y-77779400D03*
X175590200Y-79654400D03*
%TD*%
D26*
%TO.C,Q2*%
X171897000Y-48762500D03*
X173797000Y-48762500D03*
X172847000Y-46487500D03*
%TD*%
D11*
%TO.C,R13*%
X199446000Y-84409000D03*
X199446000Y-82409000D03*
%TD*%
D27*
%TO.C,D2*%
X160274000Y-92173000D03*
X160274000Y-85373000D03*
%TD*%
D14*
%TO.C,C10*%
X174117000Y-101359000D03*
X174117000Y-99809000D03*
%TD*%
D13*
%TO.C,C8*%
X179451000Y-97015000D03*
X179451000Y-98565000D03*
%TD*%
D28*
%TO.C,Q1*%
X173797000Y-51870500D03*
X171897000Y-51870500D03*
X172847000Y-54145500D03*
%TD*%
D29*
%TO.C,Q5*%
X201422000Y-84328000D03*
X203322000Y-84328000D03*
X202372000Y-82453000D03*
%TD*%
D30*
%TO.C,C11*%
X165722000Y-106553000D03*
X167272000Y-106553000D03*
%TD*%
D10*
%TO.C,R4*%
X163719000Y-108585000D03*
X165719000Y-108585000D03*
%TD*%
D13*
%TO.C,C15*%
X175641000Y-97015000D03*
X175641000Y-98565000D03*
%TD*%
D30*
%TO.C,C12*%
X184645000Y-89916000D03*
X186195000Y-89916000D03*
%TD*%
D31*
%TO.C,U1*%
X181250000Y-44750000D03*
X181250000Y-46020000D03*
X181250000Y-47290000D03*
X181250000Y-48560000D03*
X181250000Y-49830000D03*
X181250000Y-51100000D03*
X181250000Y-52370000D03*
X181250000Y-53640000D03*
X181250000Y-54910000D03*
X181250000Y-56180000D03*
X181250000Y-57450000D03*
X181250000Y-58720000D03*
X181250000Y-59990000D03*
X181250000Y-61260000D03*
D32*
X184290000Y-62510000D03*
X185560000Y-62510000D03*
X186830000Y-62510000D03*
X188100000Y-62510000D03*
X189370000Y-62510000D03*
X190640000Y-62510000D03*
X191910000Y-62510000D03*
X193180000Y-62510000D03*
X194450000Y-62510000D03*
X195720000Y-62510000D03*
D31*
X198750000Y-61260000D03*
X198750000Y-59990000D03*
X198750000Y-58720000D03*
X198750000Y-57450000D03*
X198750000Y-56180000D03*
X198750000Y-54910000D03*
X198750000Y-53640000D03*
X198750000Y-52370000D03*
X198750000Y-51100000D03*
X198750000Y-49830000D03*
X198750000Y-48560000D03*
X198750000Y-47290000D03*
X198750000Y-46020000D03*
X198750000Y-44750000D03*
D33*
X187100000Y-51070000D03*
X187100000Y-52470000D03*
X187100000Y-53870000D03*
X188500000Y-51070000D03*
X188500000Y-52470000D03*
X188500000Y-53870000D03*
X189900000Y-51070000D03*
X189900000Y-52470000D03*
X189900000Y-53870000D03*
%TD*%
D18*
%TO.C,R2*%
X167767000Y-51754000D03*
X167767000Y-53754000D03*
%TD*%
%TO.C,R5*%
X172212000Y-99952000D03*
X172212000Y-101952000D03*
%TD*%
D29*
%TO.C,Q6*%
X201427000Y-79375000D03*
X203327000Y-79375000D03*
X202377000Y-77500000D03*
%TD*%
D22*
%TO.C,SW2*%
X165375000Y-54000000D03*
X157625000Y-54000000D03*
%TD*%
M02*
