M48
; DRILL file {KiCad 9.0.2} date 2025-10-26T15:01:41+0100
; FORMAT={-:-/ absolute / metric / decimal}
; #@! TF.CreationDate,2025-10-26T15:01:41+01:00
; #@! TF.GenerationSoftware,Kicad,Pcbnew,9.0.2
; #@! TF.FileFunction,Plated,1,2,PTH
FMAT,2
METRIC
; #@! TA.AperFunction,Plated,PTH,ComponentDrill
T1C0.200
; #@! TA.AperFunction,Plated,PTH,ViaDrill
T2C1.000
; #@! TA.AperFunction,Plated,PTH,ComponentDrill
T3C1.000
; #@! TA.AperFunction,Plated,PTH,ComponentDrill
T4C1.320
; #@! TA.AperFunction,Plated,PTH,ComponentDrill
T5C3.200
%
G90
G05
T1
X187.1Y-51.77
X187.1Y-53.17
X187.8Y-51.07
X187.8Y-52.47
X187.8Y-53.87
X188.475Y-51.77
X188.475Y-53.17
X189.2Y-51.07
X189.2Y-52.47
X189.2Y-53.87
X189.9Y-51.77
X189.9Y-53.17
T2
X162.179Y-101.981
X162.433Y-113.919
X162.814Y-97.18
X163.195Y-94.996
X164.973Y-113.919
X165.608Y-49.149
X165.684Y-47.193
X167.513Y-113.919
X169.672Y-104.902
X169.774Y-51.003
X169.926Y-53.594
X170.053Y-47.879
X170.231Y-56.337
X170.307Y-98.298
X172.847Y-56.083
X174.219Y-72.898
X175.463Y-48.971
X176.987Y-52.172
X178.206Y-57.15
X178.587Y-64.11
X178.613Y-72.644
X179.172Y-89.611
X179.197Y-92.05
X179.197Y-94.336
X179.375Y-55.677
X179.375Y-58.522
X181.543Y-66.802
X181.543Y-68.602
X181.966Y-89.611
X183.159Y-59.969
X184.972Y-69.02
X185.217Y-59.893
X187.234Y-69.508
X188.087Y-89.916
X189.459Y-92.481
X190.802Y-95.225
X191.211Y-64.491
X193.751Y-59.411
X194.005Y-52.451
X194.107Y-50.368
X195.224Y-53.848
X195.326Y-48.971
X196.393Y-60.706
X196.418Y-58.344
X196.774Y-56.083
X196.85Y-76.2
X196.85Y-89.205
X197.637Y-80.899
X200.736Y-61.646
X200.812Y-54.712
X200.99Y-75.844
X202.717Y-61.646
X203.632Y-59.995
X204.724Y-57.455
X205.283Y-63.17
X206.553Y-52.451
X207.391Y-79.477
X210.642Y-79.477
X212.877Y-81.559
X214.605Y-75.87
T3
X180.213Y-83.82
X181.356Y-106.172
X182.753Y-83.82
X182.88Y-77.47
X182.88Y-80.01
X183.896Y-106.172
X185.293Y-83.82
X185.42Y-77.47
X185.42Y-80.01
X186.436Y-106.172
X187.833Y-83.82
X187.96Y-77.47
X187.96Y-80.01
X190.373Y-83.82
X190.5Y-77.47
X190.5Y-80.01
X191.135Y-106.172
X192.913Y-83.82
X193.04Y-77.47
X193.04Y-80.01
X193.675Y-106.172
X196.215Y-106.172
X200.431Y-70.561
X202.971Y-70.561
X209.296Y-54.991
X209.296Y-57.531
X209.296Y-60.071
X209.296Y-62.611
X209.296Y-65.151
X209.296Y-67.691
X209.296Y-70.231
X209.296Y-72.771
X209.296Y-75.311
X211.01Y-90.0
X211.01Y-105.0
X211.836Y-54.991
X211.836Y-57.531
X211.836Y-60.071
X211.836Y-62.611
X211.836Y-65.151
X211.836Y-67.691
X211.836Y-70.231
X211.836Y-72.771
X211.836Y-75.311
X219.964Y-55.372
X219.964Y-57.912
X219.964Y-60.452
X219.964Y-62.992
X219.964Y-65.532
X219.964Y-68.072
X219.964Y-72.898
X219.964Y-75.438
X219.964Y-77.978
X219.964Y-80.518
X219.964Y-83.058
T4
X163.0Y-72.0
X163.0Y-77.0
X200.0Y-118.5
X205.0Y-118.5
T5
X160.0Y-48.0
X160.0Y-120.0
X220.0Y-48.0
X220.0Y-120.0
M30
