%TF.GenerationSoftware,KiCad,Pcbnew,9.0.2*%
%TF.CreationDate,2025-10-26T15:03:13+01:00*%
%TF.ProjectId,onyks_iot_control_cabinet_pcb,6f6e796b-735f-4696-9f74-5f636f6e7472,rev?*%
%TF.SameCoordinates,Original*%
%TF.FileFunction,Copper,L2,Bot*%
%TF.FilePolarity,Positive*%
%FSLAX46Y46*%
G04 Gerber Fmt 4.6, Leading zero omitted, Abs format (unit mm)*
G04 Created by KiCad (PCBNEW 9.0.2) date 2025-10-26 15:03:13*
%MOMM*%
%LPD*%
G01*
G04 APERTURE LIST*
%TA.AperFunction,ComponentPad*%
%ADD10R,1.980000X3.960000*%
%TD*%
%TA.AperFunction,ComponentPad*%
%ADD11O,1.980000X3.960000*%
%TD*%
%TA.AperFunction,ComponentPad*%
%ADD12R,1.700000X1.700000*%
%TD*%
%TA.AperFunction,ComponentPad*%
%ADD13C,1.700000*%
%TD*%
%TA.AperFunction,ComponentPad*%
%ADD14C,1.500000*%
%TD*%
%TA.AperFunction,ComponentPad*%
%ADD15C,3.600000*%
%TD*%
%TA.AperFunction,ConnectorPad*%
%ADD16C,5.600000*%
%TD*%
%TA.AperFunction,ComponentPad*%
%ADD17R,3.960000X1.980000*%
%TD*%
%TA.AperFunction,ComponentPad*%
%ADD18O,3.960000X1.980000*%
%TD*%
%TA.AperFunction,HeatsinkPad*%
%ADD19C,0.600000*%
%TD*%
%TA.AperFunction,ViaPad*%
%ADD20C,1.600000*%
%TD*%
%TA.AperFunction,Conductor*%
%ADD21C,2.000000*%
%TD*%
%TA.AperFunction,Conductor*%
%ADD22C,0.508000*%
%TD*%
%TA.AperFunction,Conductor*%
%ADD23C,1.000000*%
%TD*%
G04 APERTURE END LIST*
D10*
%TO.P,J3,1,Pin_1*%
%TO.N,GND*%
X200000000Y-118500000D03*
D11*
%TO.P,J3,2,Pin_2*%
%TO.N,Net-(J3-Pin_2)*%
X205000000Y-118500000D03*
%TD*%
D12*
%TO.P,J10,1,Pin_1*%
%TO.N,GND*%
X219964000Y-72898000D03*
D13*
%TO.P,J10,2,Pin_2*%
%TO.N,unconnected-(J10-Pin_2-Pad2)*%
X219964000Y-75438000D03*
%TO.P,J10,3,Pin_3*%
%TO.N,/MCU/GPIO_21*%
X219964000Y-77978000D03*
%TO.P,J10,4,Pin_4*%
%TO.N,/MCU/GPIO_22*%
X219964000Y-80518000D03*
%TO.P,J10,5,Pin_5*%
%TO.N,+5V*%
X219964000Y-83058000D03*
%TD*%
D12*
%TO.P,J9,1,Pin_1*%
%TO.N,/MCU/GPIO_2*%
X209296000Y-54991000D03*
D13*
%TO.P,J9,2,Pin_2*%
%TO.N,GND*%
X211836000Y-54991000D03*
%TO.P,J9,3,Pin_3*%
%TO.N,/MCU/GPIO_4*%
X209296000Y-57531000D03*
%TO.P,J9,4,Pin_4*%
%TO.N,GND*%
X211836000Y-57531000D03*
%TO.P,J9,5,Pin_5*%
%TO.N,/MCU/GPIO_5*%
X209296000Y-60071000D03*
%TO.P,J9,6,Pin_6*%
%TO.N,GND*%
X211836000Y-60071000D03*
%TO.P,J9,7,Pin_7*%
%TO.N,/MCU/GPIO_16*%
X209296000Y-62611000D03*
%TO.P,J9,8,Pin_8*%
%TO.N,GND*%
X211836000Y-62611000D03*
%TO.P,J9,9,Pin_9*%
%TO.N,/MCU/GPIO_33*%
X209296000Y-65151000D03*
%TO.P,J9,10,Pin_10*%
%TO.N,GND*%
X211836000Y-65151000D03*
%TO.P,J9,11,Pin_11*%
%TO.N,/MCU/GPIO_34*%
X209296000Y-67691000D03*
%TO.P,J9,12,Pin_12*%
%TO.N,GND*%
X211836000Y-67691000D03*
%TO.P,J9,13,Pin_13*%
%TO.N,/MCU/GPIO_35*%
X209296000Y-70231000D03*
%TO.P,J9,14,Pin_14*%
%TO.N,GND*%
X211836000Y-70231000D03*
%TO.P,J9,15,Pin_15*%
X209296000Y-72771000D03*
%TO.P,J9,16,Pin_16*%
X211836000Y-72771000D03*
%TO.P,J9,17,Pin_17*%
X209296000Y-75311000D03*
%TO.P,J9,18,Pin_18*%
X211836000Y-75311000D03*
%TD*%
D12*
%TO.P,J1,1,Pin_1*%
%TO.N,+3.3V*%
X182880000Y-80010000D03*
D13*
%TO.P,J1,2,Pin_2*%
%TO.N,/MCU/MTDI*%
X182880000Y-77470000D03*
%TO.P,J1,3,Pin_3*%
%TO.N,GND*%
X185420000Y-80010000D03*
%TO.P,J1,4,Pin_4*%
%TO.N,/MCU/MTCK*%
X185420000Y-77470000D03*
%TO.P,J1,5,Pin_5*%
%TO.N,GND*%
X187960000Y-80010000D03*
%TO.P,J1,6,Pin_6*%
%TO.N,/MCU/MTMS*%
X187960000Y-77470000D03*
%TO.P,J1,7,Pin_7*%
%TO.N,GND*%
X190500000Y-80010000D03*
%TO.P,J1,8,Pin_8*%
%TO.N,/MCU/MTDO*%
X190500000Y-77470000D03*
%TO.P,J1,9,Pin_9*%
%TO.N,GND*%
X193040000Y-80010000D03*
%TO.P,J1,10,Pin_10*%
%TO.N,unconnected-(J1-Pin_10-Pad10)*%
X193040000Y-77470000D03*
%TD*%
D12*
%TO.P,J8,1,Pin_1*%
%TO.N,+24V*%
X191135000Y-106172000D03*
D13*
%TO.P,J8,2,Pin_2*%
%TO.N,Net-(J8-Pin_2)*%
X193675000Y-106172000D03*
%TO.P,J8,3,Pin_3*%
%TO.N,Net-(J8-Pin_3)*%
X196215000Y-106172000D03*
%TD*%
D12*
%TO.P,J5,1,Pin_1*%
%TO.N,Net-(J5-Pin_1)*%
X181356000Y-106172000D03*
D13*
%TO.P,J5,2,Pin_2*%
%TO.N,+24V*%
X183896000Y-106172000D03*
%TO.P,J5,3,Pin_3*%
%TO.N,Net-(J3-Pin_2)*%
X186436000Y-106172000D03*
%TD*%
D14*
%TO.P,LS1,1,+*%
%TO.N,Net-(J8-Pin_2)*%
X211010000Y-105000000D03*
%TO.P,LS1,2,-*%
%TO.N,Net-(LS1--)*%
X211010000Y-90000000D03*
%TD*%
D15*
%TO.P,H1,1,1*%
%TO.N,GND*%
X160000000Y-48000000D03*
D16*
X160000000Y-48000000D03*
%TD*%
D15*
%TO.P,H4,1,1*%
%TO.N,GND*%
X220000000Y-120000000D03*
D16*
X220000000Y-120000000D03*
%TD*%
D17*
%TO.P,J6,1,Pin_1*%
%TO.N,+24V*%
X163000000Y-72000000D03*
D18*
%TO.P,J6,2,Pin_2*%
%TO.N,Net-(D3-A)*%
X163000000Y-77000000D03*
%TD*%
D15*
%TO.P,H3,1,1*%
%TO.N,GND*%
X160000000Y-120000000D03*
D16*
X160000000Y-120000000D03*
%TD*%
D12*
%TO.P,J11,1,Pin_1*%
%TO.N,/MCU/GPIO_23*%
X219964000Y-55372000D03*
D13*
%TO.P,J11,2,Pin_2*%
%TO.N,/MCU/GPIO_25*%
X219964000Y-57912000D03*
%TO.P,J11,3,Pin_3*%
%TO.N,/MCU/GPIO_26*%
X219964000Y-60452000D03*
%TO.P,J11,4,Pin_4*%
%TO.N,GND*%
X219964000Y-62992000D03*
%TO.P,J11,5,Pin_5*%
%TO.N,/MCU/GPIO_27*%
X219964000Y-65532000D03*
%TO.P,J11,6,Pin_6*%
%TO.N,+3.3V*%
X219964000Y-68072000D03*
%TD*%
D12*
%TO.P,J7,1,Pin_1*%
%TO.N,+3.3V*%
X200431400Y-70561200D03*
D13*
%TO.P,J7,2,Pin_2*%
%TO.N,/MCU/GPIO_18*%
X202971400Y-70561200D03*
%TD*%
D12*
%TO.P,J2,1,Pin_1*%
%TO.N,/MCU/RTS*%
X180213000Y-83820000D03*
D13*
%TO.P,J2,2,Pin_2*%
%TO.N,/MCU/DTR*%
X182753000Y-83820000D03*
%TO.P,J2,3,Pin_3*%
%TO.N,/MCU/RXD*%
X185293000Y-83820000D03*
%TO.P,J2,4,Pin_4*%
%TO.N,/MCU/TXD*%
X187833000Y-83820000D03*
%TO.P,J2,5,Pin_5*%
%TO.N,GND*%
X190373000Y-83820000D03*
%TO.P,J2,6,Pin_6*%
%TO.N,+3.3V*%
X192913000Y-83820000D03*
%TD*%
D15*
%TO.P,H2,1,1*%
%TO.N,GND*%
X220000000Y-48000000D03*
D16*
X220000000Y-48000000D03*
%TD*%
D19*
%TO.P,U1,39,GND*%
%TO.N,GND*%
X187100000Y-51770000D03*
X187100000Y-53170000D03*
X187800000Y-51070000D03*
X187800000Y-52470000D03*
X187800000Y-53870000D03*
X188475000Y-51770000D03*
X188475000Y-53170000D03*
X189200000Y-51070000D03*
X189200000Y-52470000D03*
X189200000Y-53870000D03*
X189900000Y-51770000D03*
X189900000Y-53170000D03*
%TD*%
D20*
%TO.N,+3.3V*%
X178612800Y-72644000D03*
X214604600Y-75869800D03*
%TO.N,GND*%
X174218600Y-72898000D03*
X185216800Y-59893200D03*
X204724000Y-57454800D03*
X167513000Y-113919000D03*
X200990200Y-75844400D03*
X170053000Y-47879000D03*
X169672000Y-104902000D03*
X164973000Y-113919000D03*
X188087000Y-89916000D03*
X189458600Y-92481400D03*
X196850000Y-89204800D03*
X162433000Y-113919000D03*
X178587400Y-64109600D03*
X162179000Y-101981000D03*
X162814000Y-97180400D03*
X212877400Y-81559400D03*
X170230800Y-56337200D03*
%TO.N,/MCU/MCU_BOOT*%
X200736200Y-61645800D03*
X176987200Y-52171600D03*
%TO.N,/MCU/GPIO_19*%
X190802500Y-95224600D03*
X206552800Y-52451000D03*
%TO.N,+5V*%
X179171600Y-89611200D03*
X179197000Y-94335600D03*
X179197000Y-92049600D03*
X181965600Y-89611200D03*
%TO.N,/MCU/GPIO_32*%
X187233800Y-69507961D03*
X181543200Y-66802000D03*
%TO.N,Net-(IC1-COMP)*%
X170307000Y-98298000D03*
X163195000Y-94996000D03*
%TO.N,/MCU/GPIO_34*%
X196418200Y-58343800D03*
%TO.N,/MCU/GPIO_35*%
X193751200Y-59410600D03*
%TO.N,/MCU/GPIO_17*%
X181543200Y-68602003D03*
X196773800Y-56083200D03*
X184972199Y-69019784D03*
X191211200Y-64490600D03*
%TO.N,/MCU/GPIO_33*%
X196392800Y-60706000D03*
%TO.N,/MCU/GPIO_21*%
X195224400Y-53848000D03*
X210642200Y-79476600D03*
X207391000Y-79476600D03*
X196850000Y-76200000D03*
%TO.N,/MCU/GPIO_22*%
X197637400Y-80899000D03*
X195326000Y-48971200D03*
%TO.N,/MCU/GPIO_25*%
X179374800Y-55676800D03*
%TO.N,/MCU/GPIO_26*%
X178206400Y-57150000D03*
%TO.N,/MCU/GPIO_27*%
X179374800Y-58521600D03*
%TO.N,/MCU/MTMS*%
X183159400Y-59969400D03*
%TO.N,/MCU/RTS*%
X165684200Y-47193200D03*
%TO.N,/MCU/RXD*%
X194005200Y-52451000D03*
%TO.N,/MCU/TXD*%
X194106800Y-50368200D03*
%TO.N,/MCU/DTR*%
X172847000Y-56083200D03*
%TO.N,Net-(Q1-B)*%
X165608000Y-49149000D03*
X169926000Y-53594000D03*
%TO.N,Net-(Q2-B)*%
X169773600Y-51003200D03*
X175463200Y-48971200D03*
%TO.N,/MCU/GPIO_18*%
X205282800Y-63169800D03*
X200812400Y-54711600D03*
%TO.N,/MCU/GPIO_4*%
X203631800Y-59994800D03*
%TO.N,/MCU/GPIO_2*%
X202717400Y-61645800D03*
%TD*%
D21*
%TO.N,+3.3V*%
X178612800Y-79095600D02*
X179527200Y-80010000D01*
X178612800Y-72644000D02*
X178612800Y-79095600D01*
X179527200Y-80010000D02*
X182880000Y-80010000D01*
D22*
%TO.N,/MCU/MCU_BOOT*%
X176276000Y-57759600D02*
X176276000Y-52882800D01*
X202539600Y-55219600D02*
X202539600Y-49809400D01*
X202539600Y-49809400D02*
X200431400Y-47701200D01*
X200736200Y-57023000D02*
X202539600Y-55219600D01*
X188137800Y-47701200D02*
X183235600Y-52603400D01*
X176276000Y-52882800D02*
X176987200Y-52171600D01*
X181076600Y-59918600D02*
X178435000Y-59918600D01*
X200431400Y-47701200D02*
X188137800Y-47701200D01*
X200736200Y-61645800D02*
X200736200Y-57023000D01*
X183235600Y-52603400D02*
X183235600Y-57759600D01*
X178435000Y-59918600D02*
X176276000Y-57759600D01*
X183235600Y-57759600D02*
X181076600Y-59918600D01*
%TO.N,/MCU/GPIO_19*%
X200380600Y-87579200D02*
X196062600Y-87579200D01*
X216408000Y-64287400D02*
X216408000Y-77139800D01*
X213741000Y-79806800D02*
X212344000Y-79806800D01*
X207492600Y-51511200D02*
X213563200Y-51511200D01*
X211175600Y-80975200D02*
X206984600Y-80975200D01*
X213563200Y-51511200D02*
X214934800Y-52882800D01*
X212344000Y-79806800D02*
X211175600Y-80975200D01*
X206984600Y-80975200D02*
X200380600Y-87579200D01*
X206552800Y-52451000D02*
X207492600Y-51511200D01*
X214934800Y-62814200D02*
X216408000Y-64287400D01*
X190802500Y-95400100D02*
X190804800Y-95402400D01*
X190802500Y-92839300D02*
X190802500Y-95400100D01*
X196062600Y-87579200D02*
X190802500Y-92839300D01*
X216408000Y-77139800D02*
X213741000Y-79806800D01*
X214934800Y-52882800D02*
X214934800Y-62814200D01*
%TO.N,/MCU/GPIO_32*%
X184527839Y-66802000D02*
X187233800Y-69507961D01*
X181543200Y-66802000D02*
X184527839Y-66802000D01*
%TO.N,Net-(IC1-COMP)*%
X163195000Y-94996000D02*
X167005000Y-94996000D01*
X167005000Y-94996000D02*
X170307000Y-98298000D01*
%TO.N,/MCU/GPIO_34*%
X199821800Y-66090800D02*
X207695800Y-66090800D01*
X196418200Y-58343800D02*
X195072000Y-59690000D01*
X195072000Y-61341000D02*
X199821800Y-66090800D01*
X207695800Y-66090800D02*
X209296000Y-67691000D01*
X195072000Y-59690000D02*
X195072000Y-61341000D01*
%TO.N,/MCU/GPIO_35*%
X206044800Y-66979800D02*
X209296000Y-70231000D01*
X193751200Y-61341000D02*
X199390000Y-66979800D01*
X193751200Y-59410600D02*
X193751200Y-61341000D01*
X199390000Y-66979800D02*
X206044800Y-66979800D01*
%TO.N,/MCU/GPIO_17*%
X192127800Y-59129000D02*
X195173600Y-56083200D01*
X184972199Y-69019784D02*
X184938815Y-68986400D01*
X191211200Y-64490600D02*
X192127800Y-63574000D01*
X184938815Y-68986400D02*
X181927597Y-68986400D01*
X195173600Y-56083200D02*
X196773800Y-56083200D01*
X181927597Y-68986400D02*
X181543200Y-68602003D01*
X192127800Y-63574000D02*
X192127800Y-59129000D01*
%TO.N,/MCU/GPIO_33*%
X196392800Y-60706000D02*
X196392800Y-61366400D01*
X200177400Y-65151000D02*
X209296000Y-65151000D01*
X196392800Y-61366400D02*
X200177400Y-65151000D01*
%TO.N,/MCU/GPIO_21*%
X188950600Y-66305880D02*
X196850000Y-74205280D01*
X189585600Y-57480200D02*
X188950600Y-58115200D01*
X207391000Y-79476600D02*
X210642200Y-79476600D01*
X194741800Y-53848000D02*
X195224400Y-53848000D01*
X196850000Y-74205280D02*
X196850000Y-76200000D01*
X191109600Y-57480200D02*
X194741800Y-53848000D01*
X191109600Y-57480200D02*
X189585600Y-57480200D01*
X188950600Y-58115200D02*
X188950600Y-66305880D01*
%TO.N,/MCU/GPIO_22*%
X194767200Y-55194200D02*
X195653039Y-55194200D01*
X191541400Y-58420000D02*
X194767200Y-55194200D01*
X195653039Y-55194200D02*
X197231000Y-53616239D01*
X189788800Y-65582800D02*
X189788800Y-58851800D01*
X189788800Y-58851800D02*
X190220600Y-58420000D01*
X198120000Y-73914000D02*
X189788800Y-65582800D01*
X197231000Y-53616239D02*
X197231000Y-50876200D01*
X190220600Y-58420000D02*
X191541400Y-58420000D01*
X197637400Y-77825600D02*
X198120000Y-77343000D01*
X197231000Y-50876200D02*
X195326000Y-48971200D01*
X198120000Y-77343000D02*
X198120000Y-73914000D01*
X197637400Y-80899000D02*
X197637400Y-77825600D01*
%TO.N,/MCU/GPIO_25*%
X219964000Y-57912000D02*
X218440000Y-57912000D01*
X186842400Y-44856400D02*
X179374800Y-52324000D01*
X217805000Y-51892200D02*
X215112600Y-49199800D01*
X179374800Y-52324000D02*
X179374800Y-55676800D01*
X202946000Y-44856400D02*
X186842400Y-44856400D01*
X207289400Y-49199800D02*
X202946000Y-44856400D01*
X215112600Y-49199800D02*
X207289400Y-49199800D01*
X218440000Y-57912000D02*
X217805000Y-57277000D01*
X217805000Y-57277000D02*
X217805000Y-51892200D01*
%TO.N,/MCU/GPIO_26*%
X180746400Y-56642000D02*
X180238400Y-57150000D01*
X216839800Y-60020200D02*
X216839800Y-52120800D01*
X217271600Y-60452000D02*
X216839800Y-60020200D01*
X180746400Y-52247800D02*
X180746400Y-56642000D01*
X214680800Y-49961800D02*
X206781400Y-49961800D01*
X180238400Y-57150000D02*
X178206400Y-57150000D01*
X219964000Y-60452000D02*
X217271600Y-60452000D01*
X202539600Y-45720000D02*
X187274200Y-45720000D01*
X187274200Y-45720000D02*
X180746400Y-52247800D01*
X206781400Y-49961800D02*
X202539600Y-45720000D01*
X216839800Y-52120800D02*
X214680800Y-49961800D01*
%TO.N,/MCU/GPIO_27*%
X181864000Y-52552602D02*
X181864000Y-57658000D01*
X181864000Y-57658000D02*
X181000400Y-58521600D01*
X202260200Y-46609000D02*
X187807602Y-46609000D01*
X187807602Y-46609000D02*
X181864000Y-52552602D01*
X206375000Y-50723800D02*
X202260200Y-46609000D01*
X214198200Y-50723800D02*
X206375000Y-50723800D01*
X219964000Y-65532000D02*
X215823800Y-61391800D01*
X181000400Y-58521600D02*
X179374800Y-58521600D01*
X215823800Y-52349400D02*
X214198200Y-50723800D01*
X215823800Y-61391800D02*
X215823800Y-52349400D01*
%TO.N,/MCU/MTMS*%
X183159400Y-59969400D02*
X180289200Y-62839600D01*
X180289200Y-72999600D02*
X182270400Y-74980800D01*
X180289200Y-62839600D02*
X180289200Y-72999600D01*
X187960000Y-75971400D02*
X187960000Y-77470000D01*
X182270400Y-74980800D02*
X186969400Y-74980800D01*
X186969400Y-74980800D02*
X187960000Y-75971400D01*
%TO.N,/MCU/RTS*%
X164160200Y-47523400D02*
X164490400Y-47193200D01*
X175717200Y-60909200D02*
X172542200Y-57734200D01*
X172542200Y-57734200D02*
X167970200Y-57734200D01*
X180213000Y-83820000D02*
X178460400Y-83820000D01*
X178460400Y-83820000D02*
X175717200Y-81076800D01*
X164490400Y-47193200D02*
X165684200Y-47193200D01*
X175717200Y-81076800D02*
X175717200Y-60909200D01*
X167970200Y-57734200D02*
X164160200Y-53924200D01*
X164160200Y-53924200D02*
X164160200Y-47523400D01*
%TO.N,/MCU/RXD*%
X188163200Y-57632600D02*
X188163200Y-66739120D01*
X189280800Y-56515000D02*
X188163200Y-57632600D01*
X188163200Y-66739120D02*
X195552400Y-74128320D01*
X194109000Y-86942000D02*
X186891000Y-86942000D01*
X195552400Y-85498600D02*
X194109000Y-86942000D01*
X190677800Y-56515000D02*
X189280800Y-56515000D01*
X194005200Y-52451000D02*
X194005200Y-53187600D01*
X185293000Y-85344000D02*
X185293000Y-83820000D01*
X186891000Y-86942000D02*
X185293000Y-85344000D01*
X195552400Y-74128320D02*
X195552400Y-85498600D01*
X194005200Y-53187600D02*
X190677800Y-56515000D01*
%TO.N,/MCU/TXD*%
X188899800Y-86233000D02*
X187833000Y-85166200D01*
X187401200Y-56642000D02*
X187401200Y-67462400D01*
X194843400Y-85191600D02*
X193802000Y-86233000D01*
X194106800Y-50368200D02*
X192354200Y-52120800D01*
X187401200Y-67462400D02*
X194843400Y-74904600D01*
X194843400Y-74904600D02*
X194843400Y-85191600D01*
X192354200Y-52120800D02*
X192354200Y-53543200D01*
X188468000Y-55575200D02*
X187401200Y-56642000D01*
X187833000Y-85166200D02*
X187833000Y-83820000D01*
X193802000Y-86233000D02*
X188899800Y-86233000D01*
X190322200Y-55575200D02*
X188468000Y-55575200D01*
X192354200Y-53543200D02*
X190322200Y-55575200D01*
%TO.N,/MCU/DTR*%
X176707800Y-80568800D02*
X176707800Y-59944000D01*
X178079400Y-81940400D02*
X176707800Y-80568800D01*
X176707800Y-59944000D02*
X172847000Y-56083200D01*
X182753000Y-83820000D02*
X180873400Y-81940400D01*
X180873400Y-81940400D02*
X178079400Y-81940400D01*
%TO.N,Net-(Q1-B)*%
X166903400Y-49149000D02*
X165608000Y-49149000D01*
X167741600Y-49987200D02*
X166903400Y-49149000D01*
X169672000Y-53594000D02*
X167741600Y-51663600D01*
X169926000Y-53594000D02*
X169672000Y-53594000D01*
X167741600Y-51663600D02*
X167741600Y-49987200D01*
%TO.N,Net-(Q2-B)*%
X169773600Y-51003200D02*
X171805600Y-48971200D01*
X171805600Y-48971200D02*
X175463200Y-48971200D01*
%TO.N,/MCU/GPIO_18*%
X199974200Y-63169800D02*
X205282800Y-63169800D01*
X198272400Y-61468000D02*
X199974200Y-63169800D01*
X199110600Y-54711600D02*
X198272400Y-55549800D01*
X198272400Y-55549800D02*
X198272400Y-61468000D01*
X200812400Y-54711600D02*
X199110600Y-54711600D01*
D23*
%TO.N,Net-(J8-Pin_2)*%
X194564000Y-108585000D02*
X210566000Y-108585000D01*
X210566000Y-108585000D02*
X211010000Y-108141000D01*
X193675000Y-107696000D02*
X194564000Y-108585000D01*
X211010000Y-108141000D02*
X211010000Y-105000000D01*
X193675000Y-106172000D02*
X193675000Y-107696000D01*
D22*
%TO.N,/MCU/GPIO_4*%
X203631800Y-59994800D02*
X204089000Y-59994800D01*
X206552800Y-57531000D02*
X209296000Y-57531000D01*
X204089000Y-59994800D02*
X206552800Y-57531000D01*
%TO.N,/MCU/GPIO_2*%
X202184000Y-57226200D02*
X204419200Y-54991000D01*
X204419200Y-54991000D02*
X209296000Y-54991000D01*
X202717400Y-61645800D02*
X202184000Y-61112400D01*
X202184000Y-61112400D02*
X202184000Y-57226200D01*
%TD*%
%TA.AperFunction,Conductor*%
%TO.N,GND*%
G36*
X186359250Y-44484151D02*
G01*
X186405005Y-44536955D01*
X186414949Y-44606113D01*
X186385924Y-44669669D01*
X186379892Y-44676147D01*
X179011111Y-52044927D01*
X179011107Y-52044933D01*
X178951272Y-52148570D01*
X178951271Y-52148570D01*
X178948434Y-52159163D01*
X178948434Y-52159165D01*
X178921056Y-52261341D01*
X178920299Y-52264165D01*
X178920299Y-52393825D01*
X178920300Y-52393838D01*
X178920300Y-54710916D01*
X178900615Y-54777955D01*
X178865191Y-54814018D01*
X178737018Y-54899660D01*
X178737014Y-54899663D01*
X178597663Y-55039014D01*
X178597660Y-55039018D01*
X178488171Y-55202879D01*
X178488164Y-55202892D01*
X178412750Y-55384960D01*
X178412747Y-55384970D01*
X178374300Y-55578256D01*
X178374300Y-55578259D01*
X178374300Y-55775341D01*
X178374300Y-55775343D01*
X178374299Y-55775343D01*
X178412747Y-55968629D01*
X178412750Y-55968640D01*
X178416647Y-55978046D01*
X178424117Y-56047515D01*
X178392843Y-56109995D01*
X178332755Y-56145648D01*
X178302087Y-56149500D01*
X178107857Y-56149500D01*
X177914570Y-56187947D01*
X177914560Y-56187950D01*
X177732492Y-56263364D01*
X177732479Y-56263371D01*
X177568618Y-56372860D01*
X177568614Y-56372863D01*
X177429263Y-56512214D01*
X177429260Y-56512218D01*
X177319771Y-56676079D01*
X177319764Y-56676092D01*
X177244350Y-56858160D01*
X177244347Y-56858170D01*
X177205900Y-57051456D01*
X177205900Y-57051459D01*
X177205900Y-57248541D01*
X177205900Y-57248543D01*
X177205899Y-57248543D01*
X177244347Y-57441829D01*
X177244350Y-57441839D01*
X177319764Y-57623907D01*
X177319771Y-57623920D01*
X177429260Y-57787781D01*
X177429263Y-57787785D01*
X177568614Y-57927136D01*
X177568618Y-57927139D01*
X177732479Y-58036628D01*
X177732492Y-58036635D01*
X177880379Y-58097891D01*
X177914565Y-58112051D01*
X177914569Y-58112051D01*
X177914570Y-58112052D01*
X178107856Y-58150500D01*
X178277421Y-58150500D01*
X178344460Y-58170185D01*
X178390215Y-58222989D01*
X178400159Y-58292147D01*
X178399038Y-58298692D01*
X178374300Y-58423056D01*
X178374300Y-58423059D01*
X178374300Y-58620141D01*
X178374300Y-58620143D01*
X178374299Y-58620143D01*
X178412747Y-58813429D01*
X178412750Y-58813439D01*
X178485422Y-58988887D01*
X178492891Y-59058356D01*
X178461615Y-59120835D01*
X178401526Y-59156487D01*
X178331701Y-59153993D01*
X178283180Y-59124020D01*
X176766819Y-57607659D01*
X176733334Y-57546336D01*
X176730500Y-57519978D01*
X176730500Y-53291734D01*
X176750185Y-53224695D01*
X176802989Y-53178940D01*
X176872147Y-53168996D01*
X176878677Y-53170114D01*
X176888659Y-53172100D01*
X177085743Y-53172100D01*
X177243904Y-53140639D01*
X177279035Y-53133651D01*
X177461114Y-53058232D01*
X177624982Y-52948739D01*
X177764339Y-52809382D01*
X177873832Y-52645514D01*
X177949251Y-52463435D01*
X177971326Y-52352456D01*
X177987700Y-52270143D01*
X177987700Y-52073056D01*
X177949252Y-51879770D01*
X177949251Y-51879769D01*
X177949251Y-51879765D01*
X177933495Y-51841727D01*
X177873835Y-51697692D01*
X177873828Y-51697679D01*
X177764339Y-51533818D01*
X177764336Y-51533814D01*
X177624985Y-51394463D01*
X177624981Y-51394460D01*
X177461120Y-51284971D01*
X177461107Y-51284964D01*
X177279039Y-51209550D01*
X177279029Y-51209547D01*
X177085743Y-51171100D01*
X177085741Y-51171100D01*
X176888659Y-51171100D01*
X176888657Y-51171100D01*
X176695370Y-51209547D01*
X176695360Y-51209550D01*
X176513292Y-51284964D01*
X176513279Y-51284971D01*
X176349418Y-51394460D01*
X176349414Y-51394463D01*
X176210063Y-51533814D01*
X176210060Y-51533818D01*
X176100571Y-51697679D01*
X176100564Y-51697692D01*
X176025150Y-51879760D01*
X176025147Y-51879770D01*
X175986700Y-52073056D01*
X175986700Y-52073059D01*
X175986700Y-52270141D01*
X175986700Y-52270143D01*
X175986699Y-52270143D01*
X176016773Y-52421328D01*
X176010546Y-52490920D01*
X175982838Y-52533201D01*
X175912306Y-52603733D01*
X175852474Y-52707365D01*
X175852472Y-52707370D01*
X175846389Y-52730068D01*
X175846390Y-52730069D01*
X175821499Y-52822964D01*
X175821499Y-52952625D01*
X175821500Y-52952638D01*
X175821500Y-57692151D01*
X175821499Y-57692169D01*
X175821499Y-57699764D01*
X175821499Y-57819436D01*
X175841664Y-57894691D01*
X175841663Y-57894691D01*
X175852471Y-57935026D01*
X175852472Y-57935030D01*
X175852473Y-57935031D01*
X175912309Y-58038670D01*
X175912311Y-58038672D01*
X176003995Y-58130356D01*
X176004001Y-58130361D01*
X178066968Y-60193328D01*
X178066978Y-60193339D01*
X178071308Y-60197669D01*
X178071309Y-60197670D01*
X178155930Y-60282291D01*
X178259569Y-60342127D01*
X178269179Y-60344702D01*
X178283482Y-60348535D01*
X178283483Y-60348535D01*
X178302857Y-60353726D01*
X178375164Y-60373101D01*
X178375166Y-60373101D01*
X178502432Y-60373101D01*
X178502448Y-60373100D01*
X181009152Y-60373100D01*
X181009168Y-60373101D01*
X181016764Y-60373101D01*
X181136434Y-60373101D01*
X181136436Y-60373101D01*
X181212122Y-60352820D01*
X181228117Y-60348535D01*
X181234942Y-60346706D01*
X181252031Y-60342127D01*
X181355670Y-60282291D01*
X181440291Y-60197670D01*
X181440291Y-60197668D01*
X181450495Y-60187465D01*
X181450499Y-60187460D01*
X181967141Y-59670817D01*
X182028462Y-59637334D01*
X182098154Y-59642318D01*
X182154087Y-59684190D01*
X182178504Y-59749654D01*
X182176437Y-59782691D01*
X182158900Y-59870854D01*
X182158900Y-59870859D01*
X182158900Y-60067941D01*
X182158900Y-60067943D01*
X182158899Y-60067943D01*
X182188973Y-60219128D01*
X182182746Y-60288720D01*
X182155037Y-60331001D01*
X180010132Y-62475907D01*
X179925511Y-62560527D01*
X179925507Y-62560533D01*
X179865672Y-62664168D01*
X179865673Y-62664168D01*
X179865673Y-62664169D01*
X179865673Y-62664170D01*
X179851973Y-62715300D01*
X179834699Y-62779765D01*
X179834699Y-62909425D01*
X179834700Y-62909438D01*
X179834700Y-71901755D01*
X179815015Y-71968794D01*
X179762211Y-72014549D01*
X179693053Y-72024493D01*
X179629497Y-71995468D01*
X179610382Y-71974641D01*
X179557427Y-71901755D01*
X179528490Y-71861927D01*
X179394873Y-71728310D01*
X179241999Y-71617240D01*
X179217280Y-71604645D01*
X179073636Y-71531454D01*
X178893918Y-71473059D01*
X178707286Y-71443500D01*
X178707281Y-71443500D01*
X178518319Y-71443500D01*
X178518314Y-71443500D01*
X178331681Y-71473059D01*
X178151963Y-71531454D01*
X177983600Y-71617240D01*
X177930628Y-71655727D01*
X177830727Y-71728310D01*
X177830725Y-71728312D01*
X177830724Y-71728312D01*
X177697112Y-71861924D01*
X177697112Y-71861925D01*
X177697110Y-71861927D01*
X177668173Y-71901755D01*
X177586040Y-72014800D01*
X177500254Y-72183163D01*
X177441859Y-72362881D01*
X177412300Y-72549513D01*
X177412300Y-79190086D01*
X177441859Y-79376718D01*
X177500254Y-79556436D01*
X177574929Y-79702993D01*
X177586040Y-79724799D01*
X177697110Y-79877674D01*
X178611510Y-80792073D01*
X178745127Y-80925690D01*
X178898001Y-81036760D01*
X178977547Y-81077290D01*
X179066363Y-81122545D01*
X179066365Y-81122545D01*
X179066368Y-81122547D01*
X179162697Y-81153846D01*
X179246081Y-81180940D01*
X179432714Y-81210500D01*
X179432719Y-81210500D01*
X180770226Y-81210500D01*
X180778965Y-81213066D01*
X180787981Y-81211778D01*
X180811963Y-81222755D01*
X180837265Y-81230185D01*
X180843227Y-81237066D01*
X180851511Y-81240858D01*
X180865753Y-81263062D01*
X180883020Y-81282989D01*
X180885314Y-81293558D01*
X180889234Y-81299669D01*
X180894226Y-81334609D01*
X180894202Y-81362009D01*
X180874459Y-81429031D01*
X180821615Y-81474739D01*
X180770202Y-81485900D01*
X178319022Y-81485900D01*
X178251983Y-81466215D01*
X178231341Y-81449581D01*
X177198619Y-80416859D01*
X177165134Y-80355536D01*
X177162300Y-80329178D01*
X177162300Y-60013838D01*
X177162301Y-60013825D01*
X177162301Y-59884165D01*
X177158734Y-59870854D01*
X177137824Y-59792816D01*
X177133413Y-59776354D01*
X177131326Y-59768567D01*
X177110638Y-59732735D01*
X177071491Y-59664930D01*
X176986870Y-59580309D01*
X176986869Y-59580308D01*
X176982539Y-59575978D01*
X176982528Y-59575968D01*
X173851362Y-56444802D01*
X173817877Y-56383479D01*
X173817426Y-56332929D01*
X173818280Y-56328640D01*
X173844718Y-56195729D01*
X173847500Y-56181743D01*
X173847500Y-55984656D01*
X173809052Y-55791370D01*
X173809051Y-55791369D01*
X173809051Y-55791365D01*
X173770606Y-55698550D01*
X173733635Y-55609292D01*
X173733628Y-55609279D01*
X173624139Y-55445418D01*
X173624136Y-55445414D01*
X173484785Y-55306063D01*
X173484781Y-55306060D01*
X173320920Y-55196571D01*
X173320907Y-55196564D01*
X173138839Y-55121150D01*
X173138829Y-55121147D01*
X172945543Y-55082700D01*
X172945541Y-55082700D01*
X172748459Y-55082700D01*
X172748457Y-55082700D01*
X172555170Y-55121147D01*
X172555160Y-55121150D01*
X172373092Y-55196564D01*
X172373079Y-55196571D01*
X172209218Y-55306060D01*
X172209214Y-55306063D01*
X172069863Y-55445414D01*
X172069860Y-55445418D01*
X171960371Y-55609279D01*
X171960364Y-55609292D01*
X171884950Y-55791360D01*
X171884947Y-55791370D01*
X171846500Y-55984656D01*
X171846500Y-55984659D01*
X171846500Y-56181741D01*
X171846500Y-56181743D01*
X171846499Y-56181743D01*
X171884947Y-56375029D01*
X171884950Y-56375039D01*
X171960364Y-56557107D01*
X171960371Y-56557120D01*
X172069860Y-56720981D01*
X172069863Y-56720985D01*
X172209214Y-56860336D01*
X172209218Y-56860339D01*
X172373079Y-56969828D01*
X172373092Y-56969835D01*
X172545235Y-57041138D01*
X172554007Y-57048207D01*
X172564818Y-57051381D01*
X172580723Y-57069735D01*
X172599639Y-57084978D01*
X172603197Y-57095669D01*
X172610575Y-57104183D01*
X172614032Y-57128225D01*
X172621704Y-57151273D01*
X172618917Y-57162188D01*
X172620522Y-57173341D01*
X172610431Y-57195437D01*
X172604425Y-57218972D01*
X172596178Y-57226649D01*
X172591499Y-57236898D01*
X172571065Y-57250030D01*
X172553288Y-57266583D01*
X172540675Y-57269563D01*
X172532723Y-57274675D01*
X172497795Y-57279697D01*
X172497788Y-57279699D01*
X172482364Y-57279699D01*
X172482361Y-57279699D01*
X172474757Y-57279700D01*
X172474756Y-57279699D01*
X172474752Y-57279700D01*
X168209822Y-57279700D01*
X168142783Y-57260015D01*
X168122141Y-57243381D01*
X164651019Y-53772259D01*
X164617534Y-53710936D01*
X164614700Y-53684578D01*
X164614700Y-49869946D01*
X164634385Y-49802907D01*
X164687189Y-49757152D01*
X164756347Y-49747208D01*
X164819903Y-49776233D01*
X164826259Y-49782768D01*
X164826553Y-49782475D01*
X164970214Y-49926136D01*
X164970218Y-49926139D01*
X165134079Y-50035628D01*
X165134092Y-50035635D01*
X165316160Y-50111049D01*
X165316165Y-50111051D01*
X165316169Y-50111051D01*
X165316170Y-50111052D01*
X165509456Y-50149500D01*
X165509459Y-50149500D01*
X165706543Y-50149500D01*
X165872099Y-50116568D01*
X165899835Y-50111051D01*
X166081914Y-50035632D01*
X166245782Y-49926139D01*
X166385139Y-49786782D01*
X166470781Y-49658608D01*
X166476871Y-49653518D01*
X166480170Y-49646297D01*
X166503298Y-49631433D01*
X166524393Y-49613804D01*
X166533767Y-49611852D01*
X166538948Y-49608523D01*
X166573883Y-49603500D01*
X166663778Y-49603500D01*
X166730817Y-49623185D01*
X166751459Y-49639819D01*
X167250781Y-50139141D01*
X167284266Y-50200464D01*
X167287100Y-50226822D01*
X167287100Y-51596151D01*
X167287099Y-51596169D01*
X167287099Y-51603764D01*
X167287099Y-51723436D01*
X167309734Y-51807909D01*
X167309733Y-51807909D01*
X167318071Y-51839026D01*
X167318074Y-51839033D01*
X167319631Y-51841730D01*
X167377909Y-51942670D01*
X167377911Y-51942672D01*
X167469595Y-52034356D01*
X167469601Y-52034361D01*
X168889181Y-53453941D01*
X168922666Y-53515264D01*
X168925500Y-53541622D01*
X168925500Y-53692541D01*
X168925500Y-53692543D01*
X168925499Y-53692543D01*
X168963947Y-53885829D01*
X168963950Y-53885839D01*
X169039364Y-54067907D01*
X169039371Y-54067920D01*
X169148860Y-54231781D01*
X169148863Y-54231785D01*
X169288214Y-54371136D01*
X169288218Y-54371139D01*
X169452079Y-54480628D01*
X169452092Y-54480635D01*
X169586964Y-54536500D01*
X169634165Y-54556051D01*
X169634169Y-54556051D01*
X169634170Y-54556052D01*
X169827456Y-54594500D01*
X169827459Y-54594500D01*
X170024543Y-54594500D01*
X170160413Y-54567473D01*
X170217835Y-54556051D01*
X170399914Y-54480632D01*
X170563782Y-54371139D01*
X170703139Y-54231782D01*
X170812632Y-54067914D01*
X170816546Y-54058466D01*
X170844849Y-53990134D01*
X170888051Y-53885835D01*
X170906783Y-53791665D01*
X170926500Y-53692543D01*
X170926500Y-53495456D01*
X170888052Y-53302170D01*
X170888051Y-53302169D01*
X170888051Y-53302165D01*
X170857389Y-53228139D01*
X170812635Y-53120092D01*
X170812628Y-53120079D01*
X170703139Y-52956218D01*
X170703136Y-52956214D01*
X170563785Y-52816863D01*
X170563781Y-52816860D01*
X170399920Y-52707371D01*
X170399907Y-52707364D01*
X170217839Y-52631950D01*
X170217829Y-52631947D01*
X170024543Y-52593500D01*
X170024541Y-52593500D01*
X169827459Y-52593500D01*
X169827457Y-52593500D01*
X169634170Y-52631947D01*
X169634160Y-52631950D01*
X169511691Y-52682678D01*
X169442221Y-52690147D01*
X169379742Y-52658871D01*
X169376558Y-52655798D01*
X168232419Y-51511659D01*
X168198934Y-51450336D01*
X168196100Y-51423978D01*
X168196100Y-51101743D01*
X168773099Y-51101743D01*
X168811547Y-51295029D01*
X168811550Y-51295039D01*
X168886964Y-51477107D01*
X168886971Y-51477120D01*
X168996460Y-51640981D01*
X168996463Y-51640985D01*
X169135814Y-51780336D01*
X169135818Y-51780339D01*
X169299679Y-51889828D01*
X169299692Y-51889835D01*
X169474008Y-51962038D01*
X169481765Y-51965251D01*
X169481769Y-51965251D01*
X169481770Y-51965252D01*
X169675056Y-52003700D01*
X169675059Y-52003700D01*
X169872143Y-52003700D01*
X170005972Y-51977079D01*
X170065435Y-51965251D01*
X170247514Y-51889832D01*
X170411382Y-51780339D01*
X170550739Y-51640982D01*
X170660232Y-51477114D01*
X170735651Y-51295035D01*
X170758871Y-51178300D01*
X170774100Y-51101743D01*
X170774100Y-50904656D01*
X170744026Y-50753469D01*
X170750253Y-50683877D01*
X170777959Y-50641599D01*
X171957542Y-49462019D01*
X172018865Y-49428534D01*
X172045223Y-49425700D01*
X174497317Y-49425700D01*
X174564356Y-49445385D01*
X174600417Y-49480807D01*
X174658701Y-49568035D01*
X174686062Y-49608984D01*
X174825414Y-49748336D01*
X174825418Y-49748339D01*
X174989279Y-49857828D01*
X174989292Y-49857835D01*
X175154195Y-49926139D01*
X175171365Y-49933251D01*
X175171369Y-49933251D01*
X175171370Y-49933252D01*
X175364656Y-49971700D01*
X175364659Y-49971700D01*
X175561743Y-49971700D01*
X175691782Y-49945832D01*
X175755035Y-49933251D01*
X175937114Y-49857832D01*
X176100982Y-49748339D01*
X176240339Y-49608982D01*
X176349832Y-49445114D01*
X176351380Y-49441378D01*
X176416676Y-49283737D01*
X176425251Y-49263035D01*
X176437832Y-49199782D01*
X176463700Y-49069743D01*
X176463700Y-48872656D01*
X176425252Y-48679370D01*
X176425251Y-48679369D01*
X176425251Y-48679365D01*
X176408693Y-48639390D01*
X176349835Y-48497292D01*
X176349828Y-48497279D01*
X176240339Y-48333418D01*
X176240336Y-48333414D01*
X176100985Y-48194063D01*
X176100981Y-48194060D01*
X175937120Y-48084571D01*
X175937107Y-48084564D01*
X175755039Y-48009150D01*
X175755029Y-48009147D01*
X175561743Y-47970700D01*
X175561741Y-47970700D01*
X175364659Y-47970700D01*
X175364657Y-47970700D01*
X175171370Y-48009147D01*
X175171360Y-48009150D01*
X174989292Y-48084564D01*
X174989279Y-48084571D01*
X174825418Y-48194060D01*
X174825414Y-48194063D01*
X174686062Y-48333415D01*
X174641238Y-48400500D01*
X174600418Y-48461591D01*
X174546807Y-48506396D01*
X174497317Y-48516700D01*
X171873048Y-48516700D01*
X171873032Y-48516699D01*
X171865436Y-48516699D01*
X171745764Y-48516699D01*
X171654597Y-48541127D01*
X171645118Y-48543666D01*
X171630170Y-48547672D01*
X171630165Y-48547674D01*
X171526533Y-48607506D01*
X171526527Y-48607511D01*
X170135201Y-49998837D01*
X170073878Y-50032322D01*
X170023328Y-50032773D01*
X169872143Y-50002700D01*
X169872141Y-50002700D01*
X169675059Y-50002700D01*
X169675057Y-50002700D01*
X169481770Y-50041147D01*
X169481760Y-50041150D01*
X169299692Y-50116564D01*
X169299679Y-50116571D01*
X169135818Y-50226060D01*
X169135814Y-50226063D01*
X168996463Y-50365414D01*
X168996460Y-50365418D01*
X168886971Y-50529279D01*
X168886964Y-50529292D01*
X168811550Y-50711360D01*
X168811547Y-50711370D01*
X168773100Y-50904656D01*
X168773100Y-50904659D01*
X168773100Y-51101741D01*
X168773100Y-51101743D01*
X168773099Y-51101743D01*
X168196100Y-51101743D01*
X168196100Y-50057038D01*
X168196101Y-50057025D01*
X168196101Y-49927365D01*
X168195772Y-49926139D01*
X168165127Y-49811770D01*
X168165127Y-49811769D01*
X168165127Y-49811768D01*
X168133594Y-49757152D01*
X168105291Y-49708130D01*
X168020670Y-49623509D01*
X168020669Y-49623508D01*
X168016339Y-49619178D01*
X168016328Y-49619168D01*
X167274161Y-48877001D01*
X167274159Y-48876998D01*
X167182472Y-48785311D01*
X167182466Y-48785306D01*
X167078834Y-48725474D01*
X167078829Y-48725472D01*
X167054403Y-48718926D01*
X167054403Y-48718927D01*
X167008819Y-48706713D01*
X166963236Y-48694499D01*
X166843564Y-48694499D01*
X166835968Y-48694499D01*
X166835952Y-48694500D01*
X166573883Y-48694500D01*
X166506844Y-48674815D01*
X166470782Y-48639392D01*
X166385139Y-48511218D01*
X166385137Y-48511215D01*
X166245785Y-48371863D01*
X166245781Y-48371860D01*
X166135324Y-48298055D01*
X166090519Y-48244443D01*
X166081812Y-48175118D01*
X166111966Y-48112091D01*
X166152951Y-48083089D01*
X166152744Y-48082702D01*
X166155830Y-48081052D01*
X166156765Y-48080391D01*
X166157114Y-48080246D01*
X166158114Y-48079832D01*
X166321982Y-47970339D01*
X166461339Y-47830982D01*
X166570832Y-47667114D01*
X166578874Y-47647700D01*
X166646249Y-47485039D01*
X166646251Y-47485035D01*
X166673515Y-47347970D01*
X166684700Y-47291743D01*
X166684700Y-47094656D01*
X166646252Y-46901370D01*
X166646251Y-46901369D01*
X166646251Y-46901365D01*
X166618946Y-46835444D01*
X166570835Y-46719292D01*
X166570828Y-46719279D01*
X166461339Y-46555418D01*
X166461336Y-46555414D01*
X166321985Y-46416063D01*
X166321981Y-46416060D01*
X166158120Y-46306571D01*
X166158107Y-46306564D01*
X165976039Y-46231150D01*
X165976029Y-46231147D01*
X165782743Y-46192700D01*
X165782741Y-46192700D01*
X165585659Y-46192700D01*
X165585657Y-46192700D01*
X165392370Y-46231147D01*
X165392360Y-46231150D01*
X165210292Y-46306564D01*
X165210279Y-46306571D01*
X165046418Y-46416060D01*
X165046414Y-46416063D01*
X164907062Y-46555415D01*
X164857073Y-46630229D01*
X164821418Y-46683591D01*
X164767807Y-46728396D01*
X164718317Y-46738700D01*
X164430564Y-46738700D01*
X164314969Y-46769673D01*
X164314966Y-46769674D01*
X164211333Y-46829507D01*
X164211327Y-46829511D01*
X163796511Y-47244327D01*
X163796507Y-47244333D01*
X163736672Y-47347968D01*
X163736673Y-47347968D01*
X163736673Y-47347969D01*
X163736673Y-47347970D01*
X163713646Y-47433908D01*
X163705699Y-47463565D01*
X163705699Y-47593225D01*
X163705700Y-47593238D01*
X163705700Y-53864360D01*
X163705699Y-53864364D01*
X163705699Y-53984036D01*
X163722973Y-54048501D01*
X163725642Y-54058465D01*
X163725643Y-54058466D01*
X163736673Y-54099632D01*
X163736674Y-54099633D01*
X163796509Y-54203270D01*
X163796511Y-54203272D01*
X163888195Y-54294956D01*
X163888201Y-54294961D01*
X167602168Y-58008928D01*
X167602178Y-58008939D01*
X167606508Y-58013269D01*
X167606509Y-58013270D01*
X167691130Y-58097891D01*
X167794769Y-58157727D01*
X167819193Y-58164271D01*
X167819195Y-58164272D01*
X167819196Y-58164272D01*
X167841264Y-58170185D01*
X167910364Y-58188701D01*
X167910366Y-58188701D01*
X168037632Y-58188701D01*
X168037648Y-58188700D01*
X172302578Y-58188700D01*
X172369617Y-58208385D01*
X172390259Y-58225019D01*
X175226381Y-61061141D01*
X175259866Y-61122464D01*
X175262700Y-61148822D01*
X175262700Y-81009351D01*
X175262699Y-81009369D01*
X175262699Y-81136636D01*
X175275144Y-81183083D01*
X175275145Y-81183083D01*
X175275145Y-81183084D01*
X175276371Y-81187658D01*
X175293674Y-81252235D01*
X175353506Y-81355866D01*
X175353511Y-81355872D01*
X175445195Y-81447556D01*
X175445201Y-81447561D01*
X178096707Y-84099067D01*
X178096709Y-84099070D01*
X178181330Y-84183691D01*
X178241167Y-84218237D01*
X178284970Y-84243528D01*
X178400564Y-84274501D01*
X178400566Y-84274501D01*
X178527832Y-84274501D01*
X178527848Y-84274500D01*
X179038500Y-84274500D01*
X179105539Y-84294185D01*
X179151294Y-84346989D01*
X179162500Y-84398500D01*
X179162500Y-84689752D01*
X179174131Y-84748229D01*
X179174132Y-84748230D01*
X179218447Y-84814552D01*
X179284769Y-84858867D01*
X179284770Y-84858868D01*
X179343247Y-84870499D01*
X179343250Y-84870500D01*
X179343252Y-84870500D01*
X180767072Y-84870500D01*
X180834111Y-84890185D01*
X180879866Y-84942989D01*
X180891071Y-84994605D01*
X180888211Y-88314068D01*
X180888209Y-88316607D01*
X180868467Y-88383629D01*
X180815623Y-88429339D01*
X180764209Y-88440500D01*
X177926182Y-88440500D01*
X177882358Y-88445229D01*
X177830682Y-88456511D01*
X177820339Y-88459051D01*
X177739697Y-88502182D01*
X177739691Y-88502186D01*
X177686970Y-88548009D01*
X177686957Y-88548021D01*
X177669032Y-88565638D01*
X177669031Y-88565639D01*
X177624509Y-88645520D01*
X177624506Y-88645526D01*
X177604925Y-88712590D01*
X177596688Y-88770505D01*
X177619628Y-103810311D01*
X177600046Y-103877380D01*
X177547311Y-103923216D01*
X177495628Y-103934500D01*
X170598122Y-103934500D01*
X170552655Y-103939593D01*
X170505806Y-103950223D01*
X170499138Y-103951737D01*
X170499133Y-103951738D01*
X170499121Y-103951741D01*
X170487219Y-103954819D01*
X170487216Y-103954820D01*
X170407285Y-103999263D01*
X170355319Y-104045941D01*
X170355309Y-104045951D01*
X170337665Y-104063866D01*
X170294451Y-104144470D01*
X170275970Y-104211842D01*
X170275961Y-104211878D01*
X170270814Y-104236447D01*
X170270814Y-104236449D01*
X170278035Y-104327617D01*
X170278035Y-104327619D01*
X170278036Y-104327621D01*
X170298849Y-104394092D01*
X170298915Y-104394300D01*
X170324161Y-104447068D01*
X170369735Y-104515272D01*
X170381192Y-104536707D01*
X170381194Y-104536711D01*
X170431774Y-104658824D01*
X170438830Y-104682083D01*
X170464617Y-104811714D01*
X170467000Y-104835907D01*
X170467000Y-104968087D01*
X170464617Y-104992280D01*
X170464616Y-104992288D01*
X170445081Y-105090489D01*
X170445080Y-105090493D01*
X170444459Y-105093616D01*
X170438829Y-105121917D01*
X170431774Y-105145172D01*
X170399289Y-105223604D01*
X170399289Y-105223605D01*
X170385911Y-105255903D01*
X170381195Y-105267287D01*
X170369736Y-105288724D01*
X170296298Y-105398632D01*
X170280879Y-105417419D01*
X170280877Y-105417422D01*
X170187422Y-105510877D01*
X170168632Y-105526298D01*
X170058724Y-105599736D01*
X170037285Y-105611195D01*
X169915180Y-105661772D01*
X169891921Y-105668828D01*
X169859015Y-105675374D01*
X169859001Y-105675376D01*
X169773174Y-105692450D01*
X169762280Y-105694617D01*
X169738088Y-105697000D01*
X169605909Y-105697000D01*
X169581717Y-105694617D01*
X169452085Y-105668831D01*
X169428827Y-105661775D01*
X169306709Y-105611193D01*
X169285273Y-105599735D01*
X169175372Y-105526302D01*
X169156581Y-105510881D01*
X169063119Y-105417419D01*
X169047698Y-105398629D01*
X168974263Y-105288727D01*
X168962804Y-105267288D01*
X168958088Y-105255903D01*
X168912221Y-105145169D01*
X168905166Y-105121909D01*
X168899538Y-105093617D01*
X168879383Y-104992288D01*
X168877000Y-104968097D01*
X168877000Y-104835905D01*
X168879381Y-104811724D01*
X168905168Y-104682077D01*
X168912220Y-104658832D01*
X168962809Y-104536698D01*
X168974259Y-104515276D01*
X169019841Y-104447062D01*
X169040869Y-104406422D01*
X169060505Y-104355178D01*
X169064565Y-104343551D01*
X169072019Y-104252400D01*
X169062075Y-104183242D01*
X169056983Y-104158627D01*
X169013973Y-104077915D01*
X168968218Y-104025111D01*
X168968212Y-104025104D01*
X168950630Y-104007160D01*
X168950629Y-104007159D01*
X168950627Y-104007157D01*
X168950625Y-104007156D01*
X168950623Y-104007154D01*
X168870813Y-103962511D01*
X168870808Y-103962509D01*
X168803776Y-103942826D01*
X168803772Y-103942825D01*
X168803771Y-103942825D01*
X168745873Y-103934500D01*
X168745869Y-103934500D01*
X166485362Y-103934500D01*
X166418323Y-103914815D01*
X166372568Y-103862011D01*
X166361362Y-103810176D01*
X166364158Y-102740772D01*
X166382894Y-95575359D01*
X166382892Y-95575348D01*
X166382896Y-95574176D01*
X166402756Y-95507188D01*
X166455680Y-95461571D01*
X166506896Y-95450500D01*
X166765378Y-95450500D01*
X166832417Y-95470185D01*
X166853059Y-95486819D01*
X169302637Y-97936397D01*
X169336122Y-97997720D01*
X169336573Y-98048269D01*
X169306500Y-98199454D01*
X169306500Y-98199459D01*
X169306500Y-98396541D01*
X169306500Y-98396543D01*
X169306499Y-98396543D01*
X169344947Y-98589829D01*
X169344950Y-98589839D01*
X169420364Y-98771907D01*
X169420371Y-98771920D01*
X169529860Y-98935781D01*
X169529863Y-98935785D01*
X169669214Y-99075136D01*
X169669218Y-99075139D01*
X169833079Y-99184628D01*
X169833092Y-99184635D01*
X170015160Y-99260049D01*
X170015165Y-99260051D01*
X170015169Y-99260051D01*
X170015170Y-99260052D01*
X170208456Y-99298500D01*
X170208459Y-99298500D01*
X170405543Y-99298500D01*
X170535582Y-99272632D01*
X170598835Y-99260051D01*
X170780914Y-99184632D01*
X170944782Y-99075139D01*
X171084139Y-98935782D01*
X171193632Y-98771914D01*
X171269051Y-98589835D01*
X171307500Y-98396541D01*
X171307500Y-98199459D01*
X171307500Y-98199456D01*
X171269052Y-98006170D01*
X171269051Y-98006169D01*
X171269051Y-98006165D01*
X171247229Y-97953481D01*
X171193635Y-97824092D01*
X171193628Y-97824079D01*
X171084139Y-97660218D01*
X171084136Y-97660214D01*
X170944785Y-97520863D01*
X170944781Y-97520860D01*
X170780920Y-97411371D01*
X170780907Y-97411364D01*
X170598839Y-97335950D01*
X170598829Y-97335947D01*
X170405543Y-97297500D01*
X170405541Y-97297500D01*
X170208459Y-97297500D01*
X170208456Y-97297500D01*
X170057269Y-97327573D01*
X169987678Y-97321346D01*
X169945397Y-97293637D01*
X167375761Y-94724001D01*
X167375759Y-94723998D01*
X167284072Y-94632311D01*
X167284066Y-94632306D01*
X167180434Y-94572474D01*
X167180429Y-94572472D01*
X167156003Y-94565926D01*
X167156003Y-94565927D01*
X167110419Y-94553713D01*
X167064836Y-94541499D01*
X166945164Y-94541499D01*
X166937568Y-94541499D01*
X166937552Y-94541500D01*
X166509923Y-94541500D01*
X166442884Y-94521815D01*
X166397129Y-94469011D01*
X166385923Y-94417176D01*
X166395543Y-90738302D01*
X166428351Y-78191037D01*
X166448173Y-70609860D01*
X166447951Y-70607754D01*
X166443537Y-70565925D01*
X166443535Y-70565917D01*
X166443534Y-70565903D01*
X166432329Y-70514069D01*
X166429785Y-70503628D01*
X166429786Y-70503628D01*
X166387349Y-70423993D01*
X166386775Y-70422915D01*
X166341020Y-70370111D01*
X166341014Y-70370104D01*
X166323432Y-70352160D01*
X166323431Y-70352159D01*
X166323429Y-70352157D01*
X166323427Y-70352156D01*
X166323425Y-70352154D01*
X166243615Y-70307511D01*
X166243610Y-70307509D01*
X166176578Y-70287826D01*
X166176574Y-70287825D01*
X166176573Y-70287825D01*
X166118675Y-70279500D01*
X159254533Y-70279500D01*
X159254525Y-70279500D01*
X159219890Y-70283191D01*
X159211230Y-70284114D01*
X159211228Y-70284114D01*
X159160151Y-70295124D01*
X159150336Y-70297493D01*
X159069460Y-70340199D01*
X159016478Y-70385759D01*
X159016471Y-70385765D01*
X158998464Y-70403277D01*
X158998459Y-70403284D01*
X158953515Y-70482926D01*
X158953514Y-70482930D01*
X158933580Y-70549887D01*
X158933577Y-70549899D01*
X158925035Y-70607754D01*
X158925035Y-70607755D01*
X158916821Y-72784500D01*
X158916049Y-72989225D01*
X158901270Y-76905525D01*
X158901206Y-76922474D01*
X158825056Y-97102095D01*
X158806940Y-101902695D01*
X158806276Y-102078768D01*
X158796690Y-104618824D01*
X158796690Y-104618845D01*
X158796690Y-104618983D01*
X158796697Y-104619136D01*
X158796790Y-104622907D01*
X158796705Y-104623558D01*
X158797230Y-104675478D01*
X158798320Y-104684733D01*
X158798462Y-104690472D01*
X158798345Y-104690907D01*
X158798500Y-104693537D01*
X158798500Y-109096007D01*
X158803197Y-109139686D01*
X158814397Y-109191174D01*
X158816890Y-109201372D01*
X158816891Y-109201375D01*
X158859899Y-109282083D01*
X158859901Y-109282086D01*
X158905660Y-109334895D01*
X158923242Y-109352839D01*
X158923246Y-109352843D01*
X158923247Y-109352844D01*
X158923249Y-109352845D01*
X159003059Y-109397488D01*
X159003063Y-109397490D01*
X159070102Y-109417175D01*
X159128000Y-109425500D01*
X159128004Y-109425500D01*
X192026991Y-109425500D01*
X192027000Y-109425500D01*
X192070684Y-109420803D01*
X192099875Y-109414452D01*
X192122174Y-109409602D01*
X192122190Y-109409598D01*
X192122195Y-109409597D01*
X192132373Y-109407110D01*
X192213085Y-109364100D01*
X192265889Y-109318345D01*
X192283843Y-109300754D01*
X192328490Y-109220937D01*
X192348175Y-109153898D01*
X192356500Y-109096000D01*
X192356500Y-107146000D01*
X192351803Y-107102316D01*
X192347897Y-107084364D01*
X192340602Y-107050825D01*
X192340348Y-107049789D01*
X192338110Y-107040627D01*
X192295100Y-106959915D01*
X192249345Y-106907111D01*
X192249339Y-106907104D01*
X192225548Y-106882823D01*
X192227079Y-106881322D01*
X192192881Y-106834652D01*
X192185500Y-106792509D01*
X192185500Y-105546631D01*
X192205185Y-105479592D01*
X192228298Y-105452918D01*
X192237936Y-105444565D01*
X192265889Y-105420345D01*
X192283843Y-105402754D01*
X192328490Y-105322937D01*
X192348175Y-105255898D01*
X192356500Y-105198000D01*
X192356500Y-104292988D01*
X192356500Y-104292218D01*
X192376185Y-104225179D01*
X192428989Y-104179424D01*
X192480287Y-104168218D01*
X210228132Y-104138086D01*
X210295202Y-104157657D01*
X210341047Y-104210383D01*
X210351108Y-104279525D01*
X210322191Y-104343130D01*
X210316022Y-104349766D01*
X210271701Y-104394087D01*
X210271697Y-104394092D01*
X210167681Y-104549762D01*
X210167676Y-104549771D01*
X210096027Y-104722748D01*
X210096025Y-104722756D01*
X210059500Y-104906379D01*
X210059500Y-105093620D01*
X210096025Y-105277243D01*
X210096027Y-105277251D01*
X210167676Y-105450228D01*
X210167681Y-105450237D01*
X210232090Y-105546631D01*
X210271698Y-105605908D01*
X210273175Y-105607385D01*
X210273702Y-105608351D01*
X210275563Y-105610618D01*
X210275133Y-105610970D01*
X210306664Y-105668703D01*
X210309500Y-105695072D01*
X210309500Y-107760500D01*
X210289815Y-107827539D01*
X210237011Y-107873294D01*
X210185500Y-107884500D01*
X194905519Y-107884500D01*
X194838480Y-107864815D01*
X194817838Y-107848181D01*
X194411819Y-107442162D01*
X194378334Y-107380839D01*
X194375500Y-107354481D01*
X194375500Y-107008494D01*
X194395185Y-106941455D01*
X194411814Y-106920817D01*
X194490977Y-106841655D01*
X194605941Y-106669598D01*
X194685130Y-106478420D01*
X194725500Y-106275465D01*
X194725500Y-106068535D01*
X194725499Y-106068530D01*
X195164500Y-106068530D01*
X195164500Y-106275469D01*
X195204868Y-106478412D01*
X195204870Y-106478420D01*
X195284058Y-106669596D01*
X195399024Y-106841657D01*
X195545342Y-106987975D01*
X195545345Y-106987977D01*
X195717402Y-107102941D01*
X195908580Y-107182130D01*
X196111530Y-107222499D01*
X196111534Y-107222500D01*
X196111535Y-107222500D01*
X196318466Y-107222500D01*
X196318467Y-107222499D01*
X196521420Y-107182130D01*
X196712598Y-107102941D01*
X196884655Y-106987977D01*
X197030977Y-106841655D01*
X197145941Y-106669598D01*
X197225130Y-106478420D01*
X197265500Y-106275465D01*
X197265500Y-106068535D01*
X197225130Y-105865580D01*
X197145941Y-105674402D01*
X197030977Y-105502345D01*
X197030975Y-105502342D01*
X196884657Y-105356024D01*
X196783934Y-105288724D01*
X196712598Y-105241059D01*
X196608635Y-105197996D01*
X196521420Y-105161870D01*
X196521412Y-105161868D01*
X196318469Y-105121500D01*
X196318465Y-105121500D01*
X196111535Y-105121500D01*
X196111530Y-105121500D01*
X195908587Y-105161868D01*
X195908579Y-105161870D01*
X195717403Y-105241058D01*
X195545342Y-105356024D01*
X195399024Y-105502342D01*
X195284058Y-105674403D01*
X195204870Y-105865579D01*
X195204868Y-105865587D01*
X195164500Y-106068530D01*
X194725499Y-106068530D01*
X194685130Y-105865580D01*
X194605941Y-105674402D01*
X194490977Y-105502345D01*
X194490975Y-105502342D01*
X194344657Y-105356024D01*
X194243934Y-105288724D01*
X194172598Y-105241059D01*
X194068635Y-105197996D01*
X193981420Y-105161870D01*
X193981412Y-105161868D01*
X193778469Y-105121500D01*
X193778465Y-105121500D01*
X193571535Y-105121500D01*
X193571530Y-105121500D01*
X193368587Y-105161868D01*
X193368579Y-105161870D01*
X193177403Y-105241058D01*
X193005342Y-105356024D01*
X192859024Y-105502342D01*
X192744058Y-105674403D01*
X192664870Y-105865579D01*
X192664868Y-105865587D01*
X192624500Y-106068530D01*
X192624500Y-106275469D01*
X192664868Y-106478412D01*
X192664870Y-106478420D01*
X192744059Y-106669598D01*
X192859023Y-106841655D01*
X192938182Y-106920814D01*
X192971666Y-106982135D01*
X192974500Y-107008494D01*
X192974500Y-107627006D01*
X192974500Y-107764994D01*
X192974500Y-107764996D01*
X192974499Y-107764996D01*
X193001418Y-107900322D01*
X193001421Y-107900332D01*
X193054222Y-108027807D01*
X193130887Y-108142545D01*
X194117454Y-109129112D01*
X194232192Y-109205777D01*
X194359667Y-109258578D01*
X194359672Y-109258580D01*
X194359676Y-109258580D01*
X194359677Y-109258581D01*
X194495003Y-109285500D01*
X194495006Y-109285500D01*
X210634996Y-109285500D01*
X210726040Y-109267389D01*
X210770328Y-109258580D01*
X210834069Y-109232177D01*
X210897807Y-109205777D01*
X210897808Y-109205776D01*
X210897811Y-109205775D01*
X211012543Y-109129114D01*
X211554114Y-108587543D01*
X211630775Y-108472811D01*
X211683580Y-108345328D01*
X211710500Y-108209994D01*
X211710500Y-108072006D01*
X211710500Y-105695072D01*
X211730185Y-105628033D01*
X211746821Y-105607388D01*
X211748302Y-105605908D01*
X211852322Y-105450231D01*
X211923973Y-105277251D01*
X211960500Y-105093616D01*
X211960500Y-104906384D01*
X211923973Y-104722749D01*
X211852322Y-104549769D01*
X211852321Y-104549768D01*
X211852318Y-104549762D01*
X211748302Y-104394092D01*
X211748299Y-104394088D01*
X211701328Y-104347117D01*
X211667843Y-104285794D01*
X211672827Y-104216102D01*
X211714699Y-104160169D01*
X211780163Y-104135752D01*
X211788778Y-104135436D01*
X222583760Y-104117110D01*
X222627266Y-104112376D01*
X222678566Y-104101170D01*
X222688573Y-104098720D01*
X222769285Y-104055710D01*
X222822089Y-104009955D01*
X222840043Y-103992364D01*
X222884690Y-103912547D01*
X222904375Y-103845508D01*
X222912700Y-103787610D01*
X222912700Y-81835800D01*
X222908003Y-81792116D01*
X222904097Y-81774164D01*
X222896802Y-81740625D01*
X222896548Y-81739589D01*
X222894310Y-81730427D01*
X222851300Y-81649715D01*
X222805545Y-81596911D01*
X222805539Y-81596904D01*
X222787957Y-81578960D01*
X222787956Y-81578959D01*
X222787954Y-81578957D01*
X222787952Y-81578956D01*
X222787950Y-81578954D01*
X222708140Y-81534311D01*
X222708135Y-81534309D01*
X222641103Y-81514626D01*
X222641099Y-81514625D01*
X222641098Y-81514625D01*
X222583200Y-81506300D01*
X222583196Y-81506300D01*
X220760695Y-81506300D01*
X220693656Y-81486615D01*
X220647901Y-81433811D01*
X220637957Y-81364653D01*
X220666982Y-81301097D01*
X220673014Y-81294619D01*
X220779974Y-81187658D01*
X220779975Y-81187657D01*
X220779977Y-81187655D01*
X220894941Y-81015598D01*
X220974130Y-80824420D01*
X221014500Y-80621465D01*
X221014500Y-80414535D01*
X220974130Y-80211580D01*
X220894941Y-80020402D01*
X220779977Y-79848345D01*
X220779975Y-79848342D01*
X220633657Y-79702024D01*
X220547626Y-79644541D01*
X220461598Y-79587059D01*
X220387658Y-79556432D01*
X220270420Y-79507870D01*
X220270412Y-79507868D01*
X220067469Y-79467500D01*
X220067465Y-79467500D01*
X219860535Y-79467500D01*
X219860530Y-79467500D01*
X219657587Y-79507868D01*
X219657579Y-79507870D01*
X219466403Y-79587058D01*
X219294342Y-79702024D01*
X219148024Y-79848342D01*
X219033058Y-80020403D01*
X218953870Y-80211579D01*
X218953868Y-80211587D01*
X218913500Y-80414530D01*
X218913500Y-80621469D01*
X218953868Y-80824412D01*
X218953870Y-80824420D01*
X219033058Y-81015596D01*
X219148024Y-81187657D01*
X219254986Y-81294619D01*
X219288471Y-81355942D01*
X219283487Y-81425634D01*
X219241615Y-81481567D01*
X219176151Y-81505984D01*
X219167305Y-81506300D01*
X214195413Y-81506300D01*
X214151555Y-81511034D01*
X214151545Y-81511035D01*
X214099871Y-81522323D01*
X214089507Y-81524871D01*
X214008866Y-81568020D01*
X213956145Y-81613862D01*
X213938216Y-81631488D01*
X213938214Y-81631491D01*
X213893711Y-81711376D01*
X213893706Y-81711387D01*
X213874140Y-81778450D01*
X213874139Y-81778456D01*
X213865914Y-81836362D01*
X213865914Y-81836366D01*
X213865914Y-81836367D01*
X213867877Y-82974631D01*
X213867911Y-82994516D01*
X213890353Y-96011198D01*
X213890531Y-96114086D01*
X213870962Y-96181160D01*
X213818237Y-96227005D01*
X213766531Y-96238300D01*
X191495017Y-96238300D01*
X191427978Y-96218615D01*
X191382223Y-96165811D01*
X191372279Y-96096653D01*
X191401304Y-96033097D01*
X191426127Y-96011198D01*
X191436510Y-96004259D01*
X191440282Y-96001739D01*
X191579639Y-95862382D01*
X191689132Y-95698514D01*
X191764551Y-95516435D01*
X191803000Y-95323141D01*
X191803000Y-95126059D01*
X191803000Y-95126056D01*
X191764552Y-94932770D01*
X191764551Y-94932769D01*
X191764551Y-94932765D01*
X191764549Y-94932760D01*
X191689135Y-94750692D01*
X191689128Y-94750679D01*
X191579639Y-94586818D01*
X191579636Y-94586814D01*
X191440285Y-94447463D01*
X191440281Y-94447460D01*
X191312109Y-94361818D01*
X191267304Y-94308206D01*
X191257000Y-94258716D01*
X191257000Y-93078921D01*
X191276685Y-93011882D01*
X191293314Y-92991245D01*
X194378179Y-89906379D01*
X210059500Y-89906379D01*
X210059500Y-90093620D01*
X210096025Y-90277243D01*
X210096027Y-90277251D01*
X210167676Y-90450228D01*
X210167681Y-90450237D01*
X210271697Y-90605907D01*
X210271700Y-90605911D01*
X210404088Y-90738299D01*
X210404092Y-90738302D01*
X210559762Y-90842318D01*
X210559768Y-90842321D01*
X210559769Y-90842322D01*
X210732749Y-90913973D01*
X210916379Y-90950499D01*
X210916383Y-90950500D01*
X210916384Y-90950500D01*
X211103617Y-90950500D01*
X211103618Y-90950499D01*
X211287251Y-90913973D01*
X211460231Y-90842322D01*
X211615908Y-90738302D01*
X211748302Y-90605908D01*
X211852322Y-90450231D01*
X211923973Y-90277251D01*
X211960500Y-90093616D01*
X211960500Y-89906384D01*
X211923973Y-89722749D01*
X211852322Y-89549769D01*
X211852321Y-89549768D01*
X211852318Y-89549762D01*
X211748302Y-89394092D01*
X211748299Y-89394088D01*
X211615911Y-89261700D01*
X211615907Y-89261697D01*
X211460237Y-89157681D01*
X211460228Y-89157676D01*
X211287251Y-89086027D01*
X211287243Y-89086025D01*
X211103620Y-89049500D01*
X211103616Y-89049500D01*
X210916384Y-89049500D01*
X210916379Y-89049500D01*
X210732756Y-89086025D01*
X210732748Y-89086027D01*
X210559771Y-89157676D01*
X210559762Y-89157681D01*
X210404092Y-89261697D01*
X210404088Y-89261700D01*
X210271700Y-89394088D01*
X210271697Y-89394092D01*
X210167681Y-89549762D01*
X210167676Y-89549771D01*
X210096027Y-89722748D01*
X210096025Y-89722756D01*
X210059500Y-89906379D01*
X194378179Y-89906379D01*
X195667311Y-88617247D01*
X195728632Y-88583764D01*
X195798324Y-88588748D01*
X195848691Y-88623714D01*
X195850568Y-88625880D01*
X195850577Y-88625889D01*
X195868168Y-88643843D01*
X195868169Y-88643844D01*
X195868171Y-88643845D01*
X195947981Y-88688488D01*
X195947985Y-88688490D01*
X196015024Y-88708175D01*
X196072922Y-88716500D01*
X196072926Y-88716500D01*
X196077516Y-88716500D01*
X196077517Y-88716500D01*
X196099485Y-88715322D01*
X196125844Y-88712488D01*
X196125850Y-88712485D01*
X196125856Y-88712485D01*
X196172877Y-88697761D01*
X196202364Y-88688528D01*
X196263687Y-88655042D01*
X196310513Y-88619987D01*
X196334579Y-88595918D01*
X196353368Y-88580500D01*
X196463273Y-88507062D01*
X196484709Y-88495603D01*
X196565554Y-88462119D01*
X196591772Y-88448996D01*
X196622126Y-88430987D01*
X196642212Y-88412285D01*
X196642851Y-88413172D01*
X196653365Y-88405591D01*
X196664560Y-88396917D01*
X196678988Y-88378044D01*
X196682310Y-88374950D01*
X196686075Y-88371447D01*
X196691468Y-88363679D01*
X196691466Y-88363678D01*
X196704602Y-88344759D01*
X196706108Y-88342575D01*
X196720109Y-88324264D01*
X196722557Y-88318901D01*
X196725914Y-88314068D01*
X196738968Y-88292571D01*
X196738968Y-88292570D01*
X196743575Y-88284985D01*
X196745863Y-88286374D01*
X196781410Y-88243151D01*
X196847920Y-88221746D01*
X196915444Y-88239697D01*
X196962544Y-88291305D01*
X196966152Y-88299421D01*
X196973078Y-88316636D01*
X196973079Y-88316638D01*
X196973080Y-88316639D01*
X197029737Y-88388432D01*
X197029738Y-88388433D01*
X197029740Y-88388435D01*
X197084135Y-88432269D01*
X197084139Y-88432271D01*
X197084141Y-88432273D01*
X197134445Y-88462119D01*
X197215288Y-88495604D01*
X197236724Y-88507062D01*
X197236727Y-88507063D01*
X197244396Y-88512188D01*
X197346628Y-88580497D01*
X197365418Y-88595917D01*
X197389489Y-88619989D01*
X197405857Y-88634692D01*
X197426500Y-88651327D01*
X197497546Y-88688490D01*
X197537953Y-88700355D01*
X197564577Y-88708173D01*
X197564579Y-88708173D01*
X197564585Y-88708175D01*
X197622483Y-88716500D01*
X197622487Y-88716500D01*
X206123158Y-88716500D01*
X206123162Y-88716500D01*
X206167173Y-88711732D01*
X206219054Y-88700357D01*
X206229557Y-88697763D01*
X206310127Y-88654488D01*
X206362780Y-88608560D01*
X206380675Y-88590911D01*
X206425060Y-88510948D01*
X206444525Y-88443845D01*
X206452660Y-88385921D01*
X206452652Y-88383629D01*
X206433943Y-82672393D01*
X206433802Y-82665440D01*
X206433486Y-82656968D01*
X206433485Y-82656960D01*
X206420998Y-82594448D01*
X206420672Y-82592814D01*
X206396255Y-82527350D01*
X206390303Y-82513956D01*
X206386049Y-82504382D01*
X206386047Y-82504379D01*
X206327832Y-82435793D01*
X206299457Y-82371944D01*
X206310106Y-82302891D01*
X206334685Y-82267873D01*
X207136541Y-81466019D01*
X207197864Y-81432534D01*
X207224222Y-81429700D01*
X211108152Y-81429700D01*
X211108168Y-81429701D01*
X211115764Y-81429701D01*
X211235435Y-81429701D01*
X211235436Y-81429701D01*
X211326598Y-81405273D01*
X211326601Y-81405273D01*
X211340705Y-81401493D01*
X211351031Y-81398727D01*
X211454670Y-81338891D01*
X211539291Y-81254270D01*
X211539291Y-81254268D01*
X211549495Y-81244065D01*
X211549498Y-81244060D01*
X212495941Y-80297619D01*
X212557264Y-80264134D01*
X212583622Y-80261300D01*
X213673552Y-80261300D01*
X213673568Y-80261301D01*
X213681164Y-80261301D01*
X213800834Y-80261301D01*
X213800836Y-80261301D01*
X213903036Y-80233916D01*
X213916431Y-80230327D01*
X214020070Y-80170491D01*
X214104691Y-80085870D01*
X214104691Y-80085868D01*
X214114895Y-80075665D01*
X214114899Y-80075660D01*
X216316029Y-77874530D01*
X218913500Y-77874530D01*
X218913500Y-78081469D01*
X218953868Y-78284412D01*
X218953870Y-78284420D01*
X219033058Y-78475596D01*
X219148024Y-78647657D01*
X219294342Y-78793975D01*
X219294345Y-78793977D01*
X219466402Y-78908941D01*
X219657580Y-78988130D01*
X219860530Y-79028499D01*
X219860534Y-79028500D01*
X219860535Y-79028500D01*
X220067466Y-79028500D01*
X220067467Y-79028499D01*
X220270420Y-78988130D01*
X220461598Y-78908941D01*
X220633655Y-78793977D01*
X220779977Y-78647655D01*
X220894941Y-78475598D01*
X220974130Y-78284420D01*
X221014500Y-78081465D01*
X221014500Y-77874535D01*
X220974130Y-77671580D01*
X220894941Y-77480402D01*
X220779977Y-77308345D01*
X220779975Y-77308342D01*
X220633657Y-77162024D01*
X220499450Y-77072351D01*
X220461598Y-77047059D01*
X220270420Y-76967870D01*
X220270412Y-76967868D01*
X220067469Y-76927500D01*
X220067465Y-76927500D01*
X219860535Y-76927500D01*
X219860530Y-76927500D01*
X219657587Y-76967868D01*
X219657579Y-76967870D01*
X219466403Y-77047058D01*
X219294342Y-77162024D01*
X219148024Y-77308342D01*
X219033058Y-77480403D01*
X218953870Y-77671579D01*
X218953868Y-77671587D01*
X218913500Y-77874530D01*
X216316029Y-77874530D01*
X216676860Y-77513699D01*
X216676865Y-77513695D01*
X216687068Y-77503491D01*
X216687070Y-77503491D01*
X216771691Y-77418870D01*
X216831527Y-77315231D01*
X216831528Y-77315230D01*
X216862501Y-77199636D01*
X216862501Y-77079964D01*
X216862501Y-77072369D01*
X216862500Y-77072351D01*
X216862500Y-72000155D01*
X218614000Y-72000155D01*
X218614000Y-72648000D01*
X219530988Y-72648000D01*
X219498075Y-72705007D01*
X219464000Y-72832174D01*
X219464000Y-72963826D01*
X219498075Y-73090993D01*
X219530988Y-73148000D01*
X218614000Y-73148000D01*
X218614000Y-73795844D01*
X218620401Y-73855372D01*
X218620403Y-73855379D01*
X218670645Y-73990086D01*
X218670649Y-73990093D01*
X218756809Y-74105187D01*
X218756812Y-74105190D01*
X218871906Y-74191350D01*
X218871913Y-74191354D01*
X219006620Y-74241596D01*
X219006627Y-74241598D01*
X219066155Y-74247999D01*
X219066172Y-74248000D01*
X219468435Y-74248000D01*
X219535474Y-74267685D01*
X219581229Y-74320489D01*
X219591173Y-74389647D01*
X219562148Y-74453203D01*
X219515888Y-74486561D01*
X219466403Y-74507058D01*
X219294342Y-74622024D01*
X219148024Y-74768342D01*
X219033058Y-74940403D01*
X218953870Y-75131579D01*
X218953868Y-75131587D01*
X218913500Y-75334530D01*
X218913500Y-75541469D01*
X218953868Y-75744412D01*
X218953870Y-75744420D01*
X219006262Y-75870906D01*
X219033059Y-75935598D01*
X219077978Y-76002825D01*
X219148024Y-76107657D01*
X219294342Y-76253975D01*
X219294345Y-76253977D01*
X219466402Y-76368941D01*
X219657580Y-76448130D01*
X219860530Y-76488499D01*
X219860534Y-76488500D01*
X219860535Y-76488500D01*
X220067466Y-76488500D01*
X220067467Y-76488499D01*
X220270420Y-76448130D01*
X220461598Y-76368941D01*
X220633655Y-76253977D01*
X220779977Y-76107655D01*
X220894941Y-75935598D01*
X220974130Y-75744420D01*
X221014500Y-75541465D01*
X221014500Y-75334535D01*
X220974130Y-75131580D01*
X220894941Y-74940402D01*
X220779977Y-74768345D01*
X220779975Y-74768342D01*
X220633657Y-74622024D01*
X220530263Y-74552939D01*
X220461598Y-74507059D01*
X220429216Y-74493646D01*
X220412112Y-74486561D01*
X220357709Y-74442720D01*
X220335644Y-74376426D01*
X220352923Y-74308726D01*
X220404061Y-74261116D01*
X220459565Y-74248000D01*
X220861828Y-74248000D01*
X220861844Y-74247999D01*
X220921372Y-74241598D01*
X220921379Y-74241596D01*
X221056086Y-74191354D01*
X221056093Y-74191350D01*
X221171187Y-74105190D01*
X221171190Y-74105187D01*
X221257350Y-73990093D01*
X221257354Y-73990086D01*
X221307596Y-73855379D01*
X221307598Y-73855372D01*
X221313999Y-73795844D01*
X221314000Y-73795827D01*
X221314000Y-73148000D01*
X220397012Y-73148000D01*
X220429925Y-73090993D01*
X220464000Y-72963826D01*
X220464000Y-72832174D01*
X220429925Y-72705007D01*
X220397012Y-72648000D01*
X221314000Y-72648000D01*
X221314000Y-72000172D01*
X221313999Y-72000155D01*
X221307598Y-71940627D01*
X221307596Y-71940620D01*
X221257354Y-71805913D01*
X221257350Y-71805906D01*
X221171190Y-71690812D01*
X221171187Y-71690809D01*
X221056093Y-71604649D01*
X221056086Y-71604645D01*
X220921379Y-71554403D01*
X220921372Y-71554401D01*
X220861844Y-71548000D01*
X220214000Y-71548000D01*
X220214000Y-72464988D01*
X220156993Y-72432075D01*
X220029826Y-72398000D01*
X219898174Y-72398000D01*
X219771007Y-72432075D01*
X219714000Y-72464988D01*
X219714000Y-71548000D01*
X219066155Y-71548000D01*
X219006627Y-71554401D01*
X219006620Y-71554403D01*
X218871913Y-71604645D01*
X218871906Y-71604649D01*
X218756812Y-71690809D01*
X218756809Y-71690812D01*
X218670649Y-71805906D01*
X218670645Y-71805913D01*
X218620403Y-71940620D01*
X218620401Y-71940627D01*
X218614000Y-72000155D01*
X216862500Y-72000155D01*
X216862500Y-67968534D01*
X218913500Y-67968534D01*
X218913500Y-68175469D01*
X218953868Y-68378412D01*
X218953870Y-68378420D01*
X219019777Y-68537534D01*
X219033059Y-68569598D01*
X219083073Y-68644450D01*
X219148024Y-68741657D01*
X219294342Y-68887975D01*
X219294345Y-68887977D01*
X219466402Y-69002941D01*
X219657580Y-69082130D01*
X219826485Y-69115727D01*
X219860530Y-69122499D01*
X219860534Y-69122500D01*
X219860535Y-69122500D01*
X220067466Y-69122500D01*
X220067467Y-69122499D01*
X220270420Y-69082130D01*
X220461598Y-69002941D01*
X220633655Y-68887977D01*
X220779977Y-68741655D01*
X220894941Y-68569598D01*
X220974130Y-68378420D01*
X221014500Y-68175465D01*
X221014500Y-67968535D01*
X220974130Y-67765580D01*
X220894941Y-67574402D01*
X220779977Y-67402345D01*
X220779975Y-67402342D01*
X220633657Y-67256024D01*
X220539935Y-67193402D01*
X220461598Y-67141059D01*
X220270420Y-67061870D01*
X220270412Y-67061868D01*
X220067469Y-67021500D01*
X220067465Y-67021500D01*
X219860535Y-67021500D01*
X219860530Y-67021500D01*
X219657587Y-67061868D01*
X219657579Y-67061870D01*
X219466403Y-67141058D01*
X219294342Y-67256024D01*
X219148024Y-67402342D01*
X219033058Y-67574403D01*
X218953870Y-67765579D01*
X218953868Y-67765587D01*
X218913501Y-67968528D01*
X218913500Y-67968534D01*
X216862500Y-67968534D01*
X216862500Y-64227566D01*
X216862500Y-64227564D01*
X216831527Y-64111969D01*
X216771691Y-64008330D01*
X216687070Y-63923709D01*
X216687069Y-63923708D01*
X216682739Y-63919378D01*
X216682728Y-63919368D01*
X215425619Y-62662259D01*
X215392134Y-62600936D01*
X215389300Y-62574578D01*
X215389300Y-61899422D01*
X215408985Y-61832383D01*
X215461789Y-61786628D01*
X215530947Y-61776684D01*
X215594503Y-61805709D01*
X215600981Y-61811741D01*
X218917115Y-65127875D01*
X218950600Y-65189198D01*
X218951051Y-65239747D01*
X218913500Y-65428530D01*
X218913500Y-65635469D01*
X218953868Y-65838412D01*
X218953870Y-65838420D01*
X219033058Y-66029596D01*
X219148024Y-66201657D01*
X219294342Y-66347975D01*
X219294345Y-66347977D01*
X219466402Y-66462941D01*
X219657580Y-66542130D01*
X219772481Y-66564985D01*
X219860530Y-66582499D01*
X219860534Y-66582500D01*
X219860535Y-66582500D01*
X220067466Y-66582500D01*
X220067467Y-66582499D01*
X220270420Y-66542130D01*
X220461598Y-66462941D01*
X220633655Y-66347977D01*
X220779977Y-66201655D01*
X220894941Y-66029598D01*
X220974130Y-65838420D01*
X221014500Y-65635465D01*
X221014500Y-65428535D01*
X220974130Y-65225580D01*
X220894941Y-65034402D01*
X220779977Y-64862345D01*
X220779975Y-64862342D01*
X220633657Y-64716024D01*
X220539935Y-64653402D01*
X220461598Y-64601059D01*
X220432830Y-64589143D01*
X220399891Y-64575499D01*
X220296890Y-64532834D01*
X220242488Y-64488994D01*
X220220423Y-64422700D01*
X220237702Y-64355001D01*
X220288839Y-64307390D01*
X220306026Y-64300343D01*
X220482217Y-64243095D01*
X220671554Y-64146622D01*
X220725716Y-64107270D01*
X220725717Y-64107270D01*
X220093408Y-63474962D01*
X220156993Y-63457925D01*
X220271007Y-63392099D01*
X220364099Y-63299007D01*
X220429925Y-63184993D01*
X220446962Y-63121409D01*
X221079270Y-63753717D01*
X221079270Y-63753716D01*
X221118622Y-63699554D01*
X221215095Y-63510217D01*
X221280757Y-63308130D01*
X221280757Y-63308127D01*
X221314000Y-63098246D01*
X221314000Y-62885753D01*
X221280757Y-62675872D01*
X221280757Y-62675869D01*
X221215095Y-62473782D01*
X221118624Y-62284449D01*
X221079270Y-62230282D01*
X221079269Y-62230282D01*
X220446962Y-62862590D01*
X220429925Y-62799007D01*
X220364099Y-62684993D01*
X220271007Y-62591901D01*
X220156993Y-62526075D01*
X220093409Y-62509037D01*
X220725716Y-61876728D01*
X220671550Y-61837375D01*
X220482216Y-61740904D01*
X220306026Y-61683656D01*
X220248350Y-61644218D01*
X220221152Y-61579860D01*
X220233067Y-61511013D01*
X220280311Y-61459538D01*
X220296882Y-61451168D01*
X220461598Y-61382941D01*
X220633655Y-61267977D01*
X220779977Y-61121655D01*
X220894941Y-60949598D01*
X220974130Y-60758420D01*
X221014500Y-60555465D01*
X221014500Y-60348535D01*
X220974130Y-60145580D01*
X220894941Y-59954402D01*
X220779977Y-59782345D01*
X220779975Y-59782342D01*
X220633657Y-59636024D01*
X220539935Y-59573402D01*
X220461598Y-59521059D01*
X220461180Y-59520886D01*
X220270420Y-59441870D01*
X220270412Y-59441868D01*
X220067469Y-59401500D01*
X220067465Y-59401500D01*
X219860535Y-59401500D01*
X219860530Y-59401500D01*
X219657587Y-59441868D01*
X219657579Y-59441870D01*
X219466403Y-59521058D01*
X219294342Y-59636024D01*
X219148025Y-59782341D01*
X219148019Y-59782349D01*
X219041084Y-59942390D01*
X218987472Y-59987196D01*
X218937982Y-59997500D01*
X217511222Y-59997500D01*
X217481781Y-59988855D01*
X217451795Y-59982332D01*
X217446779Y-59978577D01*
X217444183Y-59977815D01*
X217423541Y-59961181D01*
X217330619Y-59868259D01*
X217297134Y-59806936D01*
X217294300Y-59780578D01*
X217294300Y-57708423D01*
X217313985Y-57641384D01*
X217366789Y-57595629D01*
X217435947Y-57585685D01*
X217499503Y-57614710D01*
X217505981Y-57620742D01*
X217532995Y-57647756D01*
X217533001Y-57647761D01*
X218076307Y-58191067D01*
X218076309Y-58191070D01*
X218160930Y-58275691D01*
X218220767Y-58310237D01*
X218264570Y-58335528D01*
X218380164Y-58366501D01*
X218380166Y-58366501D01*
X218507432Y-58366501D01*
X218507448Y-58366500D01*
X218937982Y-58366500D01*
X219005021Y-58386185D01*
X219041084Y-58421610D01*
X219148019Y-58581650D01*
X219148025Y-58581658D01*
X219294342Y-58727975D01*
X219294345Y-58727977D01*
X219466402Y-58842941D01*
X219657580Y-58922130D01*
X219806099Y-58951672D01*
X219860530Y-58962499D01*
X219860534Y-58962500D01*
X219860535Y-58962500D01*
X220067466Y-58962500D01*
X220067467Y-58962499D01*
X220270420Y-58922130D01*
X220461598Y-58842941D01*
X220633655Y-58727977D01*
X220779977Y-58581655D01*
X220894941Y-58409598D01*
X220974130Y-58218420D01*
X221014500Y-58015465D01*
X221014500Y-57808535D01*
X220974130Y-57605580D01*
X220894941Y-57414402D01*
X220779977Y-57242345D01*
X220779975Y-57242342D01*
X220633657Y-57096024D01*
X220539202Y-57032912D01*
X220461598Y-56981059D01*
X220433692Y-56969500D01*
X220270420Y-56901870D01*
X220270412Y-56901868D01*
X220067469Y-56861500D01*
X220067465Y-56861500D01*
X219860535Y-56861500D01*
X219860530Y-56861500D01*
X219657587Y-56901868D01*
X219657579Y-56901870D01*
X219466403Y-56981058D01*
X219294342Y-57096024D01*
X219148025Y-57242341D01*
X219148019Y-57242349D01*
X219041084Y-57402390D01*
X218987472Y-57447196D01*
X218937982Y-57457500D01*
X218679622Y-57457500D01*
X218612583Y-57437815D01*
X218591941Y-57421181D01*
X218295819Y-57125059D01*
X218262334Y-57063736D01*
X218259500Y-57037378D01*
X218259500Y-54502247D01*
X218913500Y-54502247D01*
X218913500Y-56241752D01*
X218925131Y-56300229D01*
X218925132Y-56300230D01*
X218969447Y-56366552D01*
X219035769Y-56410867D01*
X219035770Y-56410868D01*
X219094247Y-56422499D01*
X219094250Y-56422500D01*
X219094252Y-56422500D01*
X220833750Y-56422500D01*
X220833751Y-56422499D01*
X220848568Y-56419552D01*
X220892229Y-56410868D01*
X220892229Y-56410867D01*
X220892231Y-56410867D01*
X220958552Y-56366552D01*
X221002867Y-56300231D01*
X221002867Y-56300229D01*
X221002868Y-56300229D01*
X221014499Y-56241752D01*
X221014500Y-56241750D01*
X221014500Y-54502249D01*
X221014499Y-54502247D01*
X221002868Y-54443770D01*
X221002867Y-54443769D01*
X220958552Y-54377447D01*
X220892230Y-54333132D01*
X220892229Y-54333131D01*
X220833752Y-54321500D01*
X220833748Y-54321500D01*
X219094252Y-54321500D01*
X219094247Y-54321500D01*
X219035770Y-54333131D01*
X219035769Y-54333132D01*
X218969447Y-54377447D01*
X218925132Y-54443769D01*
X218925131Y-54443770D01*
X218913500Y-54502247D01*
X218259500Y-54502247D01*
X218259500Y-51962038D01*
X218259501Y-51962025D01*
X218259501Y-51832366D01*
X218259501Y-51832364D01*
X218228528Y-51716770D01*
X218203753Y-51673860D01*
X218190849Y-51651509D01*
X218190848Y-51651508D01*
X218184771Y-51640982D01*
X218168691Y-51613130D01*
X218084070Y-51528509D01*
X218084067Y-51528507D01*
X215483361Y-48927801D01*
X215483359Y-48927798D01*
X215391672Y-48836111D01*
X215391666Y-48836106D01*
X215288034Y-48776274D01*
X215288029Y-48776272D01*
X215263603Y-48769726D01*
X215263603Y-48769727D01*
X215218019Y-48757513D01*
X215172436Y-48745299D01*
X215052764Y-48745299D01*
X215045168Y-48745299D01*
X215045152Y-48745300D01*
X207529022Y-48745300D01*
X207461983Y-48725615D01*
X207441341Y-48708981D01*
X203408507Y-44676147D01*
X203375022Y-44614824D01*
X203380006Y-44545132D01*
X203421878Y-44489199D01*
X203487342Y-44464782D01*
X203496188Y-44464466D01*
X222734512Y-44464466D01*
X222756444Y-44470906D01*
X222779225Y-44472808D01*
X222797090Y-44482841D01*
X222801551Y-44484151D01*
X222809998Y-44490090D01*
X222887935Y-44549893D01*
X222896216Y-44556842D01*
X223019345Y-44669669D01*
X223177635Y-44814715D01*
X223185284Y-44822364D01*
X223443152Y-45103777D01*
X223450106Y-45112064D01*
X223509910Y-45190002D01*
X223535104Y-45255171D01*
X223535534Y-45265488D01*
X223535534Y-122734512D01*
X223529093Y-122756444D01*
X223527192Y-122779226D01*
X223517158Y-122797090D01*
X223515849Y-122801551D01*
X223509910Y-122809998D01*
X223509909Y-122809999D01*
X223450109Y-122887931D01*
X223443156Y-122896217D01*
X223185284Y-123177635D01*
X223177635Y-123185284D01*
X222896222Y-123443152D01*
X222887936Y-123450105D01*
X222809999Y-123509909D01*
X222744830Y-123535104D01*
X222734512Y-123535534D01*
X157265488Y-123535534D01*
X157243555Y-123529093D01*
X157220775Y-123527192D01*
X157202909Y-123517158D01*
X157198449Y-123515849D01*
X157190002Y-123509910D01*
X157112064Y-123450106D01*
X157112063Y-123450105D01*
X157103777Y-123443152D01*
X156822364Y-123185284D01*
X156814715Y-123177635D01*
X156556843Y-122896217D01*
X156549889Y-122887930D01*
X156490090Y-122809998D01*
X156464896Y-122744829D01*
X156464466Y-122734512D01*
X156464466Y-119998543D01*
X178749499Y-119998543D01*
X178787947Y-120191829D01*
X178787950Y-120191839D01*
X178863364Y-120373907D01*
X178863371Y-120373920D01*
X178972860Y-120537781D01*
X178972863Y-120537785D01*
X179112214Y-120677136D01*
X179112218Y-120677139D01*
X179276079Y-120786628D01*
X179276092Y-120786635D01*
X179458160Y-120862049D01*
X179458165Y-120862051D01*
X179458169Y-120862051D01*
X179458170Y-120862052D01*
X179651456Y-120900500D01*
X179651459Y-120900500D01*
X180348543Y-120900500D01*
X180478582Y-120874632D01*
X180541835Y-120862051D01*
X180723914Y-120786632D01*
X180887782Y-120677139D01*
X181027139Y-120537782D01*
X181136632Y-120373914D01*
X181212051Y-120191835D01*
X181250500Y-119998541D01*
X181250500Y-119801459D01*
X181250500Y-119801456D01*
X181212052Y-119608170D01*
X181212051Y-119608169D01*
X181212051Y-119608165D01*
X181167041Y-119499500D01*
X181136635Y-119426092D01*
X181136628Y-119426079D01*
X181027139Y-119262218D01*
X181027136Y-119262214D01*
X180887785Y-119122863D01*
X180887781Y-119122860D01*
X180723920Y-119013371D01*
X180723907Y-119013364D01*
X180541839Y-118937950D01*
X180541829Y-118937947D01*
X180348543Y-118899500D01*
X180348541Y-118899500D01*
X179651459Y-118899500D01*
X179651457Y-118899500D01*
X179458170Y-118937947D01*
X179458160Y-118937950D01*
X179276092Y-119013364D01*
X179276079Y-119013371D01*
X179112218Y-119122860D01*
X179112214Y-119122863D01*
X178972863Y-119262214D01*
X178972860Y-119262218D01*
X178863371Y-119426079D01*
X178863364Y-119426092D01*
X178787950Y-119608160D01*
X178787947Y-119608170D01*
X178749500Y-119801456D01*
X178749500Y-119801459D01*
X178749500Y-119998541D01*
X178749500Y-119998543D01*
X178749499Y-119998543D01*
X156464466Y-119998543D01*
X156464466Y-115401577D01*
X178749500Y-115401577D01*
X178749500Y-115598422D01*
X178780290Y-115792826D01*
X178841117Y-115980029D01*
X178890346Y-116076645D01*
X178930476Y-116155405D01*
X179046172Y-116314646D01*
X179185354Y-116453828D01*
X179344595Y-116569524D01*
X179427455Y-116611743D01*
X179519970Y-116658882D01*
X179519972Y-116658882D01*
X179519975Y-116658884D01*
X179620317Y-116691487D01*
X179707173Y-116719709D01*
X179901578Y-116750500D01*
X179901583Y-116750500D01*
X180098422Y-116750500D01*
X180292826Y-116719709D01*
X180480025Y-116658884D01*
X180655405Y-116569524D01*
X180789421Y-116472155D01*
X198510000Y-116472155D01*
X198510000Y-118250000D01*
X199389175Y-118250000D01*
X199365364Y-118307485D01*
X199340000Y-118434996D01*
X199340000Y-118565004D01*
X199365364Y-118692515D01*
X199389175Y-118750000D01*
X198510000Y-118750000D01*
X198510000Y-120527844D01*
X198516401Y-120587372D01*
X198516403Y-120587379D01*
X198566645Y-120722086D01*
X198566649Y-120722093D01*
X198652809Y-120837187D01*
X198652812Y-120837190D01*
X198767906Y-120923350D01*
X198767913Y-120923354D01*
X198902620Y-120973596D01*
X198902627Y-120973598D01*
X198962155Y-120979999D01*
X198962172Y-120980000D01*
X199750000Y-120980000D01*
X199750000Y-119110824D01*
X199807485Y-119134636D01*
X199934996Y-119160000D01*
X200065004Y-119160000D01*
X200192515Y-119134636D01*
X200250000Y-119110824D01*
X200250000Y-120980000D01*
X201037828Y-120980000D01*
X201037844Y-120979999D01*
X201097372Y-120973598D01*
X201097379Y-120973596D01*
X201232086Y-120923354D01*
X201232093Y-120923350D01*
X201347187Y-120837190D01*
X201347190Y-120837187D01*
X201433350Y-120722093D01*
X201433354Y-120722086D01*
X201483596Y-120587379D01*
X201483598Y-120587372D01*
X201489999Y-120527844D01*
X201490000Y-120527827D01*
X201490000Y-118750000D01*
X200610825Y-118750000D01*
X200634636Y-118692515D01*
X200660000Y-118565004D01*
X200660000Y-118434996D01*
X200634636Y-118307485D01*
X200610825Y-118250000D01*
X201490000Y-118250000D01*
X201490000Y-117416300D01*
X203809500Y-117416300D01*
X203809500Y-119583699D01*
X203838813Y-119768770D01*
X203838814Y-119768776D01*
X203896721Y-119946993D01*
X203896722Y-119946996D01*
X203896723Y-119946997D01*
X203981794Y-120113959D01*
X203981795Y-120113962D01*
X204027587Y-120176988D01*
X204091938Y-120265559D01*
X204224441Y-120398062D01*
X204310025Y-120460243D01*
X204376037Y-120508204D01*
X204376038Y-120508204D01*
X204376042Y-120508207D01*
X204543007Y-120593279D01*
X204721224Y-120651186D01*
X204813765Y-120665843D01*
X204906301Y-120680500D01*
X204906306Y-120680500D01*
X205093699Y-120680500D01*
X205177822Y-120667175D01*
X205278776Y-120651186D01*
X205456993Y-120593279D01*
X205623958Y-120508207D01*
X205775559Y-120398062D01*
X205908062Y-120265559D01*
X206018207Y-120113958D01*
X206103279Y-119946993D01*
X206161186Y-119768776D01*
X206177175Y-119667822D01*
X206190500Y-119583699D01*
X206190500Y-117416300D01*
X206174510Y-117315352D01*
X206161186Y-117231224D01*
X206103279Y-117053007D01*
X206018207Y-116886042D01*
X206018204Y-116886038D01*
X206018204Y-116886037D01*
X205986230Y-116842029D01*
X205908062Y-116734441D01*
X205775559Y-116601938D01*
X205718502Y-116560484D01*
X205623962Y-116491795D01*
X205623959Y-116491794D01*
X205623960Y-116491794D01*
X205623958Y-116491793D01*
X205456993Y-116406721D01*
X205278776Y-116348814D01*
X205278770Y-116348813D01*
X205093699Y-116319500D01*
X205093694Y-116319500D01*
X204906306Y-116319500D01*
X204906301Y-116319500D01*
X204721229Y-116348813D01*
X204721227Y-116348813D01*
X204721224Y-116348814D01*
X204543007Y-116406721D01*
X204543004Y-116406722D01*
X204543002Y-116406723D01*
X204376040Y-116491794D01*
X204376037Y-116491795D01*
X204269056Y-116569523D01*
X204224441Y-116601938D01*
X204224439Y-116601940D01*
X204224438Y-116601940D01*
X204091940Y-116734438D01*
X204091940Y-116734439D01*
X204091938Y-116734441D01*
X204064302Y-116772477D01*
X203981795Y-116886037D01*
X203981794Y-116886040D01*
X203896723Y-117053002D01*
X203896722Y-117053004D01*
X203896721Y-117053007D01*
X203838814Y-117231224D01*
X203838813Y-117231227D01*
X203838813Y-117231229D01*
X203809500Y-117416300D01*
X201490000Y-117416300D01*
X201490000Y-116472172D01*
X201489999Y-116472155D01*
X201483598Y-116412627D01*
X201483596Y-116412620D01*
X201433354Y-116277913D01*
X201433350Y-116277906D01*
X201347190Y-116162812D01*
X201347187Y-116162809D01*
X201232093Y-116076649D01*
X201232086Y-116076645D01*
X201097379Y-116026403D01*
X201097372Y-116026401D01*
X201037844Y-116020000D01*
X200250000Y-116020000D01*
X200250000Y-117889175D01*
X200192515Y-117865364D01*
X200065004Y-117840000D01*
X199934996Y-117840000D01*
X199807485Y-117865364D01*
X199750000Y-117889175D01*
X199750000Y-116020000D01*
X198962155Y-116020000D01*
X198902627Y-116026401D01*
X198902620Y-116026403D01*
X198767913Y-116076645D01*
X198767906Y-116076649D01*
X198652812Y-116162809D01*
X198652809Y-116162812D01*
X198566649Y-116277906D01*
X198566645Y-116277913D01*
X198516403Y-116412620D01*
X198516401Y-116412627D01*
X198510000Y-116472155D01*
X180789421Y-116472155D01*
X180814646Y-116453828D01*
X180953828Y-116314646D01*
X181069524Y-116155405D01*
X181158884Y-115980025D01*
X181219709Y-115792826D01*
X181250500Y-115598422D01*
X181250500Y-115401577D01*
X181219709Y-115207173D01*
X181158882Y-115019970D01*
X181069523Y-114844594D01*
X180953828Y-114685354D01*
X180814646Y-114546172D01*
X180655405Y-114430476D01*
X180480029Y-114341117D01*
X180292826Y-114280290D01*
X180098422Y-114249500D01*
X180098417Y-114249500D01*
X179901583Y-114249500D01*
X179901578Y-114249500D01*
X179707173Y-114280290D01*
X179519970Y-114341117D01*
X179344594Y-114430476D01*
X179253741Y-114496485D01*
X179185354Y-114546172D01*
X179185352Y-114546174D01*
X179185351Y-114546174D01*
X179046174Y-114685351D01*
X179046174Y-114685352D01*
X179046172Y-114685354D01*
X178996485Y-114753741D01*
X178930476Y-114844594D01*
X178841117Y-115019970D01*
X178780290Y-115207173D01*
X178749500Y-115401577D01*
X156464466Y-115401577D01*
X156464466Y-45265488D01*
X156470906Y-45243555D01*
X156472808Y-45220776D01*
X156482841Y-45202910D01*
X156484151Y-45198449D01*
X156490090Y-45190002D01*
X156549893Y-45112064D01*
X156556832Y-45103794D01*
X156814726Y-44822352D01*
X156822352Y-44814726D01*
X157103794Y-44556832D01*
X157112057Y-44549898D01*
X157150225Y-44520611D01*
X157190002Y-44490090D01*
X157255172Y-44464896D01*
X157265488Y-44464466D01*
X186292211Y-44464466D01*
X186359250Y-44484151D01*
G37*
%TD.AperFunction*%
%TA.AperFunction,Conductor*%
G36*
X162269278Y-101188382D02*
G01*
X162398912Y-101214167D01*
X162422174Y-101221224D01*
X162483231Y-101246514D01*
X162544290Y-101271805D01*
X162565727Y-101283263D01*
X162675625Y-101356695D01*
X162694415Y-101372115D01*
X162787878Y-101465577D01*
X162803299Y-101484368D01*
X162876735Y-101594272D01*
X162888194Y-101615711D01*
X162938774Y-101737824D01*
X162945830Y-101761083D01*
X162971617Y-101890714D01*
X162974000Y-101914907D01*
X162974000Y-102047089D01*
X162971617Y-102071281D01*
X162945830Y-102200916D01*
X162938774Y-102224177D01*
X162888195Y-102346286D01*
X162876736Y-102367724D01*
X162803298Y-102477632D01*
X162787879Y-102496419D01*
X162787877Y-102496422D01*
X162694422Y-102589877D01*
X162675632Y-102605298D01*
X162565724Y-102678736D01*
X162544285Y-102690195D01*
X162422180Y-102740772D01*
X162398921Y-102747828D01*
X162366015Y-102754374D01*
X162366001Y-102754376D01*
X162280174Y-102771450D01*
X162269280Y-102773617D01*
X162245088Y-102776000D01*
X162112909Y-102776000D01*
X162088717Y-102773617D01*
X161959085Y-102747831D01*
X161935827Y-102740775D01*
X161813709Y-102690193D01*
X161792273Y-102678735D01*
X161682372Y-102605302D01*
X161663581Y-102589881D01*
X161570119Y-102496419D01*
X161554698Y-102477629D01*
X161481263Y-102367727D01*
X161469804Y-102346288D01*
X161419222Y-102224170D01*
X161412166Y-102200909D01*
X161386383Y-102071288D01*
X161384000Y-102047097D01*
X161384000Y-101914905D01*
X161386381Y-101890724D01*
X161412169Y-101761074D01*
X161419219Y-101737834D01*
X161469807Y-101615703D01*
X161481262Y-101594272D01*
X161554699Y-101484365D01*
X161570110Y-101465587D01*
X161663583Y-101372114D01*
X161682362Y-101356702D01*
X161792275Y-101283259D01*
X161813703Y-101271806D01*
X161935824Y-101221223D01*
X161959085Y-101214167D01*
X162088720Y-101188382D01*
X162112910Y-101186000D01*
X162245088Y-101186000D01*
X162269278Y-101188382D01*
G37*
%TD.AperFunction*%
%TA.AperFunction,Conductor*%
G36*
X162978317Y-96372779D02*
G01*
X163014863Y-96393158D01*
X163017240Y-96395074D01*
X163067542Y-96424919D01*
X163179290Y-96471204D01*
X163200727Y-96482663D01*
X163200729Y-96482664D01*
X163310625Y-96556095D01*
X163329415Y-96571515D01*
X163422878Y-96664977D01*
X163438299Y-96683768D01*
X163511735Y-96793672D01*
X163523194Y-96815111D01*
X163573774Y-96937224D01*
X163580830Y-96960483D01*
X163606617Y-97090114D01*
X163609000Y-97114307D01*
X163609000Y-97246489D01*
X163606617Y-97270681D01*
X163580830Y-97400316D01*
X163573774Y-97423577D01*
X163523195Y-97545686D01*
X163511736Y-97567124D01*
X163438298Y-97677032D01*
X163422879Y-97695819D01*
X163422877Y-97695822D01*
X163329422Y-97789277D01*
X163310632Y-97804698D01*
X163200724Y-97878136D01*
X163179285Y-97889595D01*
X163057180Y-97940172D01*
X163033921Y-97947228D01*
X163001015Y-97953774D01*
X163001001Y-97953776D01*
X162915174Y-97970850D01*
X162904280Y-97973017D01*
X162880088Y-97975400D01*
X162747909Y-97975400D01*
X162723717Y-97973017D01*
X162594085Y-97947231D01*
X162570827Y-97940175D01*
X162448709Y-97889593D01*
X162427273Y-97878135D01*
X162317372Y-97804702D01*
X162298581Y-97789281D01*
X162205119Y-97695819D01*
X162189698Y-97677029D01*
X162178462Y-97660214D01*
X162116261Y-97567124D01*
X162104804Y-97545688D01*
X162094521Y-97520863D01*
X162054221Y-97423569D01*
X162047166Y-97400309D01*
X162021383Y-97270688D01*
X162019000Y-97246497D01*
X162019000Y-97114305D01*
X162021381Y-97090124D01*
X162047169Y-96960474D01*
X162054219Y-96937234D01*
X162104807Y-96815103D01*
X162116262Y-96793672D01*
X162189699Y-96683765D01*
X162205110Y-96664987D01*
X162298583Y-96571514D01*
X162317362Y-96556102D01*
X162427275Y-96482659D01*
X162448703Y-96471206D01*
X162570824Y-96420623D01*
X162594085Y-96413567D01*
X162723720Y-96387782D01*
X162747910Y-96385400D01*
X162815360Y-96385400D01*
X162815366Y-96385400D01*
X162862625Y-96379892D01*
X162908548Y-96369040D01*
X162978317Y-96372779D01*
G37*
%TD.AperFunction*%
%TA.AperFunction,Conductor*%
G36*
X194050217Y-88736185D02*
G01*
X194095972Y-88788989D01*
X194105916Y-88858147D01*
X194076891Y-88921703D01*
X194070859Y-88928180D01*
X192260740Y-90738299D01*
X190523432Y-92475607D01*
X190438811Y-92560227D01*
X190438807Y-92560233D01*
X190378972Y-92663868D01*
X190378973Y-92663868D01*
X190378973Y-92663870D01*
X190347999Y-92779465D01*
X190347999Y-92909125D01*
X190348000Y-92909138D01*
X190348000Y-94258716D01*
X190328315Y-94325755D01*
X190292891Y-94361818D01*
X190164718Y-94447460D01*
X190164714Y-94447463D01*
X190025363Y-94586814D01*
X190025360Y-94586818D01*
X189915871Y-94750679D01*
X189915864Y-94750692D01*
X189840450Y-94932760D01*
X189840447Y-94932770D01*
X189802000Y-95126056D01*
X189802000Y-95126059D01*
X189802000Y-95323141D01*
X189802000Y-95323143D01*
X189801999Y-95323143D01*
X189840447Y-95516429D01*
X189840450Y-95516439D01*
X189915864Y-95698507D01*
X189915871Y-95698520D01*
X190025360Y-95862381D01*
X190025363Y-95862385D01*
X190164714Y-96001736D01*
X190164722Y-96001742D01*
X190178873Y-96011198D01*
X190223679Y-96064810D01*
X190232386Y-96134135D01*
X190202232Y-96197162D01*
X190142789Y-96233882D01*
X190109983Y-96238300D01*
X183869900Y-96238300D01*
X183802861Y-96218615D01*
X183757106Y-96165811D01*
X183745900Y-96114300D01*
X183745900Y-88840500D01*
X183765585Y-88773461D01*
X183818389Y-88727706D01*
X183869900Y-88716500D01*
X193983178Y-88716500D01*
X194050217Y-88736185D01*
G37*
%TD.AperFunction*%
%TA.AperFunction,Conductor*%
G36*
X201080478Y-75051782D02*
G01*
X201210112Y-75077567D01*
X201233374Y-75084624D01*
X201294431Y-75109914D01*
X201355490Y-75135205D01*
X201376927Y-75146663D01*
X201486825Y-75220095D01*
X201505615Y-75235515D01*
X201599078Y-75328977D01*
X201614499Y-75347768D01*
X201687935Y-75457672D01*
X201699394Y-75479111D01*
X201749974Y-75601224D01*
X201757030Y-75624483D01*
X201759254Y-75635662D01*
X201780888Y-75744420D01*
X201782817Y-75754114D01*
X201785200Y-75778307D01*
X201785200Y-75910489D01*
X201782817Y-75934681D01*
X201757030Y-76064316D01*
X201749974Y-76087577D01*
X201699395Y-76209686D01*
X201687936Y-76231124D01*
X201614498Y-76341032D01*
X201599079Y-76359819D01*
X201599077Y-76359822D01*
X201505622Y-76453277D01*
X201486832Y-76468698D01*
X201376924Y-76542136D01*
X201355485Y-76553595D01*
X201233380Y-76604172D01*
X201210121Y-76611228D01*
X201177215Y-76617774D01*
X201177201Y-76617776D01*
X201091374Y-76634850D01*
X201080480Y-76637017D01*
X201056288Y-76639400D01*
X200924109Y-76639400D01*
X200899917Y-76637017D01*
X200770285Y-76611231D01*
X200747027Y-76604175D01*
X200624909Y-76553593D01*
X200603473Y-76542135D01*
X200493572Y-76468702D01*
X200474781Y-76453281D01*
X200381319Y-76359819D01*
X200365898Y-76341029D01*
X200292463Y-76231127D01*
X200281004Y-76209688D01*
X200230422Y-76087570D01*
X200223366Y-76064309D01*
X200220074Y-76047761D01*
X200197582Y-75934681D01*
X200195200Y-75910497D01*
X200195200Y-75778305D01*
X200197581Y-75754124D01*
X200223369Y-75624474D01*
X200230419Y-75601234D01*
X200281007Y-75479103D01*
X200292462Y-75457672D01*
X200365899Y-75347765D01*
X200381310Y-75328987D01*
X200474783Y-75235514D01*
X200493562Y-75220102D01*
X200603475Y-75146659D01*
X200624903Y-75135206D01*
X200747024Y-75084623D01*
X200770285Y-75077567D01*
X200899920Y-75051782D01*
X200924110Y-75049400D01*
X201056288Y-75049400D01*
X201080478Y-75051782D01*
G37*
%TD.AperFunction*%
%TA.AperFunction,Conductor*%
G36*
X192787503Y-59732735D02*
G01*
X192820861Y-59778996D01*
X192864564Y-59884507D01*
X192864571Y-59884520D01*
X192974060Y-60048381D01*
X192974063Y-60048385D01*
X193113415Y-60187737D01*
X193113418Y-60187739D01*
X193241591Y-60273381D01*
X193286396Y-60326993D01*
X193296700Y-60376483D01*
X193296700Y-61273551D01*
X193296699Y-61273569D01*
X193296699Y-61400836D01*
X193313122Y-61462129D01*
X193327672Y-61516429D01*
X193327674Y-61516434D01*
X193387506Y-61620066D01*
X193387511Y-61620072D01*
X193479195Y-61711756D01*
X193479201Y-61711761D01*
X199021968Y-67254528D01*
X199021978Y-67254539D01*
X199026308Y-67258869D01*
X199026309Y-67258870D01*
X199110930Y-67343491D01*
X199214569Y-67403327D01*
X199330164Y-67434300D01*
X205805178Y-67434300D01*
X205872217Y-67453985D01*
X205892859Y-67470619D01*
X208249115Y-69826875D01*
X208282600Y-69888198D01*
X208283051Y-69938747D01*
X208245500Y-70127530D01*
X208245500Y-70334469D01*
X208285868Y-70537412D01*
X208285870Y-70537420D01*
X208351939Y-70696925D01*
X208365059Y-70728598D01*
X208378836Y-70749217D01*
X208480024Y-70900657D01*
X208626342Y-71046975D01*
X208798405Y-71161943D01*
X208901043Y-71204456D01*
X208963108Y-71230164D01*
X209017511Y-71274005D01*
X209039576Y-71340299D01*
X209022297Y-71407998D01*
X208971160Y-71455609D01*
X208953974Y-71462656D01*
X208777781Y-71519905D01*
X208588439Y-71616380D01*
X208534282Y-71655727D01*
X208534282Y-71655728D01*
X209166591Y-72288037D01*
X209103007Y-72305075D01*
X208988993Y-72370901D01*
X208895901Y-72463993D01*
X208830075Y-72578007D01*
X208813037Y-72641591D01*
X208180728Y-72009282D01*
X208180727Y-72009282D01*
X208141380Y-72063439D01*
X208044904Y-72252782D01*
X207979242Y-72454869D01*
X207979242Y-72454872D01*
X207946000Y-72664753D01*
X207946000Y-72877246D01*
X207979242Y-73087127D01*
X207979242Y-73087130D01*
X208044904Y-73289217D01*
X208141375Y-73478550D01*
X208180728Y-73532716D01*
X208813037Y-72900408D01*
X208830075Y-72963993D01*
X208895901Y-73078007D01*
X208988993Y-73171099D01*
X209103007Y-73236925D01*
X209166591Y-73253962D01*
X208565971Y-73854581D01*
X208644711Y-73971895D01*
X208645920Y-73975729D01*
X208648844Y-73978491D01*
X208656343Y-74008778D01*
X208665727Y-74038529D01*
X208664671Y-74042408D01*
X208665638Y-74046312D01*
X208655573Y-74075844D01*
X208647383Y-74105947D01*
X208644397Y-74108640D01*
X208643100Y-74112447D01*
X208598051Y-74151483D01*
X208588440Y-74156380D01*
X208534282Y-74195727D01*
X208534282Y-74195728D01*
X209166591Y-74828037D01*
X209103007Y-74845075D01*
X208988993Y-74910901D01*
X208895901Y-75003993D01*
X208830075Y-75118007D01*
X208813037Y-75181591D01*
X208180728Y-74549282D01*
X208180727Y-74549282D01*
X208141380Y-74603439D01*
X208044904Y-74792782D01*
X207979242Y-74994869D01*
X207979242Y-74994872D01*
X207946000Y-75204753D01*
X207946000Y-75417246D01*
X207979242Y-75627127D01*
X207979242Y-75627130D01*
X208045868Y-75832182D01*
X208047863Y-75902023D01*
X208011783Y-75961856D01*
X207949082Y-75992684D01*
X207927937Y-75994500D01*
X206535661Y-75994500D01*
X206468622Y-75974815D01*
X206422867Y-75922011D01*
X206411662Y-75870906D01*
X206411319Y-75766095D01*
X206403448Y-73363292D01*
X206401145Y-72660287D01*
X206388911Y-68925853D01*
X206388911Y-68925851D01*
X206388911Y-68925845D01*
X206384174Y-68882645D01*
X206373039Y-68831692D01*
X206370665Y-68821971D01*
X206327765Y-68741201D01*
X206327762Y-68741197D01*
X206282094Y-68688349D01*
X206282082Y-68688336D01*
X206264514Y-68670357D01*
X206264509Y-68670353D01*
X206184756Y-68625602D01*
X206184752Y-68625600D01*
X206117744Y-68605827D01*
X206117737Y-68605825D01*
X206067299Y-68598504D01*
X206059858Y-68597424D01*
X193935076Y-68581060D01*
X193935074Y-68581060D01*
X193935053Y-68581060D01*
X193927569Y-68581187D01*
X193918619Y-68581501D01*
X193918612Y-68581502D01*
X193854026Y-68594330D01*
X193854023Y-68594331D01*
X193788555Y-68618749D01*
X193765588Y-68628954D01*
X193765581Y-68628959D01*
X193696996Y-68687172D01*
X193633147Y-68715546D01*
X193564094Y-68704896D01*
X193529075Y-68680315D01*
X190279619Y-65430859D01*
X190264915Y-65403931D01*
X190248323Y-65378113D01*
X190247431Y-65371912D01*
X190246134Y-65369536D01*
X190243300Y-65343178D01*
X190243300Y-65236984D01*
X190262985Y-65169945D01*
X190315789Y-65124190D01*
X190384947Y-65114246D01*
X190448503Y-65143271D01*
X190454981Y-65149303D01*
X190573414Y-65267736D01*
X190573418Y-65267739D01*
X190737279Y-65377228D01*
X190737292Y-65377235D01*
X190864849Y-65430070D01*
X190919365Y-65452651D01*
X190919369Y-65452651D01*
X190919370Y-65452652D01*
X191112656Y-65491100D01*
X191112659Y-65491100D01*
X191309743Y-65491100D01*
X191439782Y-65465232D01*
X191503035Y-65452651D01*
X191685114Y-65377232D01*
X191848982Y-65267739D01*
X191988339Y-65128382D01*
X192097832Y-64964514D01*
X192173251Y-64782435D01*
X192198918Y-64653402D01*
X192211700Y-64589143D01*
X192211700Y-64392056D01*
X192181626Y-64240869D01*
X192187853Y-64171277D01*
X192215560Y-64128998D01*
X192396660Y-63947899D01*
X192396665Y-63947895D01*
X192406868Y-63937691D01*
X192406870Y-63937691D01*
X192491491Y-63853070D01*
X192551327Y-63749431D01*
X192574888Y-63661500D01*
X192582301Y-63633836D01*
X192582301Y-63514164D01*
X192582300Y-63514160D01*
X192582300Y-59826448D01*
X192601985Y-59759409D01*
X192654789Y-59713654D01*
X192723947Y-59703710D01*
X192787503Y-59732735D01*
G37*
%TD.AperFunction*%
%TA.AperFunction,Conductor*%
G36*
X211370075Y-72963993D02*
G01*
X211435901Y-73078007D01*
X211528993Y-73171099D01*
X211643007Y-73236925D01*
X211706590Y-73253962D01*
X211074282Y-73886269D01*
X211074282Y-73886270D01*
X211128452Y-73925626D01*
X211138048Y-73930516D01*
X211188844Y-73978491D01*
X211205638Y-74046312D01*
X211183100Y-74112447D01*
X211138051Y-74151483D01*
X211128440Y-74156380D01*
X211074282Y-74195727D01*
X211074282Y-74195728D01*
X211706591Y-74828037D01*
X211643007Y-74845075D01*
X211528993Y-74910901D01*
X211435901Y-75003993D01*
X211370075Y-75118007D01*
X211353037Y-75181591D01*
X210720728Y-74549282D01*
X210720727Y-74549282D01*
X210681380Y-74603440D01*
X210676483Y-74613051D01*
X210628506Y-74663845D01*
X210560684Y-74680638D01*
X210494550Y-74658098D01*
X210455516Y-74613048D01*
X210450626Y-74603452D01*
X210411270Y-74549282D01*
X210411269Y-74549282D01*
X209778962Y-75181589D01*
X209761925Y-75118007D01*
X209696099Y-75003993D01*
X209603007Y-74910901D01*
X209488993Y-74845075D01*
X209425409Y-74828037D01*
X210057716Y-74195728D01*
X210003550Y-74156375D01*
X209993954Y-74151486D01*
X209943157Y-74103512D01*
X209926361Y-74035692D01*
X209947288Y-73971895D01*
X210026027Y-73854581D01*
X209425408Y-73253962D01*
X209488993Y-73236925D01*
X209603007Y-73171099D01*
X209696099Y-73078007D01*
X209761925Y-72963993D01*
X209778962Y-72900408D01*
X210411270Y-73532717D01*
X210411270Y-73532716D01*
X210450622Y-73478554D01*
X210455514Y-73468954D01*
X210503488Y-73418157D01*
X210571308Y-73401361D01*
X210637444Y-73423897D01*
X210676486Y-73468954D01*
X210681375Y-73478550D01*
X210720728Y-73532716D01*
X211353037Y-72900408D01*
X211370075Y-72963993D01*
G37*
%TD.AperFunction*%
%TA.AperFunction,Conductor*%
G36*
X202087617Y-47083185D02*
G01*
X202108259Y-47099819D01*
X206006968Y-50998528D01*
X206006978Y-50998539D01*
X206011308Y-51002869D01*
X206011309Y-51002870D01*
X206095930Y-51087491D01*
X206145001Y-51115822D01*
X206196125Y-51145339D01*
X206199569Y-51147327D01*
X206223993Y-51153871D01*
X206223995Y-51153872D01*
X206223996Y-51153872D01*
X206254386Y-51162015D01*
X206315164Y-51178301D01*
X206315166Y-51178301D01*
X206442432Y-51178301D01*
X206442448Y-51178300D01*
X206883376Y-51178300D01*
X206950415Y-51197985D01*
X206996170Y-51250789D01*
X207006114Y-51319947D01*
X206977089Y-51383503D01*
X206971056Y-51389982D01*
X206914400Y-51446637D01*
X206853077Y-51480121D01*
X206802529Y-51480572D01*
X206651345Y-51450500D01*
X206651341Y-51450500D01*
X206454259Y-51450500D01*
X206454257Y-51450500D01*
X206260970Y-51488947D01*
X206260960Y-51488950D01*
X206078892Y-51564364D01*
X206078879Y-51564371D01*
X205915018Y-51673860D01*
X205915014Y-51673863D01*
X205775663Y-51813214D01*
X205775660Y-51813218D01*
X205666171Y-51977079D01*
X205666164Y-51977092D01*
X205590750Y-52159160D01*
X205590749Y-52159165D01*
X205552300Y-52352456D01*
X205552300Y-52352459D01*
X205552300Y-52549541D01*
X205552300Y-52549543D01*
X205552299Y-52549543D01*
X205590747Y-52742829D01*
X205590750Y-52742839D01*
X205666164Y-52924907D01*
X205666171Y-52924920D01*
X205775660Y-53088781D01*
X205775663Y-53088785D01*
X205915014Y-53228136D01*
X205915018Y-53228139D01*
X206078879Y-53337628D01*
X206078892Y-53337635D01*
X206260960Y-53413049D01*
X206260965Y-53413051D01*
X206260969Y-53413051D01*
X206260970Y-53413052D01*
X206454256Y-53451500D01*
X206454259Y-53451500D01*
X206651343Y-53451500D01*
X206781382Y-53425632D01*
X206844635Y-53413051D01*
X207026714Y-53337632D01*
X207190582Y-53228139D01*
X207329939Y-53088782D01*
X207439432Y-52924914D01*
X207514851Y-52742835D01*
X207540789Y-52612438D01*
X207553300Y-52549543D01*
X207553300Y-52352456D01*
X207523226Y-52201270D01*
X207523933Y-52193362D01*
X207521159Y-52185923D01*
X207527003Y-52159058D01*
X207529453Y-52131678D01*
X207534701Y-52123669D01*
X207536011Y-52117650D01*
X207557159Y-52089401D01*
X207644543Y-52002018D01*
X207705866Y-51968533D01*
X207732223Y-51965700D01*
X213323578Y-51965700D01*
X213390617Y-51985385D01*
X213411259Y-52002019D01*
X214443981Y-53034741D01*
X214477466Y-53096064D01*
X214480300Y-53122422D01*
X214480300Y-62746751D01*
X214480299Y-62746769D01*
X214480299Y-62874036D01*
X214491923Y-62917419D01*
X214491924Y-62917419D01*
X214491924Y-62917420D01*
X214499017Y-62943892D01*
X214511274Y-62989635D01*
X214571106Y-63093266D01*
X214571111Y-63093272D01*
X214662795Y-63184956D01*
X214662801Y-63184961D01*
X215917181Y-64439341D01*
X215950666Y-64500664D01*
X215953500Y-64527022D01*
X215953500Y-74244900D01*
X215933815Y-74311939D01*
X215881011Y-74357694D01*
X215829500Y-74368900D01*
X213077592Y-74368900D01*
X213033913Y-74373597D01*
X212982425Y-74384797D01*
X212972227Y-74387290D01*
X212972224Y-74387291D01*
X212891516Y-74430299D01*
X212891513Y-74430301D01*
X212838704Y-74476060D01*
X212820760Y-74493642D01*
X212820754Y-74493649D01*
X212776111Y-74573459D01*
X212776109Y-74573464D01*
X212756426Y-74640496D01*
X212748100Y-74698403D01*
X212748100Y-74701092D01*
X212747845Y-74701958D01*
X212747784Y-74702819D01*
X212747596Y-74702805D01*
X212728415Y-74768131D01*
X212711781Y-74788773D01*
X212318962Y-75181591D01*
X212301925Y-75118007D01*
X212236099Y-75003993D01*
X212143007Y-74910901D01*
X212028993Y-74845075D01*
X211965409Y-74828037D01*
X212597716Y-74195728D01*
X212543550Y-74156375D01*
X212533954Y-74151486D01*
X212483157Y-74103512D01*
X212466361Y-74035692D01*
X212488897Y-73969556D01*
X212533954Y-73930514D01*
X212543554Y-73925622D01*
X212597716Y-73886270D01*
X212597717Y-73886270D01*
X211965408Y-73253962D01*
X212028993Y-73236925D01*
X212143007Y-73171099D01*
X212236099Y-73078007D01*
X212301925Y-72963993D01*
X212318962Y-72900408D01*
X212951270Y-73532717D01*
X212951270Y-73532716D01*
X212990622Y-73478554D01*
X213087095Y-73289217D01*
X213152757Y-73087130D01*
X213152757Y-73087127D01*
X213186000Y-72877246D01*
X213186000Y-72664753D01*
X213152757Y-72454872D01*
X213152757Y-72454869D01*
X213087095Y-72252782D01*
X212990624Y-72063449D01*
X212951270Y-72009282D01*
X212951269Y-72009282D01*
X212318962Y-72641590D01*
X212301925Y-72578007D01*
X212236099Y-72463993D01*
X212143007Y-72370901D01*
X212028993Y-72305075D01*
X211965409Y-72288037D01*
X212597716Y-71655728D01*
X212543550Y-71616375D01*
X212533954Y-71611486D01*
X212483157Y-71563512D01*
X212466361Y-71495692D01*
X212488897Y-71429556D01*
X212533954Y-71390514D01*
X212543554Y-71385622D01*
X212597716Y-71346270D01*
X212597717Y-71346270D01*
X211965408Y-70713962D01*
X212028993Y-70696925D01*
X212143007Y-70631099D01*
X212236099Y-70538007D01*
X212301925Y-70423993D01*
X212318962Y-70360408D01*
X212951270Y-70992717D01*
X212951270Y-70992716D01*
X212990622Y-70938554D01*
X213087095Y-70749217D01*
X213152757Y-70547130D01*
X213152757Y-70547127D01*
X213186000Y-70337246D01*
X213186000Y-70124753D01*
X213152757Y-69914872D01*
X213152757Y-69914869D01*
X213087095Y-69712782D01*
X212990624Y-69523449D01*
X212951270Y-69469282D01*
X212951269Y-69469282D01*
X212318962Y-70101590D01*
X212301925Y-70038007D01*
X212236099Y-69923993D01*
X212143007Y-69830901D01*
X212028993Y-69765075D01*
X211965409Y-69748037D01*
X212597716Y-69115728D01*
X212543550Y-69076375D01*
X212533954Y-69071486D01*
X212483157Y-69023512D01*
X212466361Y-68955692D01*
X212488897Y-68889556D01*
X212533954Y-68850514D01*
X212543554Y-68845622D01*
X212597716Y-68806270D01*
X212597717Y-68806270D01*
X211965408Y-68173962D01*
X212028993Y-68156925D01*
X212143007Y-68091099D01*
X212236099Y-67998007D01*
X212301925Y-67883993D01*
X212318962Y-67820408D01*
X212951270Y-68452717D01*
X212951270Y-68452716D01*
X212990622Y-68398554D01*
X213087095Y-68209217D01*
X213152757Y-68007130D01*
X213152757Y-68007127D01*
X213186000Y-67797246D01*
X213186000Y-67584753D01*
X213152757Y-67374872D01*
X213152757Y-67374869D01*
X213087095Y-67172782D01*
X212990624Y-66983449D01*
X212951270Y-66929282D01*
X212951269Y-66929282D01*
X212318962Y-67561590D01*
X212301925Y-67498007D01*
X212236099Y-67383993D01*
X212143007Y-67290901D01*
X212028993Y-67225075D01*
X211965409Y-67208037D01*
X212597716Y-66575728D01*
X212543550Y-66536375D01*
X212533954Y-66531486D01*
X212483157Y-66483512D01*
X212466361Y-66415692D01*
X212488897Y-66349556D01*
X212533954Y-66310514D01*
X212543554Y-66305622D01*
X212597716Y-66266270D01*
X212597717Y-66266270D01*
X211965408Y-65633962D01*
X212028993Y-65616925D01*
X212143007Y-65551099D01*
X212236099Y-65458007D01*
X212301925Y-65343993D01*
X212318962Y-65280408D01*
X212951270Y-65912717D01*
X212951270Y-65912716D01*
X212990622Y-65858554D01*
X213087095Y-65669217D01*
X213152757Y-65467130D01*
X213152757Y-65467127D01*
X213186000Y-65257246D01*
X213186000Y-65044753D01*
X213152757Y-64834872D01*
X213152757Y-64834869D01*
X213087095Y-64632782D01*
X212990624Y-64443449D01*
X212951270Y-64389282D01*
X212951269Y-64389282D01*
X212318962Y-65021590D01*
X212301925Y-64958007D01*
X212236099Y-64843993D01*
X212143007Y-64750901D01*
X212028993Y-64685075D01*
X211965409Y-64668037D01*
X212597716Y-64035728D01*
X212543550Y-63996375D01*
X212533954Y-63991486D01*
X212483157Y-63943512D01*
X212466361Y-63875692D01*
X212488897Y-63809556D01*
X212533954Y-63770514D01*
X212543554Y-63765622D01*
X212597716Y-63726270D01*
X212597717Y-63726270D01*
X211965408Y-63093962D01*
X212028993Y-63076925D01*
X212143007Y-63011099D01*
X212236099Y-62918007D01*
X212301925Y-62803993D01*
X212318962Y-62740408D01*
X212951270Y-63372717D01*
X212951270Y-63372716D01*
X212990622Y-63318554D01*
X213087095Y-63129217D01*
X213152757Y-62927130D01*
X213152757Y-62927127D01*
X213186000Y-62717246D01*
X213186000Y-62504753D01*
X213152757Y-62294872D01*
X213152757Y-62294869D01*
X213087095Y-62092782D01*
X212990624Y-61903449D01*
X212951270Y-61849282D01*
X212951269Y-61849282D01*
X212318962Y-62481590D01*
X212301925Y-62418007D01*
X212236099Y-62303993D01*
X212143007Y-62210901D01*
X212028993Y-62145075D01*
X211965409Y-62128037D01*
X212597716Y-61495728D01*
X212543550Y-61456375D01*
X212533954Y-61451486D01*
X212483157Y-61403512D01*
X212466361Y-61335692D01*
X212488897Y-61269556D01*
X212533954Y-61230514D01*
X212543554Y-61225622D01*
X212597716Y-61186270D01*
X212597717Y-61186270D01*
X211965408Y-60553962D01*
X212028993Y-60536925D01*
X212143007Y-60471099D01*
X212236099Y-60378007D01*
X212301925Y-60263993D01*
X212318962Y-60200408D01*
X212951270Y-60832717D01*
X212951270Y-60832716D01*
X212990622Y-60778554D01*
X213087095Y-60589217D01*
X213152757Y-60387130D01*
X213152757Y-60387127D01*
X213186000Y-60177246D01*
X213186000Y-59964753D01*
X213152757Y-59754872D01*
X213152757Y-59754869D01*
X213087095Y-59552782D01*
X212990624Y-59363449D01*
X212951270Y-59309282D01*
X212951269Y-59309282D01*
X212318962Y-59941590D01*
X212301925Y-59878007D01*
X212236099Y-59763993D01*
X212143007Y-59670901D01*
X212028993Y-59605075D01*
X211965409Y-59588037D01*
X212597716Y-58955728D01*
X212543550Y-58916375D01*
X212533954Y-58911486D01*
X212483157Y-58863512D01*
X212466361Y-58795692D01*
X212488897Y-58729556D01*
X212533954Y-58690514D01*
X212543554Y-58685622D01*
X212597716Y-58646270D01*
X212597717Y-58646270D01*
X211965408Y-58013962D01*
X212028993Y-57996925D01*
X212143007Y-57931099D01*
X212236099Y-57838007D01*
X212301925Y-57723993D01*
X212318962Y-57660408D01*
X212951270Y-58292717D01*
X212951270Y-58292716D01*
X212990622Y-58238554D01*
X213087095Y-58049217D01*
X213152757Y-57847130D01*
X213152757Y-57847127D01*
X213186000Y-57637246D01*
X213186000Y-57424753D01*
X213152757Y-57214872D01*
X213152757Y-57214869D01*
X213087095Y-57012782D01*
X212990624Y-56823449D01*
X212951270Y-56769282D01*
X212951269Y-56769282D01*
X212318962Y-57401590D01*
X212301925Y-57338007D01*
X212236099Y-57223993D01*
X212143007Y-57130901D01*
X212028993Y-57065075D01*
X211965409Y-57048037D01*
X212597716Y-56415728D01*
X212543550Y-56376375D01*
X212533954Y-56371486D01*
X212483157Y-56323512D01*
X212466361Y-56255692D01*
X212488897Y-56189556D01*
X212533954Y-56150514D01*
X212543554Y-56145622D01*
X212597716Y-56106270D01*
X212597717Y-56106270D01*
X211965408Y-55473962D01*
X212028993Y-55456925D01*
X212143007Y-55391099D01*
X212236099Y-55298007D01*
X212301925Y-55183993D01*
X212318962Y-55120408D01*
X212951270Y-55752717D01*
X212951270Y-55752716D01*
X212990622Y-55698554D01*
X213087095Y-55509217D01*
X213152757Y-55307130D01*
X213152757Y-55307127D01*
X213186000Y-55097246D01*
X213186000Y-54884753D01*
X213152757Y-54674872D01*
X213152757Y-54674869D01*
X213087095Y-54472782D01*
X212990624Y-54283449D01*
X212951270Y-54229282D01*
X212951269Y-54229282D01*
X212318962Y-54861590D01*
X212301925Y-54798007D01*
X212236099Y-54683993D01*
X212143007Y-54590901D01*
X212028993Y-54525075D01*
X211965409Y-54508037D01*
X212597716Y-53875728D01*
X212543550Y-53836375D01*
X212354217Y-53739904D01*
X212152129Y-53674242D01*
X211942246Y-53641000D01*
X211729754Y-53641000D01*
X211519872Y-53674242D01*
X211519869Y-53674242D01*
X211317782Y-53739904D01*
X211128439Y-53836380D01*
X211074282Y-53875727D01*
X211074282Y-53875728D01*
X211706591Y-54508037D01*
X211643007Y-54525075D01*
X211528993Y-54590901D01*
X211435901Y-54683993D01*
X211370075Y-54798007D01*
X211353037Y-54861591D01*
X210720728Y-54229282D01*
X210720727Y-54229282D01*
X210681380Y-54283439D01*
X210582694Y-54477121D01*
X210581678Y-54476603D01*
X210541212Y-54526813D01*
X210474916Y-54548872D01*
X210407218Y-54531588D01*
X210359612Y-54480447D01*
X210346500Y-54424951D01*
X210346500Y-54121249D01*
X210346499Y-54121247D01*
X210334868Y-54062770D01*
X210334867Y-54062769D01*
X210290552Y-53996447D01*
X210224230Y-53952132D01*
X210224229Y-53952131D01*
X210165752Y-53940500D01*
X210165748Y-53940500D01*
X208426252Y-53940500D01*
X208426247Y-53940500D01*
X208367770Y-53952131D01*
X208367769Y-53952132D01*
X208301447Y-53996447D01*
X208257132Y-54062769D01*
X208257131Y-54062770D01*
X208245500Y-54121247D01*
X208245500Y-54412500D01*
X208225815Y-54479539D01*
X208173011Y-54525294D01*
X208121500Y-54536500D01*
X204486648Y-54536500D01*
X204486632Y-54536499D01*
X204479036Y-54536499D01*
X204359364Y-54536499D01*
X204333905Y-54543320D01*
X204286397Y-54556050D01*
X204286397Y-54556051D01*
X204243769Y-54567473D01*
X204243768Y-54567473D01*
X204243766Y-54567474D01*
X204140133Y-54627307D01*
X204140127Y-54627311D01*
X201820311Y-56947127D01*
X201820306Y-56947133D01*
X201760474Y-57050765D01*
X201760471Y-57050771D01*
X201758890Y-57056671D01*
X201758891Y-57056672D01*
X201729499Y-57166364D01*
X201729499Y-57296025D01*
X201729500Y-57296038D01*
X201729500Y-60924853D01*
X201709815Y-60991892D01*
X201657011Y-61037647D01*
X201587853Y-61047591D01*
X201524297Y-61018566D01*
X201517933Y-61012038D01*
X201517647Y-61012325D01*
X201373985Y-60868663D01*
X201373981Y-60868660D01*
X201245809Y-60783018D01*
X201201004Y-60729406D01*
X201190700Y-60679916D01*
X201190700Y-57262621D01*
X201210385Y-57195582D01*
X201227014Y-57174945D01*
X202808460Y-55593498D01*
X202808465Y-55593495D01*
X202818668Y-55583291D01*
X202818670Y-55583291D01*
X202903291Y-55498670D01*
X202963127Y-55395031D01*
X202973936Y-55354691D01*
X202994101Y-55279436D01*
X202994101Y-55159764D01*
X202994101Y-55152169D01*
X202994100Y-55152151D01*
X202994100Y-49879238D01*
X202994101Y-49879225D01*
X202994101Y-49749565D01*
X202993772Y-49748339D01*
X202963127Y-49633970D01*
X202963127Y-49633969D01*
X202963127Y-49633968D01*
X202936744Y-49588272D01*
X202903291Y-49530330D01*
X202818670Y-49445709D01*
X202818669Y-49445708D01*
X202814339Y-49441378D01*
X202814328Y-49441368D01*
X200806868Y-47433908D01*
X200795092Y-47422132D01*
X200795091Y-47422130D01*
X200710470Y-47337509D01*
X200628335Y-47290088D01*
X200620858Y-47284065D01*
X200606183Y-47262938D01*
X200588431Y-47244320D01*
X200586579Y-47234714D01*
X200580999Y-47226680D01*
X200580076Y-47200968D01*
X200575209Y-47175713D01*
X200578843Y-47166633D01*
X200578493Y-47156855D01*
X200591617Y-47134725D01*
X200601177Y-47110848D01*
X200609144Y-47105174D01*
X200614135Y-47096760D01*
X200637138Y-47085240D01*
X200658091Y-47070320D01*
X200671401Y-47068081D01*
X200676609Y-47065474D01*
X200682895Y-47066148D01*
X200698647Y-47063500D01*
X202020578Y-47063500D01*
X202087617Y-47083185D01*
G37*
%TD.AperFunction*%
%TA.AperFunction,Conductor*%
G36*
X211370075Y-70423993D02*
G01*
X211435901Y-70538007D01*
X211528993Y-70631099D01*
X211643007Y-70696925D01*
X211706590Y-70713962D01*
X211074282Y-71346269D01*
X211074282Y-71346270D01*
X211128452Y-71385626D01*
X211138048Y-71390516D01*
X211188844Y-71438491D01*
X211205638Y-71506312D01*
X211183100Y-71572447D01*
X211138051Y-71611483D01*
X211128440Y-71616380D01*
X211074282Y-71655727D01*
X211074282Y-71655728D01*
X211706591Y-72288037D01*
X211643007Y-72305075D01*
X211528993Y-72370901D01*
X211435901Y-72463993D01*
X211370075Y-72578007D01*
X211353037Y-72641591D01*
X210720728Y-72009282D01*
X210720727Y-72009282D01*
X210681380Y-72063440D01*
X210676483Y-72073051D01*
X210628506Y-72123845D01*
X210560684Y-72140638D01*
X210494550Y-72118098D01*
X210455516Y-72073048D01*
X210450626Y-72063452D01*
X210411270Y-72009282D01*
X210411269Y-72009282D01*
X209778962Y-72641590D01*
X209761925Y-72578007D01*
X209696099Y-72463993D01*
X209603007Y-72370901D01*
X209488993Y-72305075D01*
X209425409Y-72288037D01*
X210057716Y-71655728D01*
X210003550Y-71616375D01*
X209814216Y-71519904D01*
X209638026Y-71462656D01*
X209615858Y-71447498D01*
X209591848Y-71435479D01*
X209587456Y-71428077D01*
X209580350Y-71423218D01*
X209569895Y-71398479D01*
X209556196Y-71375390D01*
X209556503Y-71366789D01*
X209553152Y-71358860D01*
X209557731Y-71332398D01*
X209558690Y-71305565D01*
X209563599Y-71298494D01*
X209565067Y-71290013D01*
X209583222Y-71270231D01*
X209598538Y-71248173D01*
X209609361Y-71241751D01*
X209612311Y-71238538D01*
X209628882Y-71230168D01*
X209793598Y-71161941D01*
X209965655Y-71046977D01*
X210111977Y-70900655D01*
X210226941Y-70728598D01*
X210295165Y-70563889D01*
X210339004Y-70509488D01*
X210405298Y-70487423D01*
X210472998Y-70504702D01*
X210520609Y-70555839D01*
X210527656Y-70573026D01*
X210584904Y-70749216D01*
X210681375Y-70938550D01*
X210720728Y-70992716D01*
X211353037Y-70360408D01*
X211370075Y-70423993D01*
G37*
%TD.AperFunction*%
%TA.AperFunction,Conductor*%
G36*
X207523217Y-66564985D02*
G01*
X207543859Y-66581619D01*
X208249115Y-67286875D01*
X208282600Y-67348198D01*
X208283051Y-67398747D01*
X208245500Y-67587530D01*
X208245500Y-67794469D01*
X208285868Y-67997412D01*
X208285870Y-67997420D01*
X208359619Y-68175466D01*
X208365059Y-68188598D01*
X208378836Y-68209217D01*
X208480024Y-68360657D01*
X208626342Y-68506975D01*
X208626345Y-68506977D01*
X208798402Y-68621941D01*
X208989580Y-68701130D01*
X209138853Y-68730822D01*
X209192530Y-68741499D01*
X209192534Y-68741500D01*
X209192535Y-68741500D01*
X209399466Y-68741500D01*
X209399467Y-68741499D01*
X209602420Y-68701130D01*
X209793598Y-68621941D01*
X209965655Y-68506977D01*
X210111977Y-68360655D01*
X210226941Y-68188598D01*
X210295165Y-68023889D01*
X210339004Y-67969488D01*
X210405298Y-67947423D01*
X210472998Y-67964702D01*
X210520609Y-68015839D01*
X210527656Y-68033026D01*
X210584904Y-68209216D01*
X210681375Y-68398550D01*
X210720728Y-68452716D01*
X211353037Y-67820408D01*
X211370075Y-67883993D01*
X211435901Y-67998007D01*
X211528993Y-68091099D01*
X211643007Y-68156925D01*
X211706591Y-68173962D01*
X211105971Y-68774581D01*
X211184711Y-68891895D01*
X211185920Y-68895729D01*
X211188844Y-68898491D01*
X211196343Y-68928778D01*
X211205727Y-68958529D01*
X211204671Y-68962408D01*
X211205638Y-68966312D01*
X211195573Y-68995844D01*
X211187383Y-69025947D01*
X211184397Y-69028640D01*
X211183100Y-69032447D01*
X211138051Y-69071483D01*
X211128440Y-69076380D01*
X211074282Y-69115727D01*
X211074282Y-69115728D01*
X211706591Y-69748037D01*
X211643007Y-69765075D01*
X211528993Y-69830901D01*
X211435901Y-69923993D01*
X211370075Y-70038007D01*
X211353037Y-70101591D01*
X210720728Y-69469282D01*
X210720727Y-69469282D01*
X210681380Y-69523439D01*
X210584905Y-69712781D01*
X210527656Y-69888974D01*
X210488218Y-69946649D01*
X210423859Y-69973847D01*
X210355013Y-69961932D01*
X210303537Y-69914688D01*
X210295164Y-69898107D01*
X210288277Y-69881481D01*
X210265659Y-69826875D01*
X210226943Y-69733405D01*
X210111975Y-69561342D01*
X209965657Y-69415024D01*
X209879626Y-69357541D01*
X209793598Y-69300059D01*
X209602420Y-69220870D01*
X209602412Y-69220868D01*
X209399469Y-69180500D01*
X209399465Y-69180500D01*
X209192535Y-69180500D01*
X209192530Y-69180500D01*
X209003747Y-69218051D01*
X208934155Y-69211824D01*
X208891875Y-69184115D01*
X206464741Y-66756981D01*
X206431256Y-66695658D01*
X206436240Y-66625966D01*
X206478112Y-66570033D01*
X206543576Y-66545616D01*
X206552422Y-66545300D01*
X207456178Y-66545300D01*
X207523217Y-66564985D01*
G37*
%TD.AperFunction*%
%TA.AperFunction,Conductor*%
G36*
X194502659Y-48175385D02*
G01*
X194548414Y-48228189D01*
X194558358Y-48297347D01*
X194538722Y-48348591D01*
X194439371Y-48497279D01*
X194439364Y-48497292D01*
X194363950Y-48679360D01*
X194363947Y-48679370D01*
X194325500Y-48872656D01*
X194325500Y-49069745D01*
X194355954Y-49222847D01*
X194349727Y-49292438D01*
X194306864Y-49347616D01*
X194240974Y-49370860D01*
X194210147Y-49368656D01*
X194205341Y-49367700D01*
X194008259Y-49367700D01*
X194008257Y-49367700D01*
X193814970Y-49406147D01*
X193814960Y-49406150D01*
X193632892Y-49481564D01*
X193632879Y-49481571D01*
X193469018Y-49591060D01*
X193469014Y-49591063D01*
X193329663Y-49730414D01*
X193329660Y-49730418D01*
X193220171Y-49894279D01*
X193220164Y-49894292D01*
X193144750Y-50076360D01*
X193144747Y-50076370D01*
X193106300Y-50269656D01*
X193106300Y-50269659D01*
X193106300Y-50466741D01*
X193106300Y-50466743D01*
X193106299Y-50466743D01*
X193136373Y-50617928D01*
X193130146Y-50687520D01*
X193102437Y-50729801D01*
X192075132Y-51757107D01*
X191990511Y-51841727D01*
X191990507Y-51841733D01*
X191930672Y-51945368D01*
X191930673Y-51945368D01*
X191930673Y-51945369D01*
X191930673Y-51945370D01*
X191903996Y-52044930D01*
X191899699Y-52060965D01*
X191899699Y-52190625D01*
X191899700Y-52190638D01*
X191899700Y-53303577D01*
X191880015Y-53370616D01*
X191863381Y-53391258D01*
X190170259Y-55084381D01*
X190108936Y-55117866D01*
X190082578Y-55120700D01*
X188535448Y-55120700D01*
X188535432Y-55120699D01*
X188527836Y-55120699D01*
X188408164Y-55120699D01*
X188316997Y-55145127D01*
X188307518Y-55147666D01*
X188292570Y-55151672D01*
X188292565Y-55151674D01*
X188188933Y-55211506D01*
X188188927Y-55211511D01*
X187037511Y-56362927D01*
X187037507Y-56362933D01*
X186977674Y-56466565D01*
X186977673Y-56466569D01*
X186977673Y-56466570D01*
X186946699Y-56582164D01*
X186946699Y-56582165D01*
X186946699Y-56711825D01*
X186946700Y-56711838D01*
X186946700Y-67394951D01*
X186946699Y-67394969D01*
X186946699Y-67522235D01*
X186964195Y-67587534D01*
X186977672Y-67637829D01*
X186977674Y-67637834D01*
X187037506Y-67741466D01*
X187037511Y-67741472D01*
X187129195Y-67833156D01*
X187129201Y-67833161D01*
X187631445Y-68335405D01*
X187664930Y-68396728D01*
X187659946Y-68466420D01*
X187618074Y-68522353D01*
X187552610Y-68546770D01*
X187519573Y-68544703D01*
X187332345Y-68507461D01*
X187332341Y-68507461D01*
X187135259Y-68507461D01*
X187135256Y-68507461D01*
X186984069Y-68537534D01*
X186914478Y-68531307D01*
X186872197Y-68503598D01*
X184898600Y-66530001D01*
X184898598Y-66529998D01*
X184806911Y-66438311D01*
X184806909Y-66438309D01*
X184703272Y-66378474D01*
X184703271Y-66378473D01*
X184680323Y-66372324D01*
X184680320Y-66372323D01*
X184671163Y-66369870D01*
X184587675Y-66347499D01*
X184468003Y-66347499D01*
X184467999Y-66347500D01*
X182509083Y-66347500D01*
X182442044Y-66327815D01*
X182405982Y-66292392D01*
X182320339Y-66164218D01*
X182320337Y-66164215D01*
X182180985Y-66024863D01*
X182180981Y-66024860D01*
X182017120Y-65915371D01*
X182017107Y-65915364D01*
X181835039Y-65839950D01*
X181835029Y-65839947D01*
X181641743Y-65801500D01*
X181641741Y-65801500D01*
X181444659Y-65801500D01*
X181444657Y-65801500D01*
X181251370Y-65839947D01*
X181251360Y-65839950D01*
X181069292Y-65915364D01*
X181069279Y-65915371D01*
X180936591Y-66004031D01*
X180869913Y-66024909D01*
X180802533Y-66006424D01*
X180755843Y-65954445D01*
X180743700Y-65900929D01*
X180743700Y-63079221D01*
X180763385Y-63012182D01*
X180780014Y-62991545D01*
X182797798Y-60973760D01*
X182859119Y-60940277D01*
X182909668Y-60939826D01*
X182911936Y-60940277D01*
X183060856Y-60969900D01*
X183060859Y-60969900D01*
X183257943Y-60969900D01*
X183406864Y-60940277D01*
X183451235Y-60931451D01*
X183633314Y-60856032D01*
X183797182Y-60746539D01*
X183936539Y-60607182D01*
X184046032Y-60443314D01*
X184121451Y-60261235D01*
X184144455Y-60145587D01*
X184159900Y-60067943D01*
X184159900Y-59870856D01*
X184121452Y-59677570D01*
X184121451Y-59677569D01*
X184121451Y-59677565D01*
X184116218Y-59664931D01*
X184046035Y-59495492D01*
X184046028Y-59495479D01*
X183936539Y-59331618D01*
X183936536Y-59331614D01*
X183797185Y-59192263D01*
X183797181Y-59192260D01*
X183633320Y-59082771D01*
X183633307Y-59082764D01*
X183451239Y-59007350D01*
X183451229Y-59007347D01*
X183257943Y-58968900D01*
X183257941Y-58968900D01*
X183060859Y-58968900D01*
X183060854Y-58968900D01*
X182972691Y-58986437D01*
X182903100Y-58980210D01*
X182847922Y-58937347D01*
X182824678Y-58871457D01*
X182840746Y-58803460D01*
X182860815Y-58777143D01*
X183504460Y-58133499D01*
X183504465Y-58133495D01*
X183514668Y-58123291D01*
X183514670Y-58123291D01*
X183599291Y-58038670D01*
X183659127Y-57935031D01*
X183669936Y-57894691D01*
X183690101Y-57819436D01*
X183690101Y-57699764D01*
X183690101Y-57692169D01*
X183690100Y-57692151D01*
X183690100Y-52843022D01*
X183709785Y-52775983D01*
X183726419Y-52755341D01*
X188289741Y-48192019D01*
X188351064Y-48158534D01*
X188377422Y-48155700D01*
X194435620Y-48155700D01*
X194502659Y-48175385D01*
G37*
%TD.AperFunction*%
%TA.AperFunction,Conductor*%
G36*
X211370075Y-65343993D02*
G01*
X211435901Y-65458007D01*
X211528993Y-65551099D01*
X211643007Y-65616925D01*
X211706591Y-65633962D01*
X211105971Y-66234581D01*
X211184711Y-66351895D01*
X211185920Y-66355729D01*
X211188844Y-66358491D01*
X211196343Y-66388778D01*
X211205727Y-66418529D01*
X211204671Y-66422408D01*
X211205638Y-66426312D01*
X211195573Y-66455844D01*
X211187383Y-66485947D01*
X211184397Y-66488640D01*
X211183100Y-66492447D01*
X211138051Y-66531483D01*
X211128440Y-66536380D01*
X211074282Y-66575727D01*
X211074282Y-66575728D01*
X211706591Y-67208037D01*
X211643007Y-67225075D01*
X211528993Y-67290901D01*
X211435901Y-67383993D01*
X211370075Y-67498007D01*
X211353037Y-67561591D01*
X210720728Y-66929282D01*
X210720727Y-66929282D01*
X210681380Y-66983439D01*
X210584905Y-67172781D01*
X210527656Y-67348974D01*
X210488218Y-67406649D01*
X210423859Y-67433847D01*
X210355013Y-67421932D01*
X210303537Y-67374688D01*
X210295164Y-67358107D01*
X210289110Y-67343492D01*
X210260384Y-67274140D01*
X210226943Y-67193405D01*
X210111975Y-67021342D01*
X209965657Y-66875024D01*
X209879626Y-66817541D01*
X209793598Y-66760059D01*
X209602420Y-66680870D01*
X209602412Y-66680868D01*
X209399469Y-66640500D01*
X209399465Y-66640500D01*
X209192535Y-66640500D01*
X209192530Y-66640500D01*
X209003747Y-66678051D01*
X208934155Y-66671824D01*
X208891875Y-66644115D01*
X208066534Y-65818774D01*
X208064915Y-65817154D01*
X208054319Y-65797735D01*
X208051068Y-65799903D01*
X208051066Y-65799900D01*
X208054317Y-65797732D01*
X208048145Y-65786420D01*
X208031457Y-65755858D01*
X208031458Y-65755838D01*
X208031449Y-65755821D01*
X208033855Y-65722315D01*
X208036441Y-65686166D01*
X208036453Y-65686149D01*
X208036455Y-65686131D01*
X208056912Y-65658820D01*
X208078313Y-65630233D01*
X208078330Y-65630226D01*
X208078343Y-65630210D01*
X208111986Y-65617673D01*
X208143777Y-65605816D01*
X208143810Y-65605814D01*
X208143815Y-65605813D01*
X208143821Y-65605814D01*
X208152623Y-65605500D01*
X208269982Y-65605500D01*
X208337021Y-65625185D01*
X208373084Y-65660610D01*
X208480019Y-65820650D01*
X208480025Y-65820658D01*
X208626342Y-65966975D01*
X208626345Y-65966977D01*
X208798402Y-66081941D01*
X208989580Y-66161130D01*
X209173346Y-66197683D01*
X209192530Y-66201499D01*
X209192534Y-66201500D01*
X209192535Y-66201500D01*
X209399466Y-66201500D01*
X209399467Y-66201499D01*
X209602420Y-66161130D01*
X209793598Y-66081941D01*
X209965655Y-65966977D01*
X210111977Y-65820655D01*
X210226941Y-65648598D01*
X210295165Y-65483889D01*
X210339004Y-65429488D01*
X210405298Y-65407423D01*
X210472998Y-65424702D01*
X210520609Y-65475839D01*
X210527656Y-65493026D01*
X210584904Y-65669216D01*
X210681375Y-65858550D01*
X210720728Y-65912716D01*
X211353037Y-65280408D01*
X211370075Y-65343993D01*
G37*
%TD.AperFunction*%
%TA.AperFunction,Conductor*%
G36*
X195874956Y-56557385D02*
G01*
X195911017Y-56592807D01*
X195967474Y-56677300D01*
X195996662Y-56720984D01*
X196136014Y-56860336D01*
X196136018Y-56860339D01*
X196299879Y-56969828D01*
X196299892Y-56969835D01*
X196472035Y-57041138D01*
X196481965Y-57045251D01*
X196481969Y-57045251D01*
X196481970Y-57045252D01*
X196675256Y-57083700D01*
X196675259Y-57083700D01*
X196872343Y-57083700D01*
X197008223Y-57056671D01*
X197065635Y-57045251D01*
X197247714Y-56969832D01*
X197411582Y-56860339D01*
X197550939Y-56720982D01*
X197590798Y-56661329D01*
X197644410Y-56616524D01*
X197713735Y-56607817D01*
X197776762Y-56637971D01*
X197813482Y-56697414D01*
X197817900Y-56730220D01*
X197817900Y-61400551D01*
X197817899Y-61400569D01*
X197817899Y-61408164D01*
X197817899Y-61527836D01*
X197823103Y-61547256D01*
X197837469Y-61600870D01*
X197848873Y-61643432D01*
X197848874Y-61643433D01*
X197908709Y-61747070D01*
X197908711Y-61747072D01*
X198000395Y-61838756D01*
X198000401Y-61838761D01*
X199610507Y-63448867D01*
X199610509Y-63448870D01*
X199695130Y-63533491D01*
X199754967Y-63568037D01*
X199798770Y-63593328D01*
X199914364Y-63624301D01*
X199914366Y-63624301D01*
X200041632Y-63624301D01*
X200041648Y-63624300D01*
X204316917Y-63624300D01*
X204383956Y-63643985D01*
X204420017Y-63679407D01*
X204466807Y-63749433D01*
X204505662Y-63807584D01*
X204645014Y-63946936D01*
X204645018Y-63946939D01*
X204808879Y-64056428D01*
X204808892Y-64056435D01*
X204942958Y-64111966D01*
X204990965Y-64131851D01*
X204990969Y-64131851D01*
X204990970Y-64131852D01*
X205184256Y-64170300D01*
X205184259Y-64170300D01*
X205381343Y-64170300D01*
X205529304Y-64140868D01*
X205574635Y-64131851D01*
X205756714Y-64056432D01*
X205920582Y-63946939D01*
X206059939Y-63807582D01*
X206169432Y-63643714D01*
X206177474Y-63624300D01*
X206190303Y-63593327D01*
X206244851Y-63461635D01*
X206274100Y-63314591D01*
X206283300Y-63268343D01*
X206283300Y-63071256D01*
X206244852Y-62877970D01*
X206244851Y-62877969D01*
X206244851Y-62877965D01*
X206204175Y-62779764D01*
X206169435Y-62695892D01*
X206169428Y-62695879D01*
X206085541Y-62570334D01*
X206085540Y-62570333D01*
X206068729Y-62545174D01*
X206059939Y-62532018D01*
X206059937Y-62532015D01*
X205920585Y-62392663D01*
X205920581Y-62392660D01*
X205756720Y-62283171D01*
X205756707Y-62283164D01*
X205574639Y-62207750D01*
X205574629Y-62207747D01*
X205381343Y-62169300D01*
X205381341Y-62169300D01*
X205184259Y-62169300D01*
X205184257Y-62169300D01*
X204990970Y-62207747D01*
X204990960Y-62207750D01*
X204808892Y-62283164D01*
X204808879Y-62283171D01*
X204645018Y-62392660D01*
X204645014Y-62392663D01*
X204505662Y-62532015D01*
X204455673Y-62606829D01*
X204420018Y-62660191D01*
X204366407Y-62704996D01*
X204316917Y-62715300D01*
X203326407Y-62715300D01*
X203259368Y-62695615D01*
X203213613Y-62642811D01*
X203203669Y-62573653D01*
X203232694Y-62510097D01*
X203257516Y-62488198D01*
X203308272Y-62454283D01*
X203355182Y-62422939D01*
X203494539Y-62283582D01*
X203604032Y-62119714D01*
X203606647Y-62113402D01*
X203621121Y-62078455D01*
X203679451Y-61937635D01*
X203697026Y-61849282D01*
X203717900Y-61744343D01*
X203717900Y-61547256D01*
X203679452Y-61353970D01*
X203679451Y-61353969D01*
X203679451Y-61353965D01*
X203652058Y-61287831D01*
X203601906Y-61166752D01*
X203594437Y-61097283D01*
X203625712Y-61034804D01*
X203685801Y-60999152D01*
X203716467Y-60995300D01*
X203730343Y-60995300D01*
X203899710Y-60961610D01*
X203923635Y-60956851D01*
X204105714Y-60881432D01*
X204269582Y-60771939D01*
X204408939Y-60632582D01*
X204518432Y-60468714D01*
X204593851Y-60286635D01*
X204624733Y-60131376D01*
X204657116Y-60069470D01*
X204658618Y-60067941D01*
X206704741Y-58021819D01*
X206766064Y-57988334D01*
X206792422Y-57985500D01*
X208269982Y-57985500D01*
X208337021Y-58005185D01*
X208373084Y-58040610D01*
X208480019Y-58200650D01*
X208480025Y-58200658D01*
X208626342Y-58346975D01*
X208626345Y-58346977D01*
X208798402Y-58461941D01*
X208989580Y-58541130D01*
X209148445Y-58572730D01*
X209192530Y-58581499D01*
X209192534Y-58581500D01*
X209192535Y-58581500D01*
X209399466Y-58581500D01*
X209399467Y-58581499D01*
X209602420Y-58541130D01*
X209793598Y-58461941D01*
X209965655Y-58346977D01*
X210111977Y-58200655D01*
X210226941Y-58028598D01*
X210295165Y-57863889D01*
X210339004Y-57809488D01*
X210405298Y-57787423D01*
X210472998Y-57804702D01*
X210520609Y-57855839D01*
X210527656Y-57873026D01*
X210584904Y-58049216D01*
X210681375Y-58238550D01*
X210720728Y-58292716D01*
X211353037Y-57660408D01*
X211370075Y-57723993D01*
X211435901Y-57838007D01*
X211528993Y-57931099D01*
X211643007Y-57996925D01*
X211706591Y-58013962D01*
X211105971Y-58614581D01*
X211184711Y-58731895D01*
X211185920Y-58735729D01*
X211188844Y-58738491D01*
X211196343Y-58768778D01*
X211205727Y-58798529D01*
X211204671Y-58802408D01*
X211205638Y-58806312D01*
X211195573Y-58835844D01*
X211187383Y-58865947D01*
X211184397Y-58868640D01*
X211183100Y-58872447D01*
X211138051Y-58911483D01*
X211128440Y-58916380D01*
X211074282Y-58955727D01*
X211074282Y-58955728D01*
X211706591Y-59588037D01*
X211643007Y-59605075D01*
X211528993Y-59670901D01*
X211435901Y-59763993D01*
X211370075Y-59878007D01*
X211353037Y-59941591D01*
X210720728Y-59309282D01*
X210720727Y-59309282D01*
X210681380Y-59363439D01*
X210584905Y-59552781D01*
X210527656Y-59728974D01*
X210488218Y-59786649D01*
X210423859Y-59813847D01*
X210355013Y-59801932D01*
X210303537Y-59754688D01*
X210295164Y-59738107D01*
X210285035Y-59713654D01*
X210252880Y-59636023D01*
X210226943Y-59573405D01*
X210111975Y-59401342D01*
X209965657Y-59255024D01*
X209824461Y-59160681D01*
X209793598Y-59140059D01*
X209771252Y-59130803D01*
X209602420Y-59060870D01*
X209602412Y-59060868D01*
X209399469Y-59020500D01*
X209399465Y-59020500D01*
X209192535Y-59020500D01*
X209192530Y-59020500D01*
X208989587Y-59060868D01*
X208989579Y-59060870D01*
X208798403Y-59140058D01*
X208626342Y-59255024D01*
X208480024Y-59401342D01*
X208365058Y-59573403D01*
X208285870Y-59764579D01*
X208285868Y-59764587D01*
X208245500Y-59967530D01*
X208245500Y-60174469D01*
X208285868Y-60377412D01*
X208285870Y-60377420D01*
X208359619Y-60555466D01*
X208365059Y-60568598D01*
X208416309Y-60645300D01*
X208480024Y-60740657D01*
X208626342Y-60886975D01*
X208626345Y-60886977D01*
X208798402Y-61001941D01*
X208989580Y-61081130D01*
X209192530Y-61121499D01*
X209192534Y-61121500D01*
X209192535Y-61121500D01*
X209399466Y-61121500D01*
X209399467Y-61121499D01*
X209602420Y-61081130D01*
X209793598Y-61001941D01*
X209965655Y-60886977D01*
X210111977Y-60740655D01*
X210226941Y-60568598D01*
X210295165Y-60403889D01*
X210339004Y-60349488D01*
X210405298Y-60327423D01*
X210472998Y-60344702D01*
X210520609Y-60395839D01*
X210527656Y-60413026D01*
X210584904Y-60589216D01*
X210681375Y-60778550D01*
X210720728Y-60832716D01*
X211353037Y-60200408D01*
X211370075Y-60263993D01*
X211435901Y-60378007D01*
X211528993Y-60471099D01*
X211643007Y-60536925D01*
X211706591Y-60553962D01*
X211105971Y-61154581D01*
X211184711Y-61271895D01*
X211185920Y-61275729D01*
X211188844Y-61278491D01*
X211196343Y-61308778D01*
X211205727Y-61338529D01*
X211204671Y-61342408D01*
X211205638Y-61346312D01*
X211195573Y-61375844D01*
X211187383Y-61405947D01*
X211184397Y-61408640D01*
X211183100Y-61412447D01*
X211138051Y-61451483D01*
X211128440Y-61456380D01*
X211074282Y-61495727D01*
X211074282Y-61495728D01*
X211706591Y-62128037D01*
X211643007Y-62145075D01*
X211528993Y-62210901D01*
X211435901Y-62303993D01*
X211370075Y-62418007D01*
X211353037Y-62481591D01*
X210720728Y-61849282D01*
X210720727Y-61849282D01*
X210681380Y-61903439D01*
X210584905Y-62092781D01*
X210527656Y-62268974D01*
X210488218Y-62326649D01*
X210423859Y-62353847D01*
X210355013Y-62341932D01*
X210303537Y-62294688D01*
X210295164Y-62278107D01*
X210275354Y-62230282D01*
X210267327Y-62210901D01*
X210226943Y-62113405D01*
X210111975Y-61941342D01*
X209965657Y-61795024D01*
X209830464Y-61704692D01*
X209793598Y-61680059D01*
X209710093Y-61645470D01*
X209602420Y-61600870D01*
X209602412Y-61600868D01*
X209399469Y-61560500D01*
X209399465Y-61560500D01*
X209192535Y-61560500D01*
X209192530Y-61560500D01*
X208989587Y-61600868D01*
X208989579Y-61600870D01*
X208798403Y-61680058D01*
X208626342Y-61795024D01*
X208480024Y-61941342D01*
X208365058Y-62113403D01*
X208285870Y-62304579D01*
X208285868Y-62304587D01*
X208245500Y-62507530D01*
X208245500Y-62714469D01*
X208284282Y-62909438D01*
X208285870Y-62917420D01*
X208296835Y-62943892D01*
X208352890Y-63079221D01*
X208365059Y-63108598D01*
X208416079Y-63184956D01*
X208480024Y-63280657D01*
X208626342Y-63426975D01*
X208626345Y-63426977D01*
X208798402Y-63541941D01*
X208989580Y-63621130D01*
X209104481Y-63643985D01*
X209192530Y-63661499D01*
X209192534Y-63661500D01*
X209192535Y-63661500D01*
X209399466Y-63661500D01*
X209399467Y-63661499D01*
X209602420Y-63621130D01*
X209793598Y-63541941D01*
X209965655Y-63426977D01*
X210111977Y-63280655D01*
X210226941Y-63108598D01*
X210295165Y-62943889D01*
X210339004Y-62889488D01*
X210405298Y-62867423D01*
X210472998Y-62884702D01*
X210520609Y-62935839D01*
X210527656Y-62953026D01*
X210584904Y-63129216D01*
X210681375Y-63318550D01*
X210720728Y-63372716D01*
X211353037Y-62740408D01*
X211370075Y-62803993D01*
X211435901Y-62918007D01*
X211528993Y-63011099D01*
X211643007Y-63076925D01*
X211706591Y-63093962D01*
X211105971Y-63694581D01*
X211184711Y-63811895D01*
X211185920Y-63815729D01*
X211188844Y-63818491D01*
X211196343Y-63848778D01*
X211205727Y-63878529D01*
X211204671Y-63882408D01*
X211205638Y-63886312D01*
X211195573Y-63915844D01*
X211187383Y-63945947D01*
X211184397Y-63948640D01*
X211183100Y-63952447D01*
X211138051Y-63991483D01*
X211128440Y-63996380D01*
X211074282Y-64035727D01*
X211074282Y-64035728D01*
X211706591Y-64668037D01*
X211643007Y-64685075D01*
X211528993Y-64750901D01*
X211435901Y-64843993D01*
X211370075Y-64958007D01*
X211353037Y-65021591D01*
X210720728Y-64389282D01*
X210720727Y-64389282D01*
X210681380Y-64443439D01*
X210584905Y-64632781D01*
X210527656Y-64808974D01*
X210488218Y-64866649D01*
X210423859Y-64893847D01*
X210355013Y-64881932D01*
X210303537Y-64834688D01*
X210295164Y-64818107D01*
X210280388Y-64782435D01*
X210240525Y-64686196D01*
X210226943Y-64653405D01*
X210111975Y-64481342D01*
X209965657Y-64335024D01*
X209828074Y-64243095D01*
X209793598Y-64220059D01*
X209695318Y-64179350D01*
X209602420Y-64140870D01*
X209602412Y-64140868D01*
X209399469Y-64100500D01*
X209399465Y-64100500D01*
X209192535Y-64100500D01*
X209192530Y-64100500D01*
X208989587Y-64140868D01*
X208989579Y-64140870D01*
X208798403Y-64220058D01*
X208626342Y-64335024D01*
X208480025Y-64481341D01*
X208480019Y-64481349D01*
X208373084Y-64641390D01*
X208319472Y-64686196D01*
X208269982Y-64696500D01*
X200417022Y-64696500D01*
X200349983Y-64676815D01*
X200329341Y-64660181D01*
X197178641Y-61509481D01*
X197145156Y-61448158D01*
X197150140Y-61378466D01*
X197167010Y-61349151D01*
X197166555Y-61348847D01*
X197279428Y-61179920D01*
X197279428Y-61179919D01*
X197279432Y-61179914D01*
X197354851Y-60997835D01*
X197383058Y-60856032D01*
X197393300Y-60804543D01*
X197393300Y-60607456D01*
X197354852Y-60414170D01*
X197354851Y-60414169D01*
X197354851Y-60414165D01*
X197337842Y-60373101D01*
X197279435Y-60232092D01*
X197279428Y-60232079D01*
X197169939Y-60068218D01*
X197169936Y-60068214D01*
X197030585Y-59928863D01*
X197030581Y-59928860D01*
X196866720Y-59819371D01*
X196866707Y-59819364D01*
X196684639Y-59743950D01*
X196684629Y-59743947D01*
X196491343Y-59705500D01*
X196491341Y-59705500D01*
X196294259Y-59705500D01*
X196294257Y-59705500D01*
X196100970Y-59743947D01*
X196100960Y-59743950D01*
X195925511Y-59816623D01*
X195856042Y-59824092D01*
X195793563Y-59792816D01*
X195757911Y-59732727D01*
X195760405Y-59662902D01*
X195790377Y-59614382D01*
X196056598Y-59348160D01*
X196117919Y-59314677D01*
X196168468Y-59314226D01*
X196170736Y-59314677D01*
X196319656Y-59344300D01*
X196319659Y-59344300D01*
X196516743Y-59344300D01*
X196665664Y-59314677D01*
X196710035Y-59305851D01*
X196892114Y-59230432D01*
X197055982Y-59120939D01*
X197195339Y-58981582D01*
X197304832Y-58817714D01*
X197380251Y-58635635D01*
X197399049Y-58541131D01*
X197418700Y-58442343D01*
X197418700Y-58245256D01*
X197380252Y-58051970D01*
X197380251Y-58051969D01*
X197380251Y-58051965D01*
X197374744Y-58038670D01*
X197304835Y-57869892D01*
X197304828Y-57869879D01*
X197195339Y-57706018D01*
X197195336Y-57706014D01*
X197055985Y-57566663D01*
X197055981Y-57566660D01*
X196892120Y-57457171D01*
X196892107Y-57457164D01*
X196710039Y-57381750D01*
X196710029Y-57381747D01*
X196516743Y-57343300D01*
X196516741Y-57343300D01*
X196319659Y-57343300D01*
X196319657Y-57343300D01*
X196126370Y-57381747D01*
X196126360Y-57381750D01*
X195944292Y-57457164D01*
X195944279Y-57457171D01*
X195780418Y-57566660D01*
X195780414Y-57566663D01*
X195641063Y-57706014D01*
X195641060Y-57706018D01*
X195531571Y-57869879D01*
X195531564Y-57869892D01*
X195456150Y-58051960D01*
X195456147Y-58051970D01*
X195417700Y-58245256D01*
X195417700Y-58245259D01*
X195417700Y-58442341D01*
X195417700Y-58442343D01*
X195417699Y-58442343D01*
X195447773Y-58593528D01*
X195441546Y-58663120D01*
X195413837Y-58705401D01*
X194924944Y-59194294D01*
X194863621Y-59227779D01*
X194793929Y-59222795D01*
X194737996Y-59180923D01*
X194715645Y-59130805D01*
X194713251Y-59118765D01*
X194692706Y-59069164D01*
X194637835Y-58936692D01*
X194637828Y-58936679D01*
X194528339Y-58772818D01*
X194528336Y-58772814D01*
X194388985Y-58633463D01*
X194388981Y-58633460D01*
X194225120Y-58523971D01*
X194225107Y-58523964D01*
X194043039Y-58448550D01*
X194043029Y-58448547D01*
X193849743Y-58410100D01*
X193849741Y-58410100D01*
X193788821Y-58410100D01*
X193721782Y-58390415D01*
X193676027Y-58337611D01*
X193666083Y-58268453D01*
X193695108Y-58204897D01*
X193701140Y-58198419D01*
X194414143Y-57485417D01*
X195325541Y-56574019D01*
X195386864Y-56540534D01*
X195413222Y-56537700D01*
X195807917Y-56537700D01*
X195874956Y-56557385D01*
G37*
%TD.AperFunction*%
%TA.AperFunction,Conductor*%
G36*
X216406614Y-60280001D02*
G01*
X216419947Y-60278085D01*
X216440088Y-60287283D01*
X216461726Y-60291990D01*
X216479452Y-60305260D01*
X216483503Y-60307110D01*
X216489966Y-60313127D01*
X216560730Y-60383891D01*
X216560732Y-60383892D01*
X216567802Y-60390962D01*
X216903568Y-60726728D01*
X216903578Y-60726739D01*
X216907908Y-60731069D01*
X216907909Y-60731070D01*
X216992530Y-60815691D01*
X217096169Y-60875527D01*
X217211764Y-60906500D01*
X218937982Y-60906500D01*
X219005021Y-60926185D01*
X219041084Y-60961610D01*
X219148019Y-61121650D01*
X219148025Y-61121658D01*
X219294342Y-61267975D01*
X219466405Y-61382943D01*
X219527295Y-61408164D01*
X219631108Y-61451164D01*
X219685511Y-61495005D01*
X219707576Y-61561299D01*
X219690297Y-61628998D01*
X219639160Y-61676609D01*
X219621974Y-61683656D01*
X219445781Y-61740905D01*
X219256439Y-61837380D01*
X219202282Y-61876727D01*
X219202282Y-61876728D01*
X219834591Y-62509037D01*
X219771007Y-62526075D01*
X219656993Y-62591901D01*
X219563901Y-62684993D01*
X219498075Y-62799007D01*
X219481037Y-62862591D01*
X218848728Y-62230282D01*
X218848727Y-62230282D01*
X218809380Y-62284439D01*
X218712904Y-62473782D01*
X218647242Y-62675869D01*
X218647242Y-62675872D01*
X218614000Y-62885753D01*
X218614000Y-63098247D01*
X218613999Y-63098247D01*
X218637290Y-63245298D01*
X218628335Y-63314591D01*
X218583339Y-63368043D01*
X218516587Y-63388682D01*
X218449274Y-63369957D01*
X218427136Y-63352376D01*
X216314619Y-61239859D01*
X216281134Y-61178536D01*
X216278300Y-61152178D01*
X216278300Y-60400823D01*
X216284538Y-60379577D01*
X216286118Y-60357490D01*
X216294190Y-60346706D01*
X216297985Y-60333784D01*
X216314716Y-60319285D01*
X216327989Y-60301556D01*
X216340611Y-60296848D01*
X216350789Y-60288029D01*
X216372704Y-60284877D01*
X216393453Y-60277139D01*
X216406614Y-60280001D01*
G37*
%TD.AperFunction*%
%TA.AperFunction,Conductor*%
G36*
X211370075Y-55183993D02*
G01*
X211435901Y-55298007D01*
X211528993Y-55391099D01*
X211643007Y-55456925D01*
X211706591Y-55473962D01*
X211105971Y-56074581D01*
X211184711Y-56191895D01*
X211185920Y-56195729D01*
X211188844Y-56198491D01*
X211196343Y-56228778D01*
X211205727Y-56258529D01*
X211204671Y-56262408D01*
X211205638Y-56266312D01*
X211195573Y-56295844D01*
X211187383Y-56325947D01*
X211184397Y-56328640D01*
X211183100Y-56332447D01*
X211138051Y-56371483D01*
X211128440Y-56376380D01*
X211074282Y-56415727D01*
X211074282Y-56415728D01*
X211706591Y-57048037D01*
X211643007Y-57065075D01*
X211528993Y-57130901D01*
X211435901Y-57223993D01*
X211370075Y-57338007D01*
X211353037Y-57401591D01*
X210720728Y-56769282D01*
X210720727Y-56769282D01*
X210681380Y-56823439D01*
X210584905Y-57012781D01*
X210527656Y-57188974D01*
X210488218Y-57246649D01*
X210423859Y-57273847D01*
X210355013Y-57261932D01*
X210303537Y-57214688D01*
X210295164Y-57198107D01*
X210294255Y-57195913D01*
X210264907Y-57125059D01*
X210226943Y-57033405D01*
X210111975Y-56861342D01*
X209965657Y-56715024D01*
X209838957Y-56630367D01*
X209793598Y-56600059D01*
X209776097Y-56592810D01*
X209602420Y-56520870D01*
X209602412Y-56520868D01*
X209399469Y-56480500D01*
X209399465Y-56480500D01*
X209192535Y-56480500D01*
X209192530Y-56480500D01*
X208989587Y-56520868D01*
X208989579Y-56520870D01*
X208798403Y-56600058D01*
X208626342Y-56715024D01*
X208480025Y-56861341D01*
X208480019Y-56861349D01*
X208373084Y-57021390D01*
X208319472Y-57066196D01*
X208269982Y-57076500D01*
X206492964Y-57076500D01*
X206377369Y-57107473D01*
X206377366Y-57107474D01*
X206273733Y-57167307D01*
X206273727Y-57167311D01*
X206189107Y-57251932D01*
X204313842Y-59127196D01*
X204252519Y-59160681D01*
X204182827Y-59155697D01*
X204157273Y-59142618D01*
X204116443Y-59115337D01*
X204105719Y-59108171D01*
X204105716Y-59108169D01*
X204105714Y-59108168D01*
X204105711Y-59108166D01*
X204105706Y-59108164D01*
X203923639Y-59032750D01*
X203923629Y-59032747D01*
X203730343Y-58994300D01*
X203730341Y-58994300D01*
X203533259Y-58994300D01*
X203533257Y-58994300D01*
X203339970Y-59032747D01*
X203339960Y-59032750D01*
X203157892Y-59108164D01*
X203157879Y-59108171D01*
X202994018Y-59217660D01*
X202994014Y-59217663D01*
X202850353Y-59361325D01*
X202848378Y-59359350D01*
X202800446Y-59391904D01*
X202730599Y-59393679D01*
X202670880Y-59357410D01*
X202640250Y-59294613D01*
X202638500Y-59273853D01*
X202638500Y-57465822D01*
X202658185Y-57398783D01*
X202674819Y-57378141D01*
X204571141Y-55481819D01*
X204632464Y-55448334D01*
X204658822Y-55445500D01*
X208121500Y-55445500D01*
X208188539Y-55465185D01*
X208234294Y-55517989D01*
X208245500Y-55569500D01*
X208245500Y-55860752D01*
X208257131Y-55919229D01*
X208257132Y-55919230D01*
X208301447Y-55985552D01*
X208367769Y-56029867D01*
X208367770Y-56029868D01*
X208426247Y-56041499D01*
X208426250Y-56041500D01*
X208426252Y-56041500D01*
X210165750Y-56041500D01*
X210165751Y-56041499D01*
X210180568Y-56038552D01*
X210224229Y-56029868D01*
X210224229Y-56029867D01*
X210224231Y-56029867D01*
X210290552Y-55985552D01*
X210334867Y-55919231D01*
X210334867Y-55919229D01*
X210334868Y-55919229D01*
X210346499Y-55860752D01*
X210346500Y-55860750D01*
X210346500Y-55557048D01*
X210366185Y-55490009D01*
X210418989Y-55444254D01*
X210488147Y-55434310D01*
X210551703Y-55463335D01*
X210581938Y-55505264D01*
X210582694Y-55504879D01*
X210681375Y-55698550D01*
X210720728Y-55752716D01*
X211353037Y-55120408D01*
X211370075Y-55183993D01*
G37*
%TD.AperFunction*%
%TD*%
%TA.AperFunction,Conductor*%
%TO.N,+24V*%
G36*
X166185714Y-70504685D02*
G01*
X166231469Y-70557489D01*
X166242674Y-70609323D01*
X166222852Y-78190500D01*
X166180421Y-94417824D01*
X166160561Y-94484812D01*
X166107637Y-94530429D01*
X166056421Y-94541500D01*
X164160883Y-94541500D01*
X164093844Y-94521815D01*
X164057782Y-94486392D01*
X163972139Y-94358218D01*
X163972137Y-94358215D01*
X163832785Y-94218863D01*
X163832781Y-94218860D01*
X163668920Y-94109371D01*
X163668907Y-94109364D01*
X163486839Y-94033950D01*
X163486829Y-94033947D01*
X163293543Y-93995500D01*
X163293541Y-93995500D01*
X163096459Y-93995500D01*
X163096457Y-93995500D01*
X162903170Y-94033947D01*
X162903160Y-94033950D01*
X162721092Y-94109364D01*
X162721079Y-94109371D01*
X162557218Y-94218860D01*
X162557214Y-94218863D01*
X162417863Y-94358214D01*
X162417860Y-94358218D01*
X162308371Y-94522079D01*
X162308364Y-94522092D01*
X162232950Y-94704160D01*
X162232947Y-94704170D01*
X162194500Y-94897456D01*
X162194500Y-94897459D01*
X162194500Y-95094541D01*
X162194500Y-95094543D01*
X162194499Y-95094543D01*
X162232947Y-95287829D01*
X162232950Y-95287839D01*
X162308364Y-95469907D01*
X162308371Y-95469920D01*
X162417860Y-95633781D01*
X162417863Y-95633785D01*
X162557214Y-95773136D01*
X162557218Y-95773139D01*
X162721079Y-95882628D01*
X162721092Y-95882635D01*
X162862818Y-95941339D01*
X162917222Y-95985179D01*
X162939287Y-96051473D01*
X162922008Y-96119173D01*
X162870871Y-96166784D01*
X162815366Y-96179900D01*
X162715457Y-96179900D01*
X162522170Y-96218347D01*
X162522160Y-96218350D01*
X162340092Y-96293764D01*
X162340079Y-96293771D01*
X162176218Y-96403260D01*
X162176214Y-96403263D01*
X162036863Y-96542614D01*
X162036860Y-96542618D01*
X161927371Y-96706479D01*
X161927364Y-96706492D01*
X161851950Y-96888560D01*
X161851947Y-96888570D01*
X161813500Y-97081856D01*
X161813500Y-97081859D01*
X161813500Y-97278941D01*
X161813500Y-97278943D01*
X161813499Y-97278943D01*
X161851947Y-97472229D01*
X161851950Y-97472239D01*
X161927364Y-97654307D01*
X161927371Y-97654320D01*
X162036860Y-97818181D01*
X162036863Y-97818185D01*
X162176214Y-97957536D01*
X162176218Y-97957539D01*
X162340079Y-98067028D01*
X162340092Y-98067035D01*
X162522160Y-98142449D01*
X162522165Y-98142451D01*
X162522169Y-98142451D01*
X162522170Y-98142452D01*
X162715456Y-98180900D01*
X162715459Y-98180900D01*
X162912543Y-98180900D01*
X163042582Y-98155032D01*
X163105835Y-98142451D01*
X163287914Y-98067032D01*
X163451782Y-97957539D01*
X163591139Y-97818182D01*
X163700632Y-97654314D01*
X163776051Y-97472235D01*
X163814500Y-97278941D01*
X163814500Y-97081859D01*
X163814500Y-97081856D01*
X163776052Y-96888570D01*
X163776051Y-96888569D01*
X163776051Y-96888565D01*
X163776049Y-96888560D01*
X163700635Y-96706492D01*
X163700628Y-96706479D01*
X163591139Y-96542618D01*
X163591136Y-96542614D01*
X163451785Y-96403263D01*
X163451781Y-96403260D01*
X163287920Y-96293771D01*
X163287907Y-96293764D01*
X163146182Y-96235061D01*
X163091778Y-96191221D01*
X163069713Y-96124927D01*
X163086992Y-96057227D01*
X163138129Y-96009616D01*
X163193634Y-95996500D01*
X163293543Y-95996500D01*
X163423582Y-95970632D01*
X163486835Y-95958051D01*
X163668914Y-95882632D01*
X163832782Y-95773139D01*
X163972139Y-95633782D01*
X164057781Y-95505608D01*
X164111393Y-95460804D01*
X164160883Y-95450500D01*
X166053396Y-95450500D01*
X166120435Y-95470185D01*
X166166190Y-95522989D01*
X166177395Y-95574822D01*
X166153605Y-104673400D01*
X159002719Y-104673400D01*
X159002194Y-104621480D01*
X159002322Y-104621024D01*
X159002189Y-104619758D01*
X159011775Y-102079543D01*
X161178499Y-102079543D01*
X161216947Y-102272829D01*
X161216950Y-102272839D01*
X161292364Y-102454907D01*
X161292371Y-102454920D01*
X161401860Y-102618781D01*
X161401863Y-102618785D01*
X161541214Y-102758136D01*
X161541218Y-102758139D01*
X161705079Y-102867628D01*
X161705092Y-102867635D01*
X161887160Y-102943049D01*
X161887165Y-102943051D01*
X161887169Y-102943051D01*
X161887170Y-102943052D01*
X162080456Y-102981500D01*
X162080459Y-102981500D01*
X162277543Y-102981500D01*
X162407582Y-102955632D01*
X162470835Y-102943051D01*
X162652914Y-102867632D01*
X162816782Y-102758139D01*
X162956139Y-102618782D01*
X163065632Y-102454914D01*
X163141051Y-102272835D01*
X163179500Y-102079541D01*
X163179500Y-101882459D01*
X163179500Y-101882456D01*
X163141052Y-101689170D01*
X163141051Y-101689169D01*
X163141051Y-101689165D01*
X163141049Y-101689160D01*
X163065635Y-101507092D01*
X163065628Y-101507079D01*
X162956139Y-101343218D01*
X162956136Y-101343214D01*
X162816785Y-101203863D01*
X162816781Y-101203860D01*
X162652920Y-101094371D01*
X162652907Y-101094364D01*
X162470839Y-101018950D01*
X162470829Y-101018947D01*
X162277543Y-100980500D01*
X162277541Y-100980500D01*
X162080459Y-100980500D01*
X162080457Y-100980500D01*
X161887170Y-101018947D01*
X161887160Y-101018950D01*
X161705092Y-101094364D01*
X161705079Y-101094371D01*
X161541218Y-101203860D01*
X161541214Y-101203863D01*
X161401863Y-101343214D01*
X161401860Y-101343218D01*
X161292371Y-101507079D01*
X161292364Y-101507092D01*
X161216950Y-101689160D01*
X161216947Y-101689170D01*
X161178500Y-101882456D01*
X161178500Y-101882459D01*
X161178500Y-102079541D01*
X161178500Y-102079543D01*
X161178499Y-102079543D01*
X159011775Y-102079543D01*
X159102573Y-78018204D01*
X159106769Y-76906300D01*
X160819500Y-76906300D01*
X160819500Y-77093699D01*
X160848813Y-77278770D01*
X160848814Y-77278776D01*
X160906721Y-77456993D01*
X160906722Y-77456996D01*
X160906723Y-77456997D01*
X160991794Y-77623959D01*
X160991795Y-77623962D01*
X161037587Y-77686988D01*
X161101938Y-77775559D01*
X161234441Y-77908062D01*
X161320025Y-77970243D01*
X161386037Y-78018204D01*
X161386038Y-78018204D01*
X161386042Y-78018207D01*
X161553007Y-78103279D01*
X161731224Y-78161186D01*
X161823765Y-78175843D01*
X161916301Y-78190500D01*
X161916306Y-78190500D01*
X164083699Y-78190500D01*
X164167822Y-78177175D01*
X164268776Y-78161186D01*
X164446993Y-78103279D01*
X164613958Y-78018207D01*
X164765559Y-77908062D01*
X164898062Y-77775559D01*
X165008207Y-77623958D01*
X165093279Y-77456993D01*
X165151186Y-77278776D01*
X165167175Y-77177822D01*
X165180500Y-77093699D01*
X165180500Y-76906300D01*
X165164510Y-76805352D01*
X165151186Y-76721224D01*
X165093279Y-76543007D01*
X165008207Y-76376042D01*
X165008204Y-76376038D01*
X165008204Y-76376037D01*
X164976230Y-76332029D01*
X164898062Y-76224441D01*
X164765559Y-76091938D01*
X164708502Y-76050484D01*
X164613962Y-75981795D01*
X164613959Y-75981794D01*
X164613960Y-75981794D01*
X164613958Y-75981793D01*
X164446993Y-75896721D01*
X164268776Y-75838814D01*
X164268770Y-75838813D01*
X164083699Y-75809500D01*
X164083694Y-75809500D01*
X161916306Y-75809500D01*
X161916301Y-75809500D01*
X161731229Y-75838813D01*
X161731227Y-75838813D01*
X161731224Y-75838814D01*
X161553007Y-75896721D01*
X161553004Y-75896722D01*
X161553002Y-75896723D01*
X161386040Y-75981794D01*
X161386037Y-75981795D01*
X161272477Y-76064302D01*
X161234441Y-76091938D01*
X161234439Y-76091940D01*
X161234438Y-76091940D01*
X161101940Y-76224438D01*
X161101940Y-76224439D01*
X161101938Y-76224441D01*
X161074302Y-76262477D01*
X160991795Y-76376037D01*
X160991794Y-76376040D01*
X160906723Y-76543002D01*
X160906722Y-76543004D01*
X160906721Y-76543007D01*
X160848814Y-76721224D01*
X160848813Y-76721227D01*
X160848813Y-76721229D01*
X160819500Y-76906300D01*
X159106769Y-76906300D01*
X159106789Y-76900966D01*
X159121548Y-72990000D01*
X161020000Y-72990000D01*
X164980000Y-72990000D01*
X164980000Y-71010000D01*
X161020000Y-71010000D01*
X161020000Y-72990000D01*
X159121548Y-72990000D01*
X159129215Y-70958170D01*
X159130534Y-70608532D01*
X159150471Y-70541567D01*
X159203447Y-70496012D01*
X159254533Y-70485000D01*
X166118675Y-70485000D01*
X166185714Y-70504685D01*
G37*
%TD.AperFunction*%
%TD*%
%TA.AperFunction,Conductor*%
%TO.N,+5V*%
G36*
X222650239Y-81731485D02*
G01*
X222695994Y-81784289D01*
X222707200Y-81835800D01*
X222707200Y-103787610D01*
X222687515Y-103854649D01*
X222634711Y-103900404D01*
X222583411Y-103911610D01*
X177949421Y-103987389D01*
X177882348Y-103967818D01*
X177836503Y-103915092D01*
X177825210Y-103863581D01*
X177802189Y-88770187D01*
X177821771Y-88703120D01*
X177874506Y-88657284D01*
X177926189Y-88646000D01*
X183416400Y-88646000D01*
X183483439Y-88665685D01*
X183529194Y-88718489D01*
X183540400Y-88770000D01*
X183540400Y-96443800D01*
X214096599Y-96443800D01*
X214096600Y-96443800D01*
X214073377Y-82974277D01*
X219114000Y-82974277D01*
X219114000Y-83141722D01*
X219146663Y-83305928D01*
X219146665Y-83305936D01*
X219210740Y-83460627D01*
X219210740Y-83460628D01*
X219303758Y-83599839D01*
X219303764Y-83599847D01*
X219422152Y-83718235D01*
X219422160Y-83718241D01*
X219561371Y-83811259D01*
X219716063Y-83875334D01*
X219716071Y-83875336D01*
X219880277Y-83907999D01*
X219880280Y-83908000D01*
X220047720Y-83908000D01*
X220047722Y-83907999D01*
X220211928Y-83875336D01*
X220211936Y-83875334D01*
X220366627Y-83811259D01*
X220366628Y-83811259D01*
X220505839Y-83718241D01*
X220505847Y-83718235D01*
X220624235Y-83599847D01*
X220624241Y-83599839D01*
X220717259Y-83460628D01*
X220717259Y-83460627D01*
X220781334Y-83305936D01*
X220781336Y-83305928D01*
X220813999Y-83141722D01*
X220814000Y-83141720D01*
X220814000Y-82974279D01*
X220813999Y-82974277D01*
X220781336Y-82810071D01*
X220781334Y-82810063D01*
X220717259Y-82655372D01*
X220717259Y-82655371D01*
X220624241Y-82516160D01*
X220624235Y-82516152D01*
X220505847Y-82397764D01*
X220505839Y-82397758D01*
X220366628Y-82304740D01*
X220211936Y-82240665D01*
X220211928Y-82240663D01*
X220047721Y-82208000D01*
X219880279Y-82208000D01*
X219716071Y-82240663D01*
X219716063Y-82240665D01*
X219561372Y-82304740D01*
X219561371Y-82304740D01*
X219422160Y-82397758D01*
X219422152Y-82397764D01*
X219303764Y-82516152D01*
X219303758Y-82516160D01*
X219210740Y-82655371D01*
X219210740Y-82655372D01*
X219146665Y-82810063D01*
X219146663Y-82810071D01*
X219114000Y-82974277D01*
X214073377Y-82974277D01*
X214071414Y-81836013D01*
X214090983Y-81768940D01*
X214143708Y-81723095D01*
X214195414Y-81711800D01*
X222583200Y-81711800D01*
X222650239Y-81731485D01*
G37*
%TD.AperFunction*%
%TD*%
%TA.AperFunction,Conductor*%
%TO.N,+3.3V*%
G36*
X206059581Y-68802924D02*
G01*
X206126593Y-68822699D01*
X206172277Y-68875565D01*
X206183412Y-68926518D01*
X206207239Y-76200000D01*
X204952600Y-76200000D01*
X204952600Y-79019400D01*
X206216476Y-79019400D01*
X206223101Y-81042167D01*
X206203636Y-81109270D01*
X206186783Y-81130254D01*
X200228659Y-87088381D01*
X200167336Y-87121866D01*
X200140978Y-87124700D01*
X196130048Y-87124700D01*
X196130032Y-87124699D01*
X196122436Y-87124699D01*
X196002764Y-87124699D01*
X195911597Y-87149127D01*
X195902118Y-87151666D01*
X195887170Y-87155672D01*
X195887165Y-87155674D01*
X195783533Y-87215506D01*
X195783527Y-87215511D01*
X194524358Y-88474681D01*
X194463035Y-88508166D01*
X194436677Y-88511000D01*
X183649623Y-88511000D01*
X183589089Y-88495220D01*
X183541341Y-88468511D01*
X183541342Y-88468511D01*
X183474303Y-88448826D01*
X183474299Y-88448825D01*
X183474298Y-88448825D01*
X183416400Y-88440500D01*
X181217709Y-88440500D01*
X181150670Y-88420815D01*
X181104915Y-88368011D01*
X181093709Y-88316393D01*
X181094172Y-87778757D01*
X181096606Y-84954851D01*
X181116347Y-84887834D01*
X181151710Y-84851864D01*
X181207552Y-84814552D01*
X181251867Y-84748231D01*
X181251867Y-84748229D01*
X181251868Y-84748229D01*
X181263499Y-84689752D01*
X181263500Y-84689750D01*
X181263500Y-83272622D01*
X181283185Y-83205583D01*
X181335989Y-83159828D01*
X181405147Y-83149884D01*
X181468703Y-83178909D01*
X181475181Y-83184941D01*
X181706115Y-83415875D01*
X181739600Y-83477198D01*
X181740051Y-83527747D01*
X181702500Y-83716530D01*
X181702500Y-83923469D01*
X181742868Y-84126412D01*
X181742870Y-84126420D01*
X181822058Y-84317596D01*
X181937024Y-84489657D01*
X182083342Y-84635975D01*
X182083345Y-84635977D01*
X182255402Y-84750941D01*
X182446580Y-84830130D01*
X182591052Y-84858867D01*
X182649530Y-84870499D01*
X182649534Y-84870500D01*
X182649535Y-84870500D01*
X182856466Y-84870500D01*
X182856467Y-84870499D01*
X183059420Y-84830130D01*
X183250598Y-84750941D01*
X183422655Y-84635977D01*
X183568977Y-84489655D01*
X183683941Y-84317598D01*
X183763130Y-84126420D01*
X183803500Y-83923465D01*
X183803500Y-83716535D01*
X183763130Y-83513580D01*
X183683941Y-83322402D01*
X183568977Y-83150345D01*
X183568975Y-83150342D01*
X183422657Y-83004024D01*
X183336626Y-82946541D01*
X183250598Y-82889059D01*
X183204595Y-82870004D01*
X183059420Y-82809870D01*
X183059412Y-82809868D01*
X182856469Y-82769500D01*
X182856465Y-82769500D01*
X182649535Y-82769500D01*
X182649530Y-82769500D01*
X182460747Y-82807051D01*
X182391155Y-82800824D01*
X182348875Y-82773115D01*
X181244678Y-81668918D01*
X181237092Y-81661332D01*
X181237091Y-81661330D01*
X181152470Y-81576709D01*
X181147112Y-81573615D01*
X181136959Y-81563698D01*
X181123331Y-81539424D01*
X181106914Y-81516938D01*
X181105212Y-81507147D01*
X181102756Y-81502772D01*
X181103189Y-81495511D01*
X181099605Y-81474892D01*
X181100135Y-80860000D01*
X182030000Y-80860000D01*
X183730000Y-80860000D01*
X183730000Y-79906530D01*
X184369500Y-79906530D01*
X184369500Y-80113469D01*
X184409868Y-80316412D01*
X184409870Y-80316420D01*
X184489059Y-80507598D01*
X184518509Y-80551673D01*
X184604024Y-80679657D01*
X184750342Y-80825975D01*
X184750345Y-80825977D01*
X184922402Y-80940941D01*
X185113580Y-81020130D01*
X185316530Y-81060499D01*
X185316534Y-81060500D01*
X185316535Y-81060500D01*
X185523466Y-81060500D01*
X185523467Y-81060499D01*
X185726420Y-81020130D01*
X185917598Y-80940941D01*
X186089655Y-80825977D01*
X186235977Y-80679655D01*
X186350941Y-80507598D01*
X186430130Y-80316420D01*
X186470500Y-80113465D01*
X186470500Y-79906535D01*
X186470499Y-79906530D01*
X186909500Y-79906530D01*
X186909500Y-80113469D01*
X186949868Y-80316412D01*
X186949870Y-80316420D01*
X187029059Y-80507598D01*
X187058509Y-80551673D01*
X187144024Y-80679657D01*
X187290342Y-80825975D01*
X187290345Y-80825977D01*
X187462402Y-80940941D01*
X187653580Y-81020130D01*
X187856530Y-81060499D01*
X187856534Y-81060500D01*
X187856535Y-81060500D01*
X188063466Y-81060500D01*
X188063467Y-81060499D01*
X188266420Y-81020130D01*
X188457598Y-80940941D01*
X188629655Y-80825977D01*
X188775977Y-80679655D01*
X188890941Y-80507598D01*
X188970130Y-80316420D01*
X189010500Y-80113465D01*
X189010500Y-79906535D01*
X189010499Y-79906530D01*
X189449500Y-79906530D01*
X189449500Y-80113469D01*
X189489868Y-80316412D01*
X189489870Y-80316420D01*
X189569059Y-80507598D01*
X189598509Y-80551673D01*
X189684024Y-80679657D01*
X189830342Y-80825975D01*
X189830345Y-80825977D01*
X190002402Y-80940941D01*
X190193580Y-81020130D01*
X190396530Y-81060499D01*
X190396534Y-81060500D01*
X190396535Y-81060500D01*
X190603466Y-81060500D01*
X190603467Y-81060499D01*
X190806420Y-81020130D01*
X190997598Y-80940941D01*
X191169655Y-80825977D01*
X191315977Y-80679655D01*
X191430941Y-80507598D01*
X191510130Y-80316420D01*
X191550500Y-80113465D01*
X191550500Y-79906535D01*
X191550499Y-79906530D01*
X191989500Y-79906530D01*
X191989500Y-80113469D01*
X192029868Y-80316412D01*
X192029870Y-80316420D01*
X192109059Y-80507598D01*
X192138509Y-80551673D01*
X192224024Y-80679657D01*
X192370342Y-80825975D01*
X192370345Y-80825977D01*
X192542402Y-80940941D01*
X192733580Y-81020130D01*
X192936530Y-81060499D01*
X192936534Y-81060500D01*
X192936535Y-81060500D01*
X193143466Y-81060500D01*
X193143467Y-81060499D01*
X193346420Y-81020130D01*
X193537598Y-80940941D01*
X193709655Y-80825977D01*
X193855977Y-80679655D01*
X193970941Y-80507598D01*
X194050130Y-80316420D01*
X194090500Y-80113465D01*
X194090500Y-79906535D01*
X194050130Y-79703580D01*
X193970941Y-79512402D01*
X193855977Y-79340345D01*
X193855975Y-79340342D01*
X193709657Y-79194024D01*
X193623626Y-79136541D01*
X193537598Y-79079059D01*
X193346420Y-78999870D01*
X193346412Y-78999868D01*
X193143469Y-78959500D01*
X193143465Y-78959500D01*
X192936535Y-78959500D01*
X192936530Y-78959500D01*
X192733587Y-78999868D01*
X192733579Y-78999870D01*
X192542403Y-79079058D01*
X192370342Y-79194024D01*
X192224024Y-79340342D01*
X192109058Y-79512403D01*
X192029870Y-79703579D01*
X192029868Y-79703587D01*
X191989500Y-79906530D01*
X191550499Y-79906530D01*
X191510130Y-79703580D01*
X191430941Y-79512402D01*
X191315977Y-79340345D01*
X191315975Y-79340342D01*
X191169657Y-79194024D01*
X191083626Y-79136541D01*
X190997598Y-79079059D01*
X190806420Y-78999870D01*
X190806412Y-78999868D01*
X190603469Y-78959500D01*
X190603465Y-78959500D01*
X190396535Y-78959500D01*
X190396530Y-78959500D01*
X190193587Y-78999868D01*
X190193579Y-78999870D01*
X190002403Y-79079058D01*
X189830342Y-79194024D01*
X189684024Y-79340342D01*
X189569058Y-79512403D01*
X189489870Y-79703579D01*
X189489868Y-79703587D01*
X189449500Y-79906530D01*
X189010499Y-79906530D01*
X188970130Y-79703580D01*
X188890941Y-79512402D01*
X188775977Y-79340345D01*
X188775975Y-79340342D01*
X188629657Y-79194024D01*
X188543626Y-79136541D01*
X188457598Y-79079059D01*
X188266420Y-78999870D01*
X188266412Y-78999868D01*
X188063469Y-78959500D01*
X188063465Y-78959500D01*
X187856535Y-78959500D01*
X187856530Y-78959500D01*
X187653587Y-78999868D01*
X187653579Y-78999870D01*
X187462403Y-79079058D01*
X187290342Y-79194024D01*
X187144024Y-79340342D01*
X187029058Y-79512403D01*
X186949870Y-79703579D01*
X186949868Y-79703587D01*
X186909500Y-79906530D01*
X186470499Y-79906530D01*
X186430130Y-79703580D01*
X186350941Y-79512402D01*
X186235977Y-79340345D01*
X186235975Y-79340342D01*
X186089657Y-79194024D01*
X186003626Y-79136541D01*
X185917598Y-79079059D01*
X185726420Y-78999870D01*
X185726412Y-78999868D01*
X185523469Y-78959500D01*
X185523465Y-78959500D01*
X185316535Y-78959500D01*
X185316530Y-78959500D01*
X185113587Y-78999868D01*
X185113579Y-78999870D01*
X184922403Y-79079058D01*
X184750342Y-79194024D01*
X184604024Y-79340342D01*
X184489058Y-79512403D01*
X184409870Y-79703579D01*
X184409868Y-79703587D01*
X184369500Y-79906530D01*
X183730000Y-79906530D01*
X183730000Y-79160000D01*
X182030000Y-79160000D01*
X182030000Y-80860000D01*
X181100135Y-80860000D01*
X181103146Y-77366530D01*
X181829500Y-77366530D01*
X181829500Y-77573469D01*
X181869868Y-77776412D01*
X181869870Y-77776420D01*
X181949059Y-77967598D01*
X181979970Y-78013860D01*
X182064024Y-78139657D01*
X182210342Y-78285975D01*
X182210345Y-78285977D01*
X182382402Y-78400941D01*
X182573580Y-78480130D01*
X182746617Y-78514549D01*
X182776530Y-78520499D01*
X182776534Y-78520500D01*
X182776535Y-78520500D01*
X182983466Y-78520500D01*
X182983467Y-78520499D01*
X183186420Y-78480130D01*
X183377598Y-78400941D01*
X183549655Y-78285977D01*
X183695977Y-78139655D01*
X183810941Y-77967598D01*
X183890130Y-77776420D01*
X183930500Y-77573465D01*
X183930500Y-77366535D01*
X183930499Y-77366530D01*
X184369500Y-77366530D01*
X184369500Y-77573469D01*
X184409868Y-77776412D01*
X184409870Y-77776420D01*
X184489059Y-77967598D01*
X184519970Y-78013860D01*
X184604024Y-78139657D01*
X184750342Y-78285975D01*
X184750345Y-78285977D01*
X184922402Y-78400941D01*
X185113580Y-78480130D01*
X185286617Y-78514549D01*
X185316530Y-78520499D01*
X185316534Y-78520500D01*
X185316535Y-78520500D01*
X185523466Y-78520500D01*
X185523467Y-78520499D01*
X185726420Y-78480130D01*
X185917598Y-78400941D01*
X186089655Y-78285977D01*
X186235977Y-78139655D01*
X186350941Y-77967598D01*
X186430130Y-77776420D01*
X186470500Y-77573465D01*
X186470500Y-77366535D01*
X186430130Y-77163580D01*
X186350941Y-76972402D01*
X186235977Y-76800345D01*
X186235975Y-76800342D01*
X186089657Y-76654024D01*
X185929608Y-76547084D01*
X185917598Y-76539059D01*
X185726420Y-76459870D01*
X185726412Y-76459868D01*
X185523469Y-76419500D01*
X185523465Y-76419500D01*
X185316535Y-76419500D01*
X185316530Y-76419500D01*
X185113587Y-76459868D01*
X185113579Y-76459870D01*
X184922403Y-76539058D01*
X184750342Y-76654024D01*
X184604024Y-76800342D01*
X184489058Y-76972403D01*
X184409870Y-77163579D01*
X184409868Y-77163587D01*
X184369500Y-77366530D01*
X183930499Y-77366530D01*
X183890130Y-77163580D01*
X183810941Y-76972402D01*
X183695977Y-76800345D01*
X183695975Y-76800342D01*
X183549657Y-76654024D01*
X183389608Y-76547084D01*
X183377598Y-76539059D01*
X183186420Y-76459870D01*
X183186412Y-76459868D01*
X182983469Y-76419500D01*
X182983465Y-76419500D01*
X182776535Y-76419500D01*
X182776530Y-76419500D01*
X182573587Y-76459868D01*
X182573579Y-76459870D01*
X182382403Y-76539058D01*
X182210342Y-76654024D01*
X182064024Y-76800342D01*
X181949058Y-76972403D01*
X181869870Y-77163579D01*
X181869868Y-77163587D01*
X181829500Y-77366530D01*
X181103146Y-77366530D01*
X181105395Y-74757807D01*
X181125137Y-74690789D01*
X181177981Y-74645079D01*
X181247148Y-74635195D01*
X181310678Y-74664275D01*
X181317076Y-74670237D01*
X181906708Y-75259869D01*
X181906709Y-75259870D01*
X181991330Y-75344491D01*
X182094969Y-75404327D01*
X182119393Y-75410871D01*
X182119395Y-75410872D01*
X182119396Y-75410872D01*
X182149786Y-75419015D01*
X182210564Y-75435301D01*
X182210566Y-75435301D01*
X182337832Y-75435301D01*
X182337848Y-75435300D01*
X186729778Y-75435300D01*
X186796817Y-75454985D01*
X186817459Y-75471619D01*
X187469181Y-76123341D01*
X187483884Y-76150268D01*
X187500477Y-76176087D01*
X187501368Y-76182287D01*
X187502666Y-76184664D01*
X187505500Y-76211022D01*
X187505500Y-76443982D01*
X187485815Y-76511021D01*
X187450390Y-76547084D01*
X187290349Y-76654019D01*
X187290341Y-76654025D01*
X187144024Y-76800342D01*
X187029058Y-76972403D01*
X186949870Y-77163579D01*
X186949868Y-77163587D01*
X186909500Y-77366530D01*
X186909500Y-77573469D01*
X186949868Y-77776412D01*
X186949870Y-77776420D01*
X187029059Y-77967598D01*
X187059970Y-78013860D01*
X187144024Y-78139657D01*
X187290342Y-78285975D01*
X187290345Y-78285977D01*
X187462402Y-78400941D01*
X187653580Y-78480130D01*
X187826617Y-78514549D01*
X187856530Y-78520499D01*
X187856534Y-78520500D01*
X187856535Y-78520500D01*
X188063466Y-78520500D01*
X188063467Y-78520499D01*
X188266420Y-78480130D01*
X188457598Y-78400941D01*
X188629655Y-78285977D01*
X188775977Y-78139655D01*
X188890941Y-77967598D01*
X188970130Y-77776420D01*
X189010500Y-77573465D01*
X189010500Y-77366535D01*
X189010499Y-77366530D01*
X189449500Y-77366530D01*
X189449500Y-77573469D01*
X189489868Y-77776412D01*
X189489870Y-77776420D01*
X189569059Y-77967598D01*
X189599970Y-78013860D01*
X189684024Y-78139657D01*
X189830342Y-78285975D01*
X189830345Y-78285977D01*
X190002402Y-78400941D01*
X190193580Y-78480130D01*
X190366617Y-78514549D01*
X190396530Y-78520499D01*
X190396534Y-78520500D01*
X190396535Y-78520500D01*
X190603466Y-78520500D01*
X190603467Y-78520499D01*
X190806420Y-78480130D01*
X190997598Y-78400941D01*
X191169655Y-78285977D01*
X191315977Y-78139655D01*
X191430941Y-77967598D01*
X191510130Y-77776420D01*
X191550500Y-77573465D01*
X191550500Y-77366535D01*
X191550499Y-77366530D01*
X191989500Y-77366530D01*
X191989500Y-77573469D01*
X192029868Y-77776412D01*
X192029870Y-77776420D01*
X192109059Y-77967598D01*
X192139970Y-78013860D01*
X192224024Y-78139657D01*
X192370342Y-78285975D01*
X192370345Y-78285977D01*
X192542402Y-78400941D01*
X192733580Y-78480130D01*
X192906617Y-78514549D01*
X192936530Y-78520499D01*
X192936534Y-78520500D01*
X192936535Y-78520500D01*
X193143466Y-78520500D01*
X193143467Y-78520499D01*
X193346420Y-78480130D01*
X193537598Y-78400941D01*
X193709655Y-78285977D01*
X193855977Y-78139655D01*
X193970941Y-77967598D01*
X194050130Y-77776420D01*
X194090500Y-77573465D01*
X194090500Y-77366535D01*
X194050130Y-77163580D01*
X193970941Y-76972402D01*
X193855977Y-76800345D01*
X193855975Y-76800342D01*
X193709657Y-76654024D01*
X193549608Y-76547084D01*
X193537598Y-76539059D01*
X193346420Y-76459870D01*
X193346412Y-76459868D01*
X193143469Y-76419500D01*
X193143465Y-76419500D01*
X192936535Y-76419500D01*
X192936530Y-76419500D01*
X192733587Y-76459868D01*
X192733579Y-76459870D01*
X192542403Y-76539058D01*
X192370342Y-76654024D01*
X192224024Y-76800342D01*
X192109058Y-76972403D01*
X192029870Y-77163579D01*
X192029868Y-77163587D01*
X191989500Y-77366530D01*
X191550499Y-77366530D01*
X191510130Y-77163580D01*
X191430941Y-76972402D01*
X191315977Y-76800345D01*
X191315975Y-76800342D01*
X191169657Y-76654024D01*
X191009608Y-76547084D01*
X190997598Y-76539059D01*
X190806420Y-76459870D01*
X190806412Y-76459868D01*
X190603469Y-76419500D01*
X190603465Y-76419500D01*
X190396535Y-76419500D01*
X190396530Y-76419500D01*
X190193587Y-76459868D01*
X190193579Y-76459870D01*
X190002403Y-76539058D01*
X189830342Y-76654024D01*
X189684024Y-76800342D01*
X189569058Y-76972403D01*
X189489870Y-77163579D01*
X189489868Y-77163587D01*
X189449500Y-77366530D01*
X189010499Y-77366530D01*
X188970130Y-77163580D01*
X188890941Y-76972402D01*
X188775977Y-76800345D01*
X188775975Y-76800342D01*
X188629658Y-76654025D01*
X188629650Y-76654019D01*
X188469610Y-76547084D01*
X188424804Y-76493472D01*
X188414500Y-76443982D01*
X188414500Y-76041238D01*
X188414501Y-76041225D01*
X188414501Y-75911565D01*
X188383527Y-75795970D01*
X188383527Y-75795968D01*
X188354594Y-75745856D01*
X188323691Y-75692330D01*
X188239070Y-75607709D01*
X188239069Y-75607708D01*
X187340160Y-74708800D01*
X187340159Y-74708798D01*
X187248472Y-74617111D01*
X187248466Y-74617106D01*
X187144834Y-74557274D01*
X187144829Y-74557272D01*
X187120403Y-74550726D01*
X187120403Y-74550727D01*
X187074819Y-74538513D01*
X187029236Y-74526299D01*
X186909564Y-74526299D01*
X186901968Y-74526299D01*
X186901952Y-74526300D01*
X182510023Y-74526300D01*
X182442984Y-74506615D01*
X182422342Y-74489981D01*
X181786525Y-73854164D01*
X181143122Y-73210762D01*
X181109638Y-73149440D01*
X181106805Y-73122985D01*
X181109767Y-69686871D01*
X181129508Y-69619853D01*
X181182352Y-69574143D01*
X181251519Y-69564259D01*
X181257941Y-69565362D01*
X181337606Y-69581208D01*
X181444656Y-69602503D01*
X181444659Y-69602503D01*
X181641743Y-69602503D01*
X181784315Y-69574143D01*
X181835035Y-69564054D01*
X182017114Y-69488635D01*
X182057279Y-69461797D01*
X182123955Y-69440920D01*
X182126169Y-69440900D01*
X183984009Y-69440900D01*
X184051048Y-69460585D01*
X184087111Y-69496009D01*
X184195059Y-69657566D01*
X184334413Y-69796920D01*
X184334417Y-69796923D01*
X184498278Y-69906412D01*
X184498291Y-69906419D01*
X184608166Y-69951930D01*
X184680364Y-69981835D01*
X184680368Y-69981835D01*
X184680369Y-69981836D01*
X184873655Y-70020284D01*
X184873658Y-70020284D01*
X185070742Y-70020284D01*
X185200781Y-69994416D01*
X185264034Y-69981835D01*
X185446113Y-69906416D01*
X185609981Y-69796923D01*
X185749338Y-69657566D01*
X185858831Y-69493698D01*
X185934250Y-69311619D01*
X185965385Y-69155093D01*
X185970094Y-69146089D01*
X185970820Y-69135951D01*
X185986018Y-69115649D01*
X185997770Y-69093183D01*
X186006601Y-69088154D01*
X186012692Y-69080018D01*
X186036450Y-69071156D01*
X186058485Y-69058609D01*
X186068633Y-69059152D01*
X186078156Y-69055601D01*
X186102933Y-69060990D01*
X186128255Y-69062348D01*
X186138316Y-69068688D01*
X186146429Y-69070453D01*
X186174683Y-69091604D01*
X186229437Y-69146358D01*
X186262922Y-69207681D01*
X186263373Y-69258230D01*
X186233300Y-69409415D01*
X186233300Y-69409420D01*
X186233300Y-69606502D01*
X186233300Y-69606504D01*
X186233299Y-69606504D01*
X186271747Y-69799790D01*
X186271750Y-69799800D01*
X186347164Y-69981868D01*
X186347171Y-69981881D01*
X186456660Y-70145742D01*
X186456663Y-70145746D01*
X186596014Y-70285097D01*
X186596018Y-70285100D01*
X186759879Y-70394589D01*
X186759892Y-70394596D01*
X186912313Y-70457730D01*
X186941965Y-70470012D01*
X186941969Y-70470012D01*
X186941970Y-70470013D01*
X187135256Y-70508461D01*
X187135259Y-70508461D01*
X187332343Y-70508461D01*
X187462382Y-70482593D01*
X187525635Y-70470012D01*
X187707714Y-70394593D01*
X187871582Y-70285100D01*
X188010939Y-70145743D01*
X188120432Y-69981875D01*
X188195851Y-69799796D01*
X188213474Y-69711200D01*
X188234300Y-69606504D01*
X188234300Y-69409417D01*
X188197057Y-69222188D01*
X188203284Y-69152596D01*
X188246147Y-69097419D01*
X188312037Y-69074174D01*
X188380034Y-69090242D01*
X188406355Y-69110315D01*
X194352581Y-75056541D01*
X194386066Y-75117864D01*
X194388900Y-75144222D01*
X194388900Y-84951978D01*
X194369215Y-85019017D01*
X194352581Y-85039659D01*
X193650059Y-85742181D01*
X193588736Y-85775666D01*
X193562378Y-85778500D01*
X189139422Y-85778500D01*
X189072383Y-85758815D01*
X189051741Y-85742181D01*
X188323819Y-85014259D01*
X188309115Y-84987331D01*
X188292523Y-84961513D01*
X188291631Y-84955312D01*
X188290334Y-84952936D01*
X188287500Y-84926578D01*
X188287500Y-84846017D01*
X188307185Y-84778978D01*
X188342607Y-84742916D01*
X188502655Y-84635977D01*
X188648977Y-84489655D01*
X188763941Y-84317598D01*
X188843130Y-84126420D01*
X188883500Y-83923465D01*
X188883500Y-83716535D01*
X188883499Y-83716530D01*
X189322500Y-83716530D01*
X189322500Y-83923469D01*
X189362868Y-84126412D01*
X189362870Y-84126420D01*
X189442058Y-84317596D01*
X189557024Y-84489657D01*
X189703342Y-84635975D01*
X189703345Y-84635977D01*
X189875402Y-84750941D01*
X190066580Y-84830130D01*
X190211052Y-84858867D01*
X190269530Y-84870499D01*
X190269534Y-84870500D01*
X190269535Y-84870500D01*
X190476466Y-84870500D01*
X190476467Y-84870499D01*
X190679420Y-84830130D01*
X190870598Y-84750941D01*
X191042655Y-84635977D01*
X191188977Y-84489655D01*
X191303941Y-84317598D01*
X191383130Y-84126420D01*
X191423500Y-83923465D01*
X191423500Y-83736277D01*
X192063000Y-83736277D01*
X192063000Y-83903722D01*
X192095663Y-84067928D01*
X192095665Y-84067936D01*
X192159740Y-84222627D01*
X192159740Y-84222628D01*
X192252758Y-84361839D01*
X192252764Y-84361847D01*
X192371152Y-84480235D01*
X192371160Y-84480241D01*
X192510371Y-84573259D01*
X192665063Y-84637334D01*
X192665071Y-84637336D01*
X192829277Y-84669999D01*
X192829280Y-84670000D01*
X192996720Y-84670000D01*
X192996722Y-84669999D01*
X193160928Y-84637336D01*
X193160936Y-84637334D01*
X193315627Y-84573259D01*
X193315628Y-84573259D01*
X193454839Y-84480241D01*
X193454847Y-84480235D01*
X193573235Y-84361847D01*
X193573241Y-84361839D01*
X193666259Y-84222628D01*
X193666259Y-84222627D01*
X193730334Y-84067936D01*
X193730336Y-84067928D01*
X193762999Y-83903722D01*
X193763000Y-83903720D01*
X193763000Y-83736279D01*
X193762999Y-83736277D01*
X193730336Y-83572071D01*
X193730334Y-83572063D01*
X193666259Y-83417372D01*
X193666259Y-83417371D01*
X193573241Y-83278160D01*
X193573235Y-83278152D01*
X193454847Y-83159764D01*
X193454839Y-83159758D01*
X193315628Y-83066740D01*
X193160936Y-83002665D01*
X193160928Y-83002663D01*
X192996721Y-82970000D01*
X192829279Y-82970000D01*
X192665071Y-83002663D01*
X192665063Y-83002665D01*
X192510372Y-83066740D01*
X192510371Y-83066740D01*
X192371160Y-83159758D01*
X192371152Y-83159764D01*
X192252764Y-83278152D01*
X192252758Y-83278160D01*
X192159740Y-83417371D01*
X192159740Y-83417372D01*
X192095665Y-83572063D01*
X192095663Y-83572071D01*
X192063000Y-83736277D01*
X191423500Y-83736277D01*
X191423500Y-83716535D01*
X191383130Y-83513580D01*
X191303941Y-83322402D01*
X191188977Y-83150345D01*
X191188975Y-83150342D01*
X191042657Y-83004024D01*
X190956626Y-82946541D01*
X190870598Y-82889059D01*
X190824595Y-82870004D01*
X190679420Y-82809870D01*
X190679412Y-82809868D01*
X190476469Y-82769500D01*
X190476465Y-82769500D01*
X190269535Y-82769500D01*
X190269530Y-82769500D01*
X190066587Y-82809868D01*
X190066579Y-82809870D01*
X189875403Y-82889058D01*
X189703342Y-83004024D01*
X189557024Y-83150342D01*
X189442058Y-83322403D01*
X189362870Y-83513579D01*
X189362868Y-83513587D01*
X189322500Y-83716530D01*
X188883499Y-83716530D01*
X188843130Y-83513580D01*
X188763941Y-83322402D01*
X188648977Y-83150345D01*
X188648975Y-83150342D01*
X188502657Y-83004024D01*
X188416626Y-82946541D01*
X188330598Y-82889059D01*
X188284595Y-82870004D01*
X188139420Y-82809870D01*
X188139412Y-82809868D01*
X187936469Y-82769500D01*
X187936465Y-82769500D01*
X187729535Y-82769500D01*
X187729530Y-82769500D01*
X187526587Y-82809868D01*
X187526579Y-82809870D01*
X187335403Y-82889058D01*
X187163342Y-83004024D01*
X187017024Y-83150342D01*
X186902058Y-83322403D01*
X186822870Y-83513579D01*
X186822868Y-83513587D01*
X186782500Y-83716530D01*
X186782500Y-83923469D01*
X186822868Y-84126412D01*
X186822870Y-84126420D01*
X186902058Y-84317596D01*
X187017024Y-84489657D01*
X187163342Y-84635975D01*
X187163345Y-84635977D01*
X187323391Y-84742916D01*
X187368195Y-84796526D01*
X187378500Y-84846017D01*
X187378500Y-85106360D01*
X187378499Y-85106364D01*
X187378499Y-85226036D01*
X187394075Y-85284164D01*
X187396825Y-85294426D01*
X187409473Y-85341632D01*
X187409474Y-85341633D01*
X187469309Y-85445270D01*
X187469311Y-85445272D01*
X187560995Y-85536956D01*
X187561001Y-85536961D01*
X188299859Y-86275819D01*
X188333344Y-86337142D01*
X188328360Y-86406834D01*
X188286488Y-86462767D01*
X188221024Y-86487184D01*
X188212178Y-86487500D01*
X187130622Y-86487500D01*
X187063583Y-86467815D01*
X187042941Y-86451181D01*
X185783819Y-85192059D01*
X185750334Y-85130736D01*
X185747500Y-85104378D01*
X185747500Y-84846017D01*
X185767185Y-84778978D01*
X185802607Y-84742916D01*
X185962655Y-84635977D01*
X186108977Y-84489655D01*
X186223941Y-84317598D01*
X186303130Y-84126420D01*
X186343500Y-83923465D01*
X186343500Y-83716535D01*
X186303130Y-83513580D01*
X186223941Y-83322402D01*
X186108977Y-83150345D01*
X186108975Y-83150342D01*
X185962657Y-83004024D01*
X185876626Y-82946541D01*
X185790598Y-82889059D01*
X185744595Y-82870004D01*
X185599420Y-82809870D01*
X185599412Y-82809868D01*
X185396469Y-82769500D01*
X185396465Y-82769500D01*
X185189535Y-82769500D01*
X185189530Y-82769500D01*
X184986587Y-82809868D01*
X184986579Y-82809870D01*
X184795403Y-82889058D01*
X184623342Y-83004024D01*
X184477024Y-83150342D01*
X184362058Y-83322403D01*
X184282870Y-83513579D01*
X184282868Y-83513587D01*
X184242500Y-83716530D01*
X184242500Y-83923469D01*
X184282868Y-84126412D01*
X184282870Y-84126420D01*
X184362058Y-84317596D01*
X184477024Y-84489657D01*
X184623342Y-84635975D01*
X184623345Y-84635977D01*
X184783391Y-84742916D01*
X184828195Y-84796526D01*
X184838500Y-84846017D01*
X184838500Y-85284160D01*
X184838499Y-85284164D01*
X184838499Y-85403836D01*
X184856408Y-85470670D01*
X184859049Y-85480528D01*
X184859050Y-85480534D01*
X184869471Y-85519427D01*
X184869472Y-85519429D01*
X184869473Y-85519431D01*
X184929309Y-85623070D01*
X184929311Y-85623072D01*
X185020995Y-85714756D01*
X185021001Y-85714761D01*
X186522968Y-87216728D01*
X186522978Y-87216739D01*
X186527308Y-87221069D01*
X186527309Y-87221070D01*
X186611930Y-87305691D01*
X186715569Y-87365527D01*
X186831164Y-87396500D01*
X186950836Y-87396500D01*
X194041552Y-87396500D01*
X194041568Y-87396501D01*
X194049164Y-87396501D01*
X194168835Y-87396501D01*
X194168836Y-87396501D01*
X194259998Y-87372073D01*
X194260001Y-87372073D01*
X194274105Y-87368293D01*
X194284431Y-87365527D01*
X194388070Y-87305691D01*
X194472691Y-87221070D01*
X194472691Y-87221068D01*
X194482895Y-87210865D01*
X194482899Y-87210860D01*
X195821260Y-85872499D01*
X195821265Y-85872495D01*
X195831468Y-85862291D01*
X195831470Y-85862291D01*
X195916091Y-85777670D01*
X195975927Y-85674031D01*
X195998516Y-85589727D01*
X196006901Y-85558436D01*
X196006901Y-85438764D01*
X196006900Y-85438760D01*
X196006900Y-77070815D01*
X196026585Y-77003776D01*
X196079389Y-76958021D01*
X196148547Y-76948077D01*
X196207078Y-76973866D01*
X196207153Y-76973755D01*
X196207789Y-76974180D01*
X196209566Y-76974963D01*
X196212216Y-76977138D01*
X196376079Y-77086628D01*
X196376092Y-77086635D01*
X196558160Y-77162049D01*
X196558165Y-77162051D01*
X196558169Y-77162051D01*
X196558170Y-77162052D01*
X196751456Y-77200500D01*
X196751459Y-77200500D01*
X196948543Y-77200500D01*
X197078582Y-77174632D01*
X197141835Y-77162051D01*
X197323914Y-77086632D01*
X197472609Y-76987276D01*
X197482309Y-76984239D01*
X197489989Y-76977585D01*
X197515086Y-76973976D01*
X197539286Y-76966399D01*
X197549086Y-76969087D01*
X197559147Y-76967641D01*
X197582213Y-76978175D01*
X197606666Y-76984883D01*
X197613457Y-76992443D01*
X197622703Y-76996666D01*
X197636412Y-77017998D01*
X197653357Y-77036862D01*
X197655988Y-77048459D01*
X197660477Y-77055444D01*
X197665500Y-77090379D01*
X197665500Y-77103377D01*
X197645815Y-77170416D01*
X197629181Y-77191058D01*
X197273711Y-77546527D01*
X197273707Y-77546533D01*
X197213872Y-77650168D01*
X197213873Y-77650168D01*
X197213873Y-77650170D01*
X197182899Y-77765765D01*
X197182899Y-77895425D01*
X197182900Y-77895438D01*
X197182900Y-79933116D01*
X197163215Y-80000155D01*
X197127791Y-80036218D01*
X196999618Y-80121860D01*
X196999614Y-80121863D01*
X196860263Y-80261214D01*
X196860260Y-80261218D01*
X196750771Y-80425079D01*
X196750764Y-80425092D01*
X196675350Y-80607160D01*
X196675347Y-80607170D01*
X196636900Y-80800456D01*
X196636900Y-80800459D01*
X196636900Y-80997541D01*
X196636900Y-80997543D01*
X196636899Y-80997543D01*
X196675347Y-81190829D01*
X196675350Y-81190839D01*
X196750764Y-81372907D01*
X196750771Y-81372920D01*
X196860260Y-81536781D01*
X196860263Y-81536785D01*
X196999614Y-81676136D01*
X196999618Y-81676139D01*
X197163479Y-81785628D01*
X197163492Y-81785635D01*
X197284603Y-81835800D01*
X197345565Y-81861051D01*
X197345569Y-81861051D01*
X197345570Y-81861052D01*
X197538856Y-81899500D01*
X197538859Y-81899500D01*
X197735943Y-81899500D01*
X197865982Y-81873632D01*
X197929235Y-81861051D01*
X198111314Y-81785632D01*
X198275182Y-81676139D01*
X198414539Y-81536782D01*
X198524032Y-81372914D01*
X198599451Y-81190835D01*
X198612032Y-81127582D01*
X198637900Y-80997543D01*
X198637900Y-80800456D01*
X198599452Y-80607170D01*
X198599451Y-80607169D01*
X198599451Y-80607165D01*
X198576466Y-80551673D01*
X198524035Y-80425092D01*
X198524028Y-80425079D01*
X198414539Y-80261218D01*
X198414536Y-80261214D01*
X198275185Y-80121863D01*
X198275181Y-80121860D01*
X198147009Y-80036218D01*
X198102204Y-79982606D01*
X198091900Y-79933116D01*
X198091900Y-78065221D01*
X198111585Y-77998182D01*
X198128215Y-77977544D01*
X198388860Y-77716898D01*
X198388865Y-77716895D01*
X198399068Y-77706691D01*
X198399070Y-77706691D01*
X198483691Y-77622070D01*
X198543527Y-77518431D01*
X198574500Y-77402836D01*
X198574500Y-75942943D01*
X199989699Y-75942943D01*
X200028147Y-76136229D01*
X200028150Y-76136239D01*
X200103564Y-76318307D01*
X200103571Y-76318320D01*
X200213060Y-76482181D01*
X200213063Y-76482185D01*
X200352414Y-76621536D01*
X200352418Y-76621539D01*
X200516279Y-76731028D01*
X200516292Y-76731035D01*
X200698360Y-76806449D01*
X200698365Y-76806451D01*
X200698369Y-76806451D01*
X200698370Y-76806452D01*
X200891656Y-76844900D01*
X200891659Y-76844900D01*
X201088743Y-76844900D01*
X201218782Y-76819032D01*
X201282035Y-76806451D01*
X201464114Y-76731032D01*
X201627982Y-76621539D01*
X201767339Y-76482182D01*
X201876832Y-76318314D01*
X201952251Y-76136235D01*
X201990700Y-75942941D01*
X201990700Y-75745859D01*
X201990700Y-75745856D01*
X201952252Y-75552570D01*
X201952251Y-75552569D01*
X201952251Y-75552565D01*
X201952249Y-75552560D01*
X201876835Y-75370492D01*
X201876828Y-75370479D01*
X201767339Y-75206618D01*
X201767336Y-75206614D01*
X201627985Y-75067263D01*
X201627981Y-75067260D01*
X201464120Y-74957771D01*
X201464107Y-74957764D01*
X201282039Y-74882350D01*
X201282029Y-74882347D01*
X201088743Y-74843900D01*
X201088741Y-74843900D01*
X200891659Y-74843900D01*
X200891657Y-74843900D01*
X200698370Y-74882347D01*
X200698360Y-74882350D01*
X200516292Y-74957764D01*
X200516279Y-74957771D01*
X200352418Y-75067260D01*
X200352414Y-75067263D01*
X200213063Y-75206614D01*
X200213060Y-75206618D01*
X200103571Y-75370479D01*
X200103564Y-75370492D01*
X200028150Y-75552560D01*
X200028147Y-75552570D01*
X199989700Y-75745856D01*
X199989700Y-75745859D01*
X199989700Y-75942941D01*
X199989700Y-75942943D01*
X199989699Y-75942943D01*
X198574500Y-75942943D01*
X198574500Y-73983838D01*
X198574501Y-73983825D01*
X198574501Y-73854165D01*
X198543527Y-73738570D01*
X198543527Y-73738568D01*
X198517144Y-73692872D01*
X198483691Y-73634930D01*
X198399070Y-73550309D01*
X198399069Y-73550308D01*
X198394739Y-73545978D01*
X198394728Y-73545968D01*
X196259960Y-71411200D01*
X199581400Y-71411200D01*
X201281400Y-71411200D01*
X201281400Y-70457730D01*
X201920900Y-70457730D01*
X201920900Y-70664669D01*
X201961268Y-70867612D01*
X201961270Y-70867620D01*
X202040458Y-71058796D01*
X202155424Y-71230857D01*
X202301742Y-71377175D01*
X202301745Y-71377177D01*
X202473802Y-71492141D01*
X202664980Y-71571330D01*
X202867930Y-71611699D01*
X202867934Y-71611700D01*
X202867935Y-71611700D01*
X203074866Y-71611700D01*
X203074867Y-71611699D01*
X203277820Y-71571330D01*
X203468998Y-71492141D01*
X203641055Y-71377177D01*
X203787377Y-71230855D01*
X203902341Y-71058798D01*
X203981530Y-70867620D01*
X204021900Y-70664665D01*
X204021900Y-70457735D01*
X203981530Y-70254780D01*
X203902341Y-70063602D01*
X203787377Y-69891545D01*
X203787375Y-69891542D01*
X203641057Y-69745224D01*
X203553724Y-69686871D01*
X203468998Y-69630259D01*
X203401989Y-69602503D01*
X203277820Y-69551070D01*
X203277812Y-69551068D01*
X203074869Y-69510700D01*
X203074865Y-69510700D01*
X202867935Y-69510700D01*
X202867930Y-69510700D01*
X202664987Y-69551068D01*
X202664979Y-69551070D01*
X202473803Y-69630258D01*
X202301742Y-69745224D01*
X202155424Y-69891542D01*
X202040458Y-70063603D01*
X201961270Y-70254779D01*
X201961268Y-70254787D01*
X201920900Y-70457730D01*
X201281400Y-70457730D01*
X201281400Y-69711200D01*
X199581400Y-69711200D01*
X199581400Y-71411200D01*
X196259960Y-71411200D01*
X193847000Y-68998240D01*
X193813515Y-68936917D01*
X193818499Y-68867225D01*
X193860371Y-68811292D01*
X193925835Y-68786875D01*
X193934799Y-68786560D01*
X206059581Y-68802924D01*
G37*
%TD.AperFunction*%
%TD*%
%TA.AperFunction,Conductor*%
%TO.N,+24V*%
G36*
X168812912Y-104159685D02*
G01*
X168858667Y-104212489D01*
X168868611Y-104281647D01*
X168848975Y-104332891D01*
X168785371Y-104428079D01*
X168785364Y-104428092D01*
X168709950Y-104610160D01*
X168709947Y-104610170D01*
X168671500Y-104803456D01*
X168671500Y-104803459D01*
X168671500Y-105000541D01*
X168671500Y-105000543D01*
X168671499Y-105000543D01*
X168709947Y-105193829D01*
X168709950Y-105193839D01*
X168785364Y-105375907D01*
X168785371Y-105375920D01*
X168894860Y-105539781D01*
X168894863Y-105539785D01*
X169034214Y-105679136D01*
X169034218Y-105679139D01*
X169198079Y-105788628D01*
X169198092Y-105788635D01*
X169380160Y-105864049D01*
X169380165Y-105864051D01*
X169380169Y-105864051D01*
X169380170Y-105864052D01*
X169573456Y-105902500D01*
X169573459Y-105902500D01*
X169770543Y-105902500D01*
X169900582Y-105876632D01*
X169963835Y-105864051D01*
X170145914Y-105788632D01*
X170309782Y-105679139D01*
X170449139Y-105539782D01*
X170558632Y-105375914D01*
X170589146Y-105302247D01*
X180305500Y-105302247D01*
X180305500Y-107041752D01*
X180317131Y-107100229D01*
X180317132Y-107100230D01*
X180361447Y-107166552D01*
X180427769Y-107210867D01*
X180427770Y-107210868D01*
X180486247Y-107222499D01*
X180486250Y-107222500D01*
X180486252Y-107222500D01*
X182225750Y-107222500D01*
X182225751Y-107222499D01*
X182240568Y-107219552D01*
X182284229Y-107210868D01*
X182284229Y-107210867D01*
X182284231Y-107210867D01*
X182350552Y-107166552D01*
X182394867Y-107100231D01*
X182394867Y-107100229D01*
X182394868Y-107100229D01*
X182406499Y-107041752D01*
X182406500Y-107041750D01*
X182406500Y-106088277D01*
X183046000Y-106088277D01*
X183046000Y-106255722D01*
X183078663Y-106419928D01*
X183078665Y-106419936D01*
X183142740Y-106574627D01*
X183142740Y-106574628D01*
X183235758Y-106713839D01*
X183235764Y-106713847D01*
X183354152Y-106832235D01*
X183354160Y-106832241D01*
X183493371Y-106925259D01*
X183648063Y-106989334D01*
X183648071Y-106989336D01*
X183812277Y-107021999D01*
X183812280Y-107022000D01*
X183979720Y-107022000D01*
X183979722Y-107021999D01*
X184143928Y-106989336D01*
X184143936Y-106989334D01*
X184298627Y-106925259D01*
X184298628Y-106925259D01*
X184437839Y-106832241D01*
X184437847Y-106832235D01*
X184556235Y-106713847D01*
X184556241Y-106713839D01*
X184649259Y-106574628D01*
X184649259Y-106574627D01*
X184713334Y-106419936D01*
X184713336Y-106419928D01*
X184745999Y-106255722D01*
X184746000Y-106255720D01*
X184746000Y-106088282D01*
X184745672Y-106086633D01*
X184745672Y-106086630D01*
X184742072Y-106068530D01*
X185385500Y-106068530D01*
X185385500Y-106275469D01*
X185425868Y-106478412D01*
X185425870Y-106478420D01*
X185505058Y-106669596D01*
X185620024Y-106841657D01*
X185766342Y-106987975D01*
X185766345Y-106987977D01*
X185938402Y-107102941D01*
X186129580Y-107182130D01*
X186274052Y-107210867D01*
X186332530Y-107222499D01*
X186332534Y-107222500D01*
X186332535Y-107222500D01*
X186539466Y-107222500D01*
X186539467Y-107222499D01*
X186742420Y-107182130D01*
X186933598Y-107102941D01*
X187105655Y-106987977D01*
X187251977Y-106841655D01*
X187366941Y-106669598D01*
X187446130Y-106478420D01*
X187486500Y-106275465D01*
X187486500Y-106068535D01*
X187446130Y-105865580D01*
X187366941Y-105674402D01*
X187251977Y-105502345D01*
X187251975Y-105502342D01*
X187105657Y-105356024D01*
X186969487Y-105265039D01*
X186933598Y-105241059D01*
X186819575Y-105193829D01*
X186742420Y-105161870D01*
X186742412Y-105161868D01*
X186539469Y-105121500D01*
X186539465Y-105121500D01*
X186332535Y-105121500D01*
X186332530Y-105121500D01*
X186129587Y-105161868D01*
X186129579Y-105161870D01*
X185938403Y-105241058D01*
X185766342Y-105356024D01*
X185620024Y-105502342D01*
X185505058Y-105674403D01*
X185425870Y-105865579D01*
X185425868Y-105865587D01*
X185385500Y-106068530D01*
X184742072Y-106068530D01*
X184713336Y-105924071D01*
X184713334Y-105924063D01*
X184649259Y-105769372D01*
X184649259Y-105769371D01*
X184556241Y-105630160D01*
X184556235Y-105630152D01*
X184437847Y-105511764D01*
X184437839Y-105511758D01*
X184298628Y-105418740D01*
X184143936Y-105354665D01*
X184143928Y-105354663D01*
X183979721Y-105322000D01*
X183812279Y-105322000D01*
X183648071Y-105354663D01*
X183648063Y-105354665D01*
X183493372Y-105418740D01*
X183493371Y-105418740D01*
X183354160Y-105511758D01*
X183354152Y-105511764D01*
X183235764Y-105630152D01*
X183235758Y-105630160D01*
X183142740Y-105769371D01*
X183142740Y-105769372D01*
X183078665Y-105924063D01*
X183078663Y-105924071D01*
X183046000Y-106088277D01*
X182406500Y-106088277D01*
X182406500Y-105302249D01*
X182406499Y-105302247D01*
X182394868Y-105243770D01*
X182394867Y-105243769D01*
X182350552Y-105177447D01*
X182284230Y-105133132D01*
X182284229Y-105133131D01*
X182225752Y-105121500D01*
X182225748Y-105121500D01*
X180486252Y-105121500D01*
X180486247Y-105121500D01*
X180427770Y-105133131D01*
X180427769Y-105133132D01*
X180361447Y-105177447D01*
X180317132Y-105243769D01*
X180317131Y-105243770D01*
X180305500Y-105302247D01*
X170589146Y-105302247D01*
X170634051Y-105193835D01*
X170646632Y-105130582D01*
X170672500Y-105000543D01*
X170672500Y-104803456D01*
X170634052Y-104610170D01*
X170634051Y-104610169D01*
X170634051Y-104610165D01*
X170634049Y-104610160D01*
X170558635Y-104428092D01*
X170558628Y-104428079D01*
X170495025Y-104332891D01*
X170474147Y-104266214D01*
X170492631Y-104198833D01*
X170544610Y-104152143D01*
X170598127Y-104140000D01*
X177747537Y-104140000D01*
X177807889Y-104155678D01*
X177824786Y-104165092D01*
X177838138Y-104168988D01*
X177891847Y-104184660D01*
X177891850Y-104184660D01*
X177891859Y-104184663D01*
X177949770Y-104192889D01*
X192026793Y-104168989D01*
X192093862Y-104188559D01*
X192139707Y-104241285D01*
X192151000Y-104292988D01*
X192151000Y-105198000D01*
X192131315Y-105265039D01*
X192078511Y-105310794D01*
X192027000Y-105322000D01*
X190285000Y-105322000D01*
X190285000Y-107022000D01*
X192027000Y-107022000D01*
X192094039Y-107041685D01*
X192139794Y-107094489D01*
X192151000Y-107146000D01*
X192151000Y-109096000D01*
X192131315Y-109163039D01*
X192078511Y-109208794D01*
X192027000Y-109220000D01*
X159128000Y-109220000D01*
X159060961Y-109200315D01*
X159015206Y-109147511D01*
X159004000Y-109096000D01*
X159004000Y-104673400D01*
X166153605Y-104673400D01*
X166155000Y-104140000D01*
X166155001Y-104140000D01*
X168745873Y-104140000D01*
X168812912Y-104159685D01*
G37*
%TD.AperFunction*%
%TD*%
%TA.AperFunction,Conductor*%
%TO.N,+3.3V*%
G36*
X215896539Y-74594085D02*
G01*
X215942294Y-74646889D01*
X215953500Y-74698400D01*
X215953500Y-76900178D01*
X215933815Y-76967217D01*
X215917181Y-76987859D01*
X213921959Y-78983081D01*
X213860636Y-79016566D01*
X213834278Y-79019400D01*
X211606279Y-79019400D01*
X211539240Y-78999715D01*
X211503177Y-78964290D01*
X211419342Y-78838822D01*
X211419336Y-78838814D01*
X211279985Y-78699463D01*
X211279981Y-78699460D01*
X211116120Y-78589971D01*
X211116107Y-78589964D01*
X210934039Y-78514550D01*
X210934029Y-78514547D01*
X210740743Y-78476100D01*
X210740741Y-78476100D01*
X210543659Y-78476100D01*
X210543657Y-78476100D01*
X210350370Y-78514547D01*
X210350360Y-78514550D01*
X210168292Y-78589964D01*
X210168279Y-78589971D01*
X210004418Y-78699460D01*
X210004414Y-78699463D01*
X209865063Y-78838814D01*
X209865057Y-78838822D01*
X209781223Y-78964290D01*
X209727611Y-79009096D01*
X209678121Y-79019400D01*
X208355079Y-79019400D01*
X208288040Y-78999715D01*
X208251977Y-78964290D01*
X208168142Y-78838822D01*
X208168136Y-78838814D01*
X208028785Y-78699463D01*
X208028781Y-78699460D01*
X207864920Y-78589971D01*
X207864907Y-78589964D01*
X207682839Y-78514550D01*
X207682829Y-78514547D01*
X207489543Y-78476100D01*
X207489541Y-78476100D01*
X207292459Y-78476100D01*
X207292457Y-78476100D01*
X207099170Y-78514547D01*
X207099160Y-78514550D01*
X206917092Y-78589964D01*
X206917079Y-78589971D01*
X206753218Y-78699460D01*
X206753214Y-78699463D01*
X206613863Y-78838814D01*
X206613857Y-78838822D01*
X206530023Y-78964290D01*
X206476411Y-79009096D01*
X206426921Y-79019400D01*
X204952600Y-79019400D01*
X204952600Y-76200000D01*
X206207239Y-76200000D01*
X208698017Y-76200000D01*
X208765056Y-76219685D01*
X208766907Y-76220897D01*
X208798402Y-76241941D01*
X208989580Y-76321130D01*
X209192530Y-76361499D01*
X209192534Y-76361500D01*
X209192535Y-76361500D01*
X209399466Y-76361500D01*
X209399467Y-76361499D01*
X209602420Y-76321130D01*
X209793598Y-76241941D01*
X209825093Y-76220897D01*
X209891771Y-76200020D01*
X209893983Y-76200000D01*
X211238017Y-76200000D01*
X211305056Y-76219685D01*
X211306907Y-76220897D01*
X211338402Y-76241941D01*
X211529580Y-76321130D01*
X211732530Y-76361499D01*
X211732534Y-76361500D01*
X211732535Y-76361500D01*
X211939466Y-76361500D01*
X211939467Y-76361499D01*
X212142420Y-76321130D01*
X212333598Y-76241941D01*
X212365093Y-76220897D01*
X212431771Y-76200020D01*
X212433983Y-76200000D01*
X212953600Y-76200000D01*
X212953600Y-74698400D01*
X212973285Y-74631361D01*
X213026089Y-74585606D01*
X213077600Y-74574400D01*
X215829500Y-74574400D01*
X215896539Y-74594085D01*
G37*
%TD.AperFunction*%
%TD*%
M02*
